<svg width="256mm" height="64mm" version="1.1" viewBox="0 0 256 64" xmlns="http://www.w3.org/2000/svg">
    <g transform="translate(-5.4 -222)" fill="#1c1510" fill-opacity=".8503" stroke="#a64f13" stroke-linecap="round" stroke-opacity=".6364" stroke-width=".5" style="paint-order:normal">
        <path d="m235 255v0.321h0.385c0.491 0 0.907 0.159 1.25 0.479 0.363 0.32 0.556 0.725 0.577 1.22v15.1c0 0.469-0.181 0.874-0.543 1.22-0.342 0.341-0.757 0.513-1.25 0.513h-0.416v0.319h10.8c2.28 0 4.25-0.383 5.89-1.15 1.64-0.768 2.9-1.87 3.78-3.3 0.874-1.43 1.31-3.15 1.31-5.15 0-2.01-0.437-3.72-1.31-5.15-0.875-1.45-2.13-2.55-3.78-3.3-1.64-0.768-3.61-1.15-5.89-1.15h-8.55zm6.82 1.25h3.61c2.01 0 3.58 0.746 4.74 2.24 1.17 1.47 1.76 3.51 1.76 6.11s-0.587 4.64-1.76 6.11c-1.15 1.47-2.73 2.21-4.74 2.21h-3.61z" style="paint-order:normal"/>
        <path d="m217 255v0.321h0.382c0.469 0 0.874 0.159 1.22 0.479 0.362 0.32 0.544 0.725 0.544 1.22v15.2c-0.01 0.451-0.182 0.841-0.511 1.17-0.341 0.32-0.746 0.48-1.22 0.48h-0.416v0.319h15.1l1.25-5.89h-0.319c-0.278 0.939-0.672 1.76-1.18 2.46-0.512 0.683-1.13 1.22-1.86 1.6-0.682 0.351-1.46 0.532-2.35 0.543h-3.86v-15.9h1e-3c0.021-0.491 0.201-0.896 0.544-1.22 0.342-0.32 0.748-0.479 1.22-0.479h0.382v-0.321h-6.65z" style="paint-order:normal"/>
        <path d="m206 255v0.321h0.385c0.512 0 0.95 0.159 1.31 0.479 0.363 0.32 0.544 0.725 0.544 1.22h1e-3v15.2c0 0.469-0.181 0.874-0.544 1.22-0.363 0.32-0.79 0.48-1.28 0.48h-0.416v0.319h9.09v-0.319h-0.384c-0.512 0-0.95-0.16-1.31-0.48-0.342-0.341-0.523-0.746-0.543-1.22h-1e-3v-15.2h1e-3c0.021-0.491 0.204-0.896 0.545-1.22 0.363-0.32 0.799-0.479 1.31-0.479h0.352l0.032-0.321h-6.75z" style="paint-order:normal"/>
        <path d="m184 255v0.289h0.448c0.405 0 0.745 0.128 1.02 0.384 0.278 0.256 0.428 0.586 0.448 0.992h1e-3v10.6c0 2.28 0.757 4.09 2.27 5.41 1.54 1.3 3.84 1.95 6.91 1.95 2.56 0 4.53-0.661 5.92-1.98 1.41-1.32 2.11-3.13 2.11-5.41v-10.6c8e-3 -0.388 0.147-0.706 0.416-0.954 0.298-0.256 0.649-0.384 1.05-0.384h0.416v-0.289h-5.89v0.289h0.448c0.384 0 0.714 0.128 0.992 0.384s0.428 0.586 0.448 0.992h1e-3v10.8c-0.021 1.86-0.501 3.31-1.44 4.35-0.917 1.05-2.22 1.57-3.9 1.57-1.62 0-2.89-0.553-3.81-1.66-0.896-1.11-1.34-2.65-1.34-4.61v-10.4c8e-3 -0.388 0.147-0.706 0.416-0.954 0.278-0.256 0.619-0.384 1.02-0.384h0.448v-0.289h-6.43z" style="paint-order:normal"/>
        <path d="m169 251c-2.5 0.0295-4.74 0.521-6.7 1.47-2.03 0.96-3.61 2.33-4.74 4.1-1.11 1.77-1.66 3.8-1.66 6.08 0 3.41 1.23 6.21 3.68 8.38 2.45 2.18 5.6 3.26 9.44 3.26 2.33 0 4.49-0.416 6.5-1.25 0.64 1.86 1.69 3.4 3.14 4.64 1.45 1.26 3.21 2.05 5.28 2.37 0.512 0.0853 1.03 0.129 1.57 0.129h1e-3c1.62 0 3.35-0.363 5.18-1.09l-0.064-0.321c-0.789 0.171-1.57 0.256-2.33 0.256-0.747 0-1.47-0.0856-2.18-0.256-2.62-0.64-4.5-2.26-5.63-4.86-0.512-1.22-0.779-2.53-0.8-3.94v-5.09c-0.0213-0.448 0.108-0.8 0.384-1.06 0.278-0.256 0.683-0.384 1.22-0.384h0.48v-0.321h-8.99v0.321h0.511c0.512 0 0.906 0.128 1.18 0.384 0.277 0.256 0.416 0.618 0.416 1.09v4.86c-0.341 0.96-1 1.73-1.98 2.3-0.96 0.576-2.1 0.864-3.42 0.864-2.45 0-4.46-0.95-6.02-2.85s-2.34-4.36-2.34-7.39c0-3.05 0.79-5.54 2.37-7.46 1.6-1.94 3.66-2.91 6.18-2.91 2.05 0 3.8 0.502 5.25 1.5 1.47 0.981 2.46 2.44 2.98 4.38h0.256l-0.0643-5.5c-0.981-0.491-2.27-0.896-3.87-1.22-1.6-0.341-3.25-0.511-4.96-0.511-0.0405 0-0.0825-2.6e-4 -0.123 0-0.04 2.4e-4 -0.0788-4.7e-4 -0.119 0z" style="paint-order:normal"/>
        <path d="m75.1 255v0.321h0.384c0.512 0 0.948 0.159 1.31 0.479 0.363 0.32 0.545 0.725 0.545 1.22v15.2c0 0.469-0.182 0.874-0.545 1.22-0.363 0.32-0.79 0.48-1.28 0.48h-0.414v0.319h9.09v-0.319h-0.384c-0.512 0-0.948-0.16-1.31-0.48-0.341-0.341-0.524-0.746-0.545-1.22v-15.2h0.0015c0.0213-0.491 0.202-0.896 0.543-1.22 0.363-0.32 0.801-0.479 1.31-0.479h0.351l0.0323-0.321h-6.75z" style="paint-order:normal"/>
        <path d="m35.5 255v0.321h0.416c0.448 0 0.831 0.159 1.15 0.479 0.273 0.239 0.444 0.539 0.513 0.901v15.8c-0.0683 0.355-0.24 0.669-0.513 0.942-0.32 0.32-0.714 0.48-1.18 0.48h-0.384v0.319h8.8v-0.319h-0.353c-0.405 0-0.8-0.15-1.18-0.448-0.363-0.299-0.543-0.715-0.543-1.25v-15.9c0.169 0.0188 0.403 0.0292 0.703 0.0292 0.341-0.0214 0.715-0.0214 1.12 0 0.277 0 0.597 0.053 0.959 0.16 0.384 0.0853 0.758 0.255 1.12 0.511 0.363 0.256 0.66 0.619 0.895 1.09 0.256 0.469 0.406 1.1 0.448 1.89 0.0214 0.299 0.0106 0.565-0.0323 0.8-0.0214 0.235-0.0524 0.416-0.0952 0.543-0.171 0.896-0.437 1.58-0.8 2.05-0.363 0.448-0.768 0.757-1.22 0.927-0.427 0.149-0.865 0.224-1.31 0.224h-0.8v0.289c0.299 0 0.618 0.159 0.959 0.479 0.363 0.299 0.684 0.79 0.961 1.47 0.0641 0.256 0.17 0.575 0.319 0.959 0.171 0.384 0.362 0.78 0.576 1.19l0.64 1.22c0.213 0.384 0.416 0.714 0.608 0.992 0.512 0.789 1.06 1.42 1.63 1.89 0.576 0.448 1.26 0.757 2.05 0.927 0.811 0.171 1.79 0.256 2.94 0.256h2.69v-0.319c-0.448 0-0.842-0.0641-1.18-0.192-0.341-0.128-0.672-0.341-0.992-0.64-0.32-0.32-0.694-0.769-1.12-1.34-0.363-0.512-0.715-1-1.06-1.47-0.32-0.491-0.586-0.916-0.8-1.28-0.213-0.384-0.374-0.661-0.48-0.832-0.299-0.491-0.735-1.01-1.31-1.57-0.555-0.555-1.14-0.927-1.76-1.12 1.05-0.171 1.89-0.523 2.53-1.06 0.661-0.533 1.14-1.16 1.44-1.89 0.32-0.747 0.48-1.49 0.48-2.24 0-1-0.203-1.83-0.608-2.5-0.384-0.683-0.908-1.22-1.57-1.6-0.661-0.405-1.41-0.694-2.24-0.864-0.832-0.192-1.7-0.289-2.59-0.289h-7.52z" style="paint-order:normal"/>
        <path d="m92.8 255c-1.03 0.0116-1.94 0.204-2.75 0.576-0.832 0.384-1.5 0.939-2.02 1.66-0.491 0.725-0.79 1.6-0.896 2.62-0.128 1.09 0.0434 2.09 0.513 3.01 0.491 0.917 1.27 1.65 2.34 2.21l4.54 2.88c0.853 0.448 1.46 0.908 1.82 1.38 0.384 0.448 0.576 0.948 0.576 1.5 0 0.789-0.31 1.47-0.929 2.05-0.619 0.576-1.55 0.863-2.78 0.863-1.13 0-2.11-0.234-2.94-0.703-0.811-0.491-1.42-1.14-1.82-1.95-0.405-0.811-0.577-1.7-0.513-2.66h-0.255c-0.256 0.405-0.47 0.918-0.64 1.54-0.171 0.597-0.267 1.21-0.289 1.82-0.0214 0.597 0.0536 1.11 0.224 1.54 0.299 0.32 0.726 0.608 1.28 0.864 0.576 0.256 1.26 0.459 2.05 0.608 0.789 0.149 1.64 0.224 2.56 0.224 1.49 0 2.78-0.224 3.87-0.672 1.11-0.469 1.97-1.14 2.59-2.02 0.64-0.875 0.992-1.91 1.06-3.1 0.0641-1.15-0.149-2.13-0.64-2.94-0.491-0.811-1.16-1.43-2.02-1.86l-5.02-3.1c-0.405-0.235-0.778-0.468-1.12-0.703-0.32-0.235-0.576-0.501-0.768-0.8-0.171-0.32-0.236-0.672-0.193-1.06 0.0428-0.747 0.374-1.34 0.993-1.79 0.64-0.448 1.47-0.671 2.5-0.671 1.28 0 2.26 0.287 2.94 0.863s1.02 1.36 1.02 2.34h0.289l0.416-3.9c-0.0055-2e-3 -0.0117-4e-3 -0.0176-6e-3l0.0176-0.313h-1.82c-0.222-0.025-0.457-0.0468-0.705-0.0643-0.597-0.0638-1.21-0.117-1.82-0.16-0.597-0.0428-1.11-0.0643-1.54-0.0643-0.0334 0-0.068-3.7e-4 -0.101 0z" style="paint-order:normal"/>
        <path d="m54.9 255v5.06h0.353v-0.287c0-0.917 0.245-1.64 0.735-2.18 0.512-0.533 1.24-0.811 2.18-0.832h3.68v15.9h-0.0015c-0.0213 0.469-0.202 0.874-0.543 1.22-0.32 0.32-0.714 0.48-1.18 0.48h-0.352v0.319h8.83v-0.319h-0.352c-0.491 0-0.907-0.16-1.25-0.48-0.342-0.341-0.513-0.746-0.513-1.22v-15.9h3.71c0.917 0.0213 1.63 0.299 2.14 0.832 0.533 0.533 0.789 1.26 0.768 2.18v0.289h0.321v-5.06c-0.128 0.0638-0.385 0.139-0.769 0.224-0.384 0.0638-0.809 0.128-1.28 0.192-0.411 0.0374-0.797 0.0584-1.16 0.0629h-12c-0.365-2e-3 -0.767-0.0245-1.21-0.0643-0.448-0.0638-0.864-0.137-1.25-0.223-0.363-0.0853-0.64-0.149-0.832-0.192z" style="paint-order:normal"/>
        <path d="m112 254c-0.0214 0.213-0.106 0.512-0.255 0.896-0.149 0.363-0.31 0.757-0.48 1.18-0.171 0.405-0.331 0.779-0.48 1.12-0.149 0.32-0.244 0.544-0.287 0.672l-6.55 14.1h-0.0103c-0.299 0.661-0.683 1.13-1.15 1.41-0.469 0.256-0.917 0.384-1.34 0.384h-0.256v0.319h6.4v-0.319h-0.256c-0.363 0-0.693-0.15-0.992-0.448-0.283-0.303-0.327-0.722-0.13-1.26l1.29-3h6.76l1.36 3.21c0.113 0.433 0.0479 0.781-0.196 1.04-0.299 0.299-0.629 0.448-0.992 0.448h-0.256v0.319h18.1v-0.319h-0.512c-0.469 0-0.874-0.15-1.22-0.448-0.341-0.32-0.522-0.714-0.543-1.18v-10.6l14.7 12.9h0.287l-0.0952-0.448c-0.0425-0.32-0.0969-0.756-0.161-1.31-0.0428-0.576-0.0615-1.24-0.0615-1.98v-14c0.0103-0.45 0.181-0.82 0.511-1.11 0.363-0.32 0.779-0.479 1.25-0.479h0.543v-0.321h-8.99v0.321h0.543c0.491 0 0.896 0.159 1.22 0.479 0.341 0.299 0.524 0.683 0.545 1.15v10.5l-14.7-12.9h-0.289l0.161 1.02c0.107 0.661 0.16 1.54 0.16 2.62v14c0 0.469-0.172 0.864-0.513 1.18-0.341 0.299-0.757 0.448-1.25 0.448h-0.511c-0.427 0-0.875-0.128-1.34-0.384-0.469-0.277-0.864-0.746-1.18-1.41h-1e-3l-8.54-18zm-1.09 7.13 2.83 6.67h-5.7z" style="paint-order:normal"/>
        <path d="m22.3 251c0 0.235-0.0747 0.565-0.224 0.992-0.149 0.405-0.321 0.832-0.513 1.28-0.171 0.448-0.341 0.853-0.511 1.22-0.149 0.341-0.257 0.575-0.321 0.703l-7.47 16.9c-0.305 0.52-0.672 0.91-1.1 1.17-0.512 0.299-1.01 0.448-1.5 0.448h-0.287v0.319h6.85v-0.319h-0.287c-0.256 0-0.512-0.0748-0.768-0.224-0.256-0.171-0.438-0.406-0.545-0.705-0.0955-0.268-0.0792-0.587 0.0483-0.958l1.95-4.68 2.74-1.25 1.51 0.681 1.52-0.696 2.52 1.14 1.86 4.68h-0.0088c0.256 0.64 0.223 1.14-0.0967 1.5-0.32 0.341-0.694 0.513-1.12 0.513h-0.287v0.319h8.84v-0.319h-0.257c-0.491 0-0.991-0.15-1.5-0.448-0.465-0.291-0.869-0.75-1.21-1.38l-9.54-20.9zm-0.429 5.92 3.35 8.39-1.79-0.806-1.56 0.712-1.51-0.681-2.05 0.936z" style="paint-order:normal"/>
        <path d="m93.7 233v0.24h0.287c0.464 0 0.88 0.111 1.25 0.335 0.384 0.208 0.705 0.496 0.961 0.864h0.0088l4.43 6.98v4.44c-0.016 0.352-0.16 0.657-0.432 0.913-0.256 0.256-0.577 0.384-0.961 0.384h-0.287v0.239h4.92v-0.239h-0.287c-0.384 0-0.712-0.128-0.984-0.384-0.256-0.256-0.391-0.561-0.407-0.913v-4.41l4.6-6.99 0.0366-1e-3c0.224-0.32 0.527-0.601 0.911-0.841 0.4-0.256 0.825-0.384 1.27-0.384h0.287v-0.24h-5.02v0.239h0.289c0.352 0 0.608 0.137 0.768 0.409s0.151 0.568-0.0249 0.888l-3.66 6.06-3.42-6.08h0.0029c-0.16-0.288-0.168-0.567-0.0234-0.839 0.16-0.288 0.416-0.432 0.768-0.432h0.289v-0.24z" style="paint-order:normal"/>
        <path d="m88.7 233v0.24h0.215c0.288 0 0.489 0.104 0.601 0.312 0.128 0.192 0.104 0.4-0.0717 0.624h0.0059l-5.17 6.07 0.384 0.432c0.256 0.272 0.584 0.632 0.984 1.08 0.4 0.432 0.825 0.897 1.27 1.39 0.464 0.48 0.895 0.944 1.29 1.39 0.4 0.432 0.721 0.792 0.961 1.08l0.384 0.409c0.288 0.32 0.591 0.576 0.911 0.768 0.336 0.176 0.664 0.311 0.984 0.407 0.336 0.0802 0.641 0.137 0.913 0.168 0.288 0.016 0.527 0.0249 0.719 0.0249h0.888v-0.24c-0.512-0.0159-0.919-0.104-1.22-0.264-0.304-0.16-0.592-0.401-0.864-0.721l-5.96-6.48 5.14-5.49h0.0059c0.272-0.32 0.615-0.559 1.03-0.719 0.432-0.16 0.897-0.24 1.39-0.24h0.0952v-0.24h-0.0952z" style="paint-order:normal"/>
        <path d="m80.2 233v0.24h0.289c0.384 0 0.711 0.128 0.983 0.384 0.272 0.24 0.416 0.545 0.432 0.913v11.3c-0.016 0.352-0.16 0.655-0.432 0.911s-0.599 0.385-0.983 0.385h-0.289v0.239h4.92v-0.239h-0.265c-0.4 0-0.737-0.128-1.01-0.384-0.272-0.256-0.407-0.561-0.407-0.913v-11.4c0.0082-0.353 0.144-0.645 0.407-0.877 0.272-0.256 0.6-0.384 0.984-0.384h0.289v-0.24h-3.17z" style="paint-order:normal"/>
        <path d="m52.5 232c-1.08 0.0111-2.09 0.196-3.04 0.552-0.976 0.352-1.84 0.863-2.59 1.54-0.736 0.672-1.31 1.47-1.73 2.4-0.416 0.912-0.624 1.93-0.624 3.05s0.208 2.15 0.624 3.07c0.416 0.912 0.992 1.7 1.73 2.38 0.752 0.672 1.62 1.19 2.59 1.56 0.976 0.352 2.03 0.527 3.15 0.527s2.17-0.175 3.14-0.527c0.992-0.368 1.86-0.888 2.59-1.56 0.752-0.672 1.34-1.46 1.75-2.38 0.416-0.928 0.624-1.95 0.624-3.07s-0.208-2.13-0.624-3.05c-0.416-0.928-1-1.73-1.75-2.4-0.736-0.672-1.6-1.18-2.59-1.54-0.976-0.368-2.02-0.552-3.14-0.552-0.0349 0-0.0706-3.6e-4 -0.105 0zm-0.0044 0.72c0.0179-2.7e-4 0.0363 1.4e-4 0.0541 0 0.0182-1.4e-4 0.0374 0 0.0556 0 1.18 0 2.26 0.288 3.22 0.864s1.72 1.38 2.28 2.4c0.56 1.01 0.839 2.19 0.839 3.55 0 1.34-0.28 2.53-0.839 3.55-0.56 1.02-1.32 1.82-2.28 2.4-0.96 0.576-2.03 0.863-3.22 0.863-1.17 0-2.23-0.287-3.19-0.863s-1.72-1.38-2.28-2.4-0.839-2.21-0.839-3.55c0-1.36 0.28-2.54 0.839-3.55 0.56-1.02 1.32-1.82 2.28-2.4 0.93-0.558 1.96-0.847 3.08-0.864z" style="paint-order:normal"/>
        <path d="m70.9 232c-0.0125 3e-5 -0.0241 1e-3 -0.0366 1e-3 -1.55 0.0184-2.91 0.322-4.07 0.911-1.18 0.608-2.1 1.47-2.74 2.59s-0.961 2.46-0.961 4.03c0 1.55 0.321 2.89 0.961 4.01s1.55 1.98 2.74 2.59c1.2 0.608 2.61 0.92 4.22 0.936 0.944 0 1.84-0.12 2.69-0.36 0.848-0.256 1.61-0.616 2.28-1.08 0.672-0.464 1.22-1.02 1.63-1.66l0.264-3.29h-0.217c-0.0799 1.31-0.425 2.38-1.03 3.22-0.608 0.832-1.4 1.45-2.38 1.85-0.96 0.384-2.04 0.576-3.24 0.576-1.26-0.016-2.36-0.295-3.29-0.839-0.928-0.56-1.65-1.34-2.16-2.35-0.496-1.02-0.744-2.22-0.744-3.6 0-1.41 0.248-2.62 0.744-3.62 0.512-1.02 1.22-1.81 2.14-2.35 0.928-0.56 2.02-0.841 3.29-0.841 1.49 0 2.76 0.321 3.82 0.961 1.07 0.64 1.78 1.7 2.14 3.17h0.217l-0.527-3.38c-0.736-0.464-1.61-0.824-2.62-1.08s-2.01-0.384-3-0.384c-0.038 0-0.0765-2e-3 -0.114-1e-3z" style="paint-order:normal"/>
        <path d="m29.1 230v0.24h0.312c0.416 0 0.768 0.152 1.06 0.456 0.304 0.288 0.463 0.64 0.479 1.06v13.3c-0.016 0.416-0.175 0.768-0.479 1.06-0.304 0.288-0.656 0.432-1.06 0.432h-0.312v0.239h5.26l-0.0249-0.239h-0.287c-0.432 0-0.8-0.153-1.1-0.457-0.288-0.304-0.432-0.655-0.432-1.05v-14.3h2.98c0.944 0.016 1.67 0.376 2.18 1.08 0.528 0.704 0.791 1.64 0.791 2.81 0 1.41-0.471 2.42-1.42 3.02-0.24 0.176-0.536 0.32-0.888 0.432-0.352 0.0961-0.689 0.169-1.01 0.217-0.304 0.032-0.919 0.0469-1.85 0.0469v0.24c0.304 0.032 0.736 0.36 1.3 0.984 0.56 0.624 1.7 1.89 3.41 3.79 1.71 1.89 2.86 3.18 3.46 3.86 0.608 0.688 1.28 1.33 2.02 1.92 0.4 0.352 0.8 0.648 1.2 0.888s0.823 0.448 1.27 0.624c0.464 0.192 0.896 0.32 1.3 0.384 0.4 0.0641 0.856 0.0967 1.37 0.0967 0.528 0 1.13-0.0879 1.8-0.264v-0.24c-0.192 0.032-0.385 0.0483-0.577 0.0483-0.928 0-1.86-0.257-2.81-0.769-0.464-0.24-0.999-0.616-1.61-1.13-0.592-0.496-1.28-1.13-2.06-1.92-0.784-0.784-2.56-2.7-5.33-5.76-0.688-0.768-1.3-1.44-1.85-2.02h0.0234c1.14 0 2.1-0.464 2.88-1.39 0.784-0.944 1.18-2.06 1.18-3.36 0-1.31-0.432-2.36-1.3-3.14-0.848-0.8-1.98-1.2-3.38-1.2z" style="paint-order:normal"/>
        <path d="m221 233v0.24h0.337c0.448 0 0.824 0.128 1.13 0.384 0.31 0.232 0.478 0.525 0.502 0.877v11.4h-1e-3c-0.016 0.352-0.184 0.657-0.504 0.913-0.304 0.256-0.68 0.384-1.13 0.384h-0.334v0.239h5.44l-0.023-0.239h-0.31c-0.448 0-0.833-0.128-1.15-0.384-0.294-0.248-0.453-0.542-0.478-0.88v-11.4c0.02-0.36 0.179-0.659 0.479-0.895 0.32-0.256 0.705-0.384 1.15-0.384h0.31l0.023-0.24h-3.41z" style="paint-order:normal"/>
        <path d="m157 233v0.24h0.359c0.32 0 0.584 0.104 0.792 0.312 0.224 0.192 0.344 0.433 0.36 0.721v8.09c0 1.66 0.535 2.98 1.61 3.94 1.09 0.96 2.55 1.44 4.39 1.44 1.86 0 3.31-0.48 4.37-1.44 1.07-0.976 1.61-2.3 1.61-3.96v-8.06c0.016-0.288 0.136-0.529 0.36-0.721 0.224-0.208 0.488-0.312 0.792-0.312h0.36v-0.24h-4.13v0.24h0.359c0.32 0 0.592 0.104 0.816 0.312 0.217 0.186 0.33 0.417 0.337 0.693v8.09c0 1.47-0.44 2.63-1.32 3.48-0.864 0.848-2.06 1.27-3.58 1.27-1.38 0-2.46-0.449-3.26-1.34-0.784-0.896-1.17-2.12-1.17-3.67v-7.8c0-0.288 0.113-0.529 0.337-0.721 0.24-0.208 0.512-0.312 0.816-0.312h0.36v-0.24h-3z" style="paint-order:normal"/>
        <path d="m211 232c-0.015 0.16-0.072 0.375-0.168 0.647s-0.207 0.553-0.336 0.841c-0.11 0.272-0.215 0.504-0.312 0.696l-0.119 0.287-5.02 10.8c-0.23 0.42-0.492 0.732-0.79 0.935-0.352 0.224-0.695 0.337-1.03 0.337h-0.192v0.24h4.58v-0.24h-0.193c-0.288 0-0.545-0.128-0.769-0.384-0.201-0.247-0.24-0.579-0.113-0.996l1.37-3.25h6.07l1.34 3.28c0.116 0.406 0.075 0.731-0.123 0.973-0.224 0.256-0.472 0.384-0.744 0.384h-0.192v0.24h4.92v-0.24h-0.194c-0.32 0-0.656-0.113-1.01-0.337-0.352-0.24-0.649-0.631-0.889-1.17h-6e-3l-5.87-13zm-6e-3 2.58 2.69 6.56h-5.47z" style="paint-order:normal"/>
        <path d="m147 232c-1.08 0.0111-2.09 0.196-3.04 0.552-0.976 0.352-1.84 0.863-2.59 1.54-0.736 0.672-1.31 1.47-1.73 2.4-0.416 0.912-0.624 1.93-0.624 3.05s0.208 2.15 0.624 3.07c0.416 0.912 0.993 1.7 1.73 2.38 0.752 0.672 1.62 1.19 2.59 1.56 0.976 0.352 2.02 0.527 3.14 0.527s2.17-0.175 3.15-0.527c0.992-0.368 1.86-0.888 2.59-1.56 0.752-0.672 1.34-1.46 1.75-2.38 0.416-0.928 0.624-1.95 0.624-3.07s-0.208-2.13-0.624-3.05c-0.416-0.928-1-1.73-1.75-2.4-0.736-0.672-1.6-1.18-2.59-1.54-0.976-0.368-2.03-0.552-3.15-0.552-0.0349 0-0.0692-3.6e-4 -0.104 0zm-4e-3 0.72c0.0179-2.7e-4 0.0363 1.4e-4 0.0541 0 0.0182-1.4e-4 0.036 0 0.0541 0 1.18 0 2.26 0.288 3.22 0.864s1.72 1.38 2.28 2.4c0.56 1.01 0.841 2.19 0.841 3.55 0 1.34-0.281 2.53-0.841 3.55s-1.32 1.82-2.28 2.4c-0.96 0.576-2.03 0.863-3.22 0.863-1.17 0-2.23-0.287-3.19-0.863s-1.72-1.38-2.28-2.4-0.841-2.21-0.841-3.55c0-1.36 0.281-2.54 0.841-3.55 0.56-1.02 1.32-1.82 2.28-2.4 0.93-0.558 1.96-0.847 3.08-0.864z" style="paint-order:normal"/>
        <path d="m230 232 0.095 0.889c0.079 0.592 0.12 1.29 0.12 2.11v10.3c0 0.352-0.128 0.648-0.384 0.888-0.255 0.24-0.568 0.36-0.936 0.36h-0.409v0.24h4.54v-0.24h-0.409c-0.352 0-0.664-0.12-0.936-0.36-0.255-0.24-0.385-0.536-0.385-0.888h-3e-3l-0.018-10 12.5 11.8 6e-3 6e-3h0.213l-0.07-0.432c-0.031-0.304-0.065-0.687-0.097-1.15-0.031-0.48-0.048-0.976-0.048-1.49v-10.2h1e-3c0-0.352 0.128-0.648 0.384-0.888 0.272-0.24 0.584-0.36 0.936-0.36h0.409v-0.24h-4.54v0.24h0.409c0.368 0 0.68 0.12 0.936 0.36 0.247 0.232 0.383 0.518 0.406 0.855v9.94l-12.5-11.8z" style="paint-order:normal"/>
        <path d="m175 232 0.0952 0.889c0.0799 0.592 0.12 1.29 0.12 2.11v10.3c0 0.352-0.128 0.648-0.384 0.888s-0.568 0.36-0.936 0.36h-0.409v0.24h4.54v-0.24h-0.409c-0.352 0-0.664-0.12-0.936-0.36-0.256-0.24-0.384-0.536-0.384-0.888h-3e-3l-0.0176-10 12.5 11.8 6e-3 6e-3h0.213l-0.072-0.432c-0.031-0.304-0.064-0.687-0.095-1.15-0.031-0.48-0.048-0.976-0.048-1.49v-10.2h1e-3c0-0.352 0.128-0.648 0.384-0.888 0.272-0.24 0.584-0.36 0.936-0.36h0.407v-0.24h-4.54v0.24h0.409c0.368 0 0.679 0.12 0.935 0.36 0.247 0.232 0.384 0.518 0.407 0.855v9.94l-12.5-11.8z" style="paint-order:normal"/>
        <path d="m205 232c-0.145 0.0479-0.368 0.104-0.672 0.168-0.304 0.0641-0.64 0.121-1.01 0.168-0.33 0.03-0.646 0.0463-0.948 0.0483h-7.92c-0.303-2e-3 -0.628-0.0183-0.973-0.0483-0.368-0.0479-0.704-0.104-1.01-0.168-0.288-0.0641-0.504-0.119-0.648-0.167v2.71h0.264v-0.384c0-0.336 0.105-0.617 0.312-0.841 0.224-0.24 0.52-0.368 0.888-0.384h4.34v12.2c-0.016 0.352-0.159 0.657-0.431 0.913s-0.6 0.384-0.984 0.384h-0.288v0.24h4.94v-0.24h-0.264c-0.384 0-0.712-0.128-0.984-0.384-0.264-0.248-0.407-0.542-0.431-0.88v-12.2h4.34c0.368 0.016 0.655 0.144 0.863 0.384 0.224 0.224 0.337 0.505 0.337 0.841v0.384h0.264v-2.71z" style="paint-order:normal"/>
        <path d="m115 228c-0.264 7e-3 -0.597 0.0635-1 0.168v0.239c0.192-0.016 0.375-0.0234 0.551-0.0234 1.97 0 3.66 1.38 5.06 4.15l-1.51 13.1c-0.0799 0.432-0.288 0.784-0.624 1.06-0.32 0.256-0.696 0.384-1.13 0.384h-0.384v0.24h4.66v-0.217h-0.385c-0.24 0-0.463-0.104-0.671-0.312-0.192-0.208-0.272-0.447-0.24-0.719l1.06-11.9 6.22 13.5h0.239c0.0961-0.656 0.368-1.47 0.816-2.45l4.99-11.3 1.46 10.7c0.288 2.14 1.11 3.89 2.45 5.23 0.656 0.656 1.38 1.1 2.18 1.34 0.816 0.24 1.5 0.359 2.04 0.359 0.56 0 1.06-0.0311 1.51-0.0952v-0.24h-0.287c-1.55 0-2.89-0.577-4.01-1.73-1.1-1.15-1.82-2.85-2.16-5.09l-2.23-14.2h-0.215l-6.46 14.5-5.78-12.5c-0.256-0.528-0.601-1.08-1.03-1.66-0.256-0.32-0.528-0.608-0.816-0.864-0.288-0.272-0.624-0.528-1.01-0.768-0.384-0.256-0.791-0.448-1.22-0.576-0.432-0.128-0.808-0.201-1.13-0.217-0.32-0.032-0.617-0.0483-0.889-0.0483-0.017 0-0.0351-4.4e-4 -0.0527-1e-5z" style="paint-order:normal"/>
    </g>
</svg>
