<?xml version="1.0" encoding="UTF-8" standalone="no"?>
<svg
   width="256mm"
   height="64mm"
   viewBox="0 0 25.600001 6.4"
   version="1.1"
   id="svg54">
  <g
     inkscape:groupmode="layer"
     id="layer2"
     inkscape:label="Layer 1"
     style="display:inline"
     transform="translate(4.3981056,-1.6022772)">
    <rect
       style="display:inline;fill:#164450;fill-opacity:1;stroke-width:0.0299999;stroke-linecap:round;paint-order:markers fill stroke"
       id="rect18249"
       width="25.6"
       height="6.4000001"
       x="-4.3981056"
       y="1.6022772" />
    <text
       xml:space="preserve"
       style="font-style:normal;font-variant:normal;font-weight:normal;font-stretch:normal;font-size:3.2px;font-family:Cinzel;-inkscape-font-specification:Cinzel;font-variant-ligatures:normal;font-variant-caps:normal;font-variant-numeric:normal;font-variant-east-asian:normal;fill:#3b80ee;fill-opacity:1;stroke-width:0.0299999;stroke-linecap:round;paint-order:markers fill stroke"
       x="-2.1687348"
       y="4.0996766"
       id="text2688"><tspan
         sodipodi:role="line"
         id="tspan2686"
         style="font-style:normal;font-variant:normal;font-weight:normal;font-stretch:normal;font-size:2.4px;font-family:Cinzel;-inkscape-font-specification:'Cinzel, Normal';font-variant-ligatures:normal;font-variant-caps:normal;font-variant-numeric:normal;font-variant-east-asian:normal;fill:#3b80ee;fill-opacity:1;stroke-width:0.0299999"
         x="-2.1687348"
         y="4.0996766"><tspan
   style="font-style:normal;font-variant:normal;font-weight:normal;font-stretch:normal;font-size:2.4px;font-family:'Cinzel Decorative';-inkscape-font-specification:'Cinzel Decorative, Normal';font-variant-ligatures:normal;font-variant-caps:normal;font-variant-numeric:normal;font-variant-east-asian:normal;fill:#3b80ee;fill-opacity:1;stroke-width:0.0299999"
   id="tspan2932">R</tspan>ocky <tspan
   style="font-style:normal;font-variant:normal;font-weight:normal;font-stretch:normal;font-size:2.4px;font-family:'Cinzel Decorative';-inkscape-font-specification:'Cinzel Decorative, Normal';font-variant-ligatures:normal;font-variant-caps:normal;font-variant-numeric:normal;font-variant-east-asian:normal;fill:#3b80ee;fill-opacity:1;stroke-width:0.0299999"
   id="tspan2934">M</tspan>ountain</tspan></text>
    <text
       xml:space="preserve"
       style="font-style:normal;font-variant:normal;font-weight:normal;font-stretch:normal;font-size:3.2px;font-family:'Cinzel Decorative';-inkscape-font-specification:'Cinzel Decorative';font-variant-ligatures:normal;font-variant-caps:normal;font-variant-numeric:normal;font-variant-east-asian:normal;fill:#3b80ee;fill-opacity:1;stroke-width:0.0299999;stroke-linecap:round;paint-order:markers fill stroke"
       x="-3.8141603"
       y="6.8033123"
       id="text2926"><tspan
         sodipodi:role="line"
         id="tspan2924"
         style="font-style:normal;font-variant:normal;font-weight:bold;font-stretch:normal;font-size:3.2px;font-family:Cinzel;-inkscape-font-specification:'Cinzel, Bold';font-variant-ligatures:normal;font-variant-caps:normal;font-variant-numeric:normal;font-variant-east-asian:normal;fill:#3b80ee;fill-opacity:1;stroke-width:0.0299999"
         x="-3.8141603"
         y="6.8033123">Artisan <tspan
   style="font-style:normal;font-variant:normal;font-weight:bold;font-stretch:normal;font-size:3.2px;font-family:'Cinzel Decorative';-inkscape-font-specification:'Cinzel Decorative, Bold';font-variant-ligatures:normal;font-variant-caps:normal;font-variant-numeric:normal;font-variant-east-asian:normal;fill:#3b80ee;fill-opacity:1;stroke-width:0.0299999"
   id="tspan2938">G</tspan>uild</tspan></text>
  </g>
  <g
     inkscape:groupmode="layer"
     id="layer3"
     inkscape:label="Layer 2"
     style="display:inline"
     transform="translate(4.3981056,-1.6022772)">
    <path
       style="font-size:0.846667px;font-family:'Cinzel Decorative';-inkscape-font-specification:'Cinzel Decorative, Normal';fill:#c3e33e;fill-opacity:1;stroke-width:0.0299999;stroke-linecap:round;paint-order:markers fill stroke"
       d="m 4.4313243,2.6596468 v 0.024009 h 0.028712 c 0.0464,0 0.088004,0.01114 0.1248038,0.033545 0.038401,0.020806 0.070492,0.049626 0.096094,0.086425 h 8.79e-4 L 5.1249289,3.501625 v 0.4444336 c -0.0016,0.035198 -0.016016,0.065659 -0.043214,0.091259 -0.025597,0.025597 -0.057694,0.038378 -0.096095,0.038378 h -0.014343 -0.014343 v 0.02401 h 0.1751953 0.1488273 0.1678706 v -0.02401 h -0.014343 -0.014343 c -0.038401,0 -0.071237,-0.012784 -0.098439,-0.038378 -0.025597,-0.025597 -0.039124,-0.056058 -0.040723,-0.091259 V 3.5052995 l 0.4595213,-0.6990233 0.00366,-1.465e-4 c 0.022394,-0.032 0.052713,-0.060083 0.091114,-0.084081 0.04,-0.025597 0.082494,-0.038378 0.1272954,-0.038378 h 0.028712 V 2.6596323 H 5.4896737 v 0.02401 h 0.014343 0.014513 c 0.035192,0 0.060752,0.013663 0.076757,0.04087 0.015987,0.027213 0.015109,0.05677 -0.00249,0.08877 L 5.2267343,3.4193137 4.884547,2.8108176 h 2.928e-4 c -0.015987,-0.0288 -0.016753,-0.056735 -0.00234,-0.083937 0.015987,-0.0288 0.041556,-0.043214 0.076757,-0.043214 h 0.014343 0.014513 v -0.024009 z"
       id="path5673" />
    <path
       style="font-size:0.846667px;font-family:'Cinzel Decorative';-inkscape-font-specification:'Cinzel Decorative, Normal';fill:#c3e33e;fill-opacity:1;stroke-width:0.0299999;stroke-linecap:round;paint-order:markers fill stroke"
       d="m 3.9272716,2.6596468 v 0.024009 h 0.021543 c 0.028794,0 0.048852,0.010403 0.060058,0.031201 0.012784,0.019191 0.010403,0.040002 -0.00717,0.062402 h 5.859e-4 l -0.5166504,0.6071777 0.038378,0.043214 c 0.025597,0.027213 0.058436,0.063159 0.098439,0.1079603 0.04,0.0432 0.082494,0.089705 0.1272954,0.1393059 0.0464,0.047999 0.089493,0.09436 0.1294923,0.1391612 0.04,0.0432 0.072093,0.07916 0.096094,0.1079603 l 0.038378,0.04087 c 0.0288,0.032 0.059114,0.057557 0.091114,0.076759 0.033599,0.017603 0.066438,0.031122 0.098439,0.040722 0.033599,0.00802 0.06406,0.013663 0.091259,0.016838 0.0288,0.0016 0.052724,0.00249 0.071923,0.00249 h 0.08877 V 4.075709 C 4.404019,4.0741216 4.363305,4.0653342 4.3329034,4.0493468 4.3025019,4.0333594 4.2736763,4.0092763 4.2464779,3.977276 L 3.6505626,3.3287861 4.1642831,2.7796164 h 5.859e-4 c 0.027213,-0.031995 0.061526,-0.055916 0.1031244,-0.071924 0.0432,-0.016016 0.089705,-0.024038 0.1393059,-0.024038 h 0.00952 v -0.024009 h -0.00952 z"
       id="path5671" />
    <path
       style="font-size:0.846667px;font-family:'Cinzel Decorative';-inkscape-font-specification:'Cinzel Decorative, Normal';fill:#c3e33e;fill-opacity:1;stroke-width:0.0299999;stroke-linecap:round;paint-order:markers fill stroke"
       d="m 3.0776623,2.6596468 v 0.024009 h 0.014343 0.014513 c 0.038401,0 0.071093,0.012784 0.098291,0.038378 0.027213,0.02401 0.041613,0.054459 0.043214,0.091259 v 1.1327635 c -0.0016,0.035198 -0.016016,0.065511 -0.043214,0.091114 -0.027213,0.025597 -0.05989,0.038526 -0.098291,0.038526 h -0.014513 -0.014343 v 0.024009 H 3.2528576 3.401685 3.5697029 v -0.024009 h -0.014513 -0.011877 c -0.04,0 -0.073729,-0.012784 -0.1009276,-0.038378 -0.027213,-0.025597 -0.040723,-0.056058 -0.040723,-0.091259 V 2.8097917 c 8.235e-4,-0.035263 0.014372,-0.064494 0.040723,-0.087744 0.027213,-0.025597 0.060038,-0.038378 0.098439,-0.038378 h 0.014343 0.014513 V 2.6596604 H 3.4016623 3.2528349 Z"
       id="path5669" />
    <path
       style="font-size:0.846667px;font-family:'Cinzel Decorative';-inkscape-font-specification:'Cinzel Decorative, Normal';fill:#c3e33e;fill-opacity:1;stroke-width:0.0299999;stroke-linecap:round;paint-order:markers fill stroke"
       d="m 2.1505627,2.6261129 c -0.1552904,0.00184 -0.2909767,0.032213 -0.4072263,0.091114 -0.1184003,0.0608 -0.2096334,0.1472768 -0.273634,0.2592765 -0.064001,0.1119997 -0.096094,0.246325 -0.096094,0.4031251 0,0.1551997 0.032094,0.2889272 0.096094,0.4009275 0.064001,0.1119997 0.1552337,0.1983316 0.273634,0.259132 0.119999,0.0608 0.2607136,0.092004 0.4223142,0.093603 0.094402,0 0.1839997,-0.012047 0.2687981,-0.036034 C 2.5192467,4.07166 2.5953233,4.035697 2.6625243,3.9892967 2.7297253,3.9428967 2.7841079,3.8876236 2.8257091,3.823623 L 2.8520713,3.494912 H 2.830528 C 2.822538,3.6261107 2.788057,3.7332461 2.7272562,3.8164453 2.6664562,3.8996453 2.5872588,3.961307 2.4896591,4.0013095 2.3936581,4.0397105 2.2856355,4.0588785 2.1656356,4.0588785 2.0392359,4.0572799 1.9297251,4.0293444 1.8369247,3.9749419 1.7441241,3.9189435 1.6720589,3.840489 1.6208596,3.739689 1.5712589,3.6372874 1.5464444,3.5172289 1.5464444,3.3796306 c 0,-0.1407997 0.024803,-0.2616038 0.074415,-0.3624023 0.051199,-0.1023988 0.1223744,-0.1807059 0.2135735,-0.2351084 0.092801,-0.055998 0.202456,-0.084081 0.3288574,-0.084081 0.148799,0 0.2759924,0.032094 0.3815917,0.096094 0.1071978,0.064001 0.1783729,0.1695004 0.2135736,0.316699 h 0.021685 L 2.7272715,2.7724385 C 2.65367,2.7260382 2.5664508,2.6900807 2.4656508,2.6644782 c -0.1008,-0.025597 -0.2008006,-0.038378 -0.2999999,-0.038378 -0.00505,0 -0.010091,-5.95e-5 -0.01508,0 z"
       id="path5663" />
    <path
       style="font-size:0.846667px;font-family:'Cinzel Decorative';-inkscape-font-specification:'Cinzel Decorative, Normal';fill:#c3e33e;fill-opacity:1;stroke-width:0.0299999;stroke-linecap:round;paint-order:markers fill stroke"
       d="m 0.31438141,2.6261129 c -0.10806235,0.00111 -0.20940376,0.019587 -0.30395506,0.055225 -0.09759967,0.035201 -0.18393163,0.086315 -0.25913194,0.1535159 -0.0736016,0.067201 -0.13125259,0.1472882 -0.17285101,0.2400888 -0.0415984,0.091199 -0.0624019,0.1926879 -0.0624019,0.3046876 0,0.1119997 0.0208063,0.2145231 0.0624019,0.307324 0.0415984,0.091199 0.0992494,0.1703962 0.17285101,0.2375972 0.0752003,0.067201 0.16152943,0.1192053 0.25913194,0.1560047 0.09759968,0.035201 0.2025014,0.052733 0.31450193,0.052733 0.11199967,0 0.21675399,-0.017546 0.31435537,-0.052733 0.0991984,-0.0368 0.18553037,-0.088807 0.25913194,-0.1560051 C 0.9736159,3.85735 1.0320124,3.7781529 1.0736109,3.6869538 c 0.041598,-0.092801 0.062402,-0.1953241 0.062402,-0.307324 0,-0.1119997 -0.020806,-0.2134885 -0.062402,-0.3046876 C 1.0320096,2.9821416 0.9736159,2.9020543 0.89841559,2.8348534 0.82481402,2.7676525 0.7384849,2.7165381 0.63928365,2.6813375 c -0.0975997,-0.036799 -0.202354,-0.055225 -0.31435537,-0.055225 -0.003487,0 -0.007058,-3.6e-5 -0.0105469,4e-7 z m 0.004989,0.071912 c 0.00182,-1.39e-5 0.003742,0 0.005556,0 0.11840031,0 0.22553289,0.028825 0.32153298,0.086425 0.0960009,0.0576 0.17207715,0.1376872 0.22807557,0.2400888 0.0559984,0.1008 0.0839367,0.2190784 0.0839367,0.3550782 0,0.134399 -0.0279496,0.2528249 -0.0839367,0.3552244 -0.0559984,0.1024016 -0.13207747,0.1824889 -0.22807557,0.2400889 -0.0960009,0.0576 -0.20313352,0.086278 -0.32153298,0.086278 -0.11679873,0 -0.22318864,-0.028678 -0.31918957,-0.086278 -0.09600094,-0.0576 -0.17207715,-0.1376873 -0.22807557,-0.2400889 -0.0559984,-0.1023987 -0.0839367,-0.2208245 -0.0839367,-0.3552244 0,-0.1360006 0.0279496,-0.2542791 0.0839367,-0.3550782 0.0559984,-0.1024016 0.13207747,-0.1824888 0.22807557,-0.2400888 0.09449857,-0.056699 0.19896659,-0.085541 0.31362318,-0.086425 z"
       id="path5661" />
    <path
       style="font-size:0.846667px;font-family:'Cinzel Decorative';-inkscape-font-specification:'Cinzel Decorative, Normal';fill:#c3e33e;fill-opacity:1;stroke-width:0.0299999;stroke-linecap:round;paint-order:markers fill stroke"
       d="m -2.0246809,2.419704 v 0.024009 h 0.031201 c 0.041598,0 0.076816,0.015165 0.105616,0.045556 0.030399,0.0288 0.046301,0.064015 0.0479,0.1056161 v 1.3319824 c -0.0016,0.041598 -0.01749,0.076816 -0.0479,0.105616 -0.030399,0.0288 -0.065613,0.043214 -0.105616,0.043214 h -0.031201 v 0.024009 h 0.5255857 l -0.00249,-0.024009 h -0.028712 c -0.0432,0 -0.080048,-0.015307 -0.1104492,-0.045703 -0.0288,-0.030399 -0.043214,-0.065469 -0.043214,-0.1054687 V 2.4941182 h 0.2976562 c 0.094402,0.0016 0.16721,0.037559 0.2184094,0.1079603 0.052801,0.070399 0.079101,0.1640098 0.079101,0.2808114 0,0.1407997 -0.047103,0.2415458 -0.1415027,0.3023436 -0.024009,0.017603 -0.053569,0.032006 -0.08877,0.043214 -0.035201,0.00961 -0.068927,0.016866 -0.1009276,0.021685 -0.030399,0.0032 -0.091916,0.00468 -0.1847168,0.00468 v 0.024038 c 0.030401,0.0032 0.073638,0.036037 0.1296396,0.098439 0.056001,0.062399 0.1695232,0.1888469 0.3407227,0.3792481 0.17119843,0.1887987 0.28635647,0.3176257 0.34555662,0.3864256 0.0608003,0.0688 0.12810897,0.1326955 0.2017077,0.1918942 0.0399997,0.035201 0.079971,0.064769 0.1199707,0.08877 0.0399997,0.024009 0.0823493,0.044816 0.12714801,0.062402 0.0464003,0.019191 0.0896372,0.031972 0.12963968,0.038378 0.0399997,0.00641 0.0856176,0.00967 0.13681699,0.00967 0.05280094,0 0.11283023,-0.00879 0.18002833,-0.026362 v -0.02401 c -0.01919055,0.0032 -0.03851433,0.00485 -0.05771338,0.00485 -0.09280062,0 -0.18641195,-0.02571 -0.28081131,-0.076904 C -0.27840587,4.3876326 -0.33189846,4.350048 -0.39269877,4.2988486 -0.45189751,4.2492509 -0.52069435,4.1853551 -0.59909497,4.1069545 -0.6774956,4.0285538 -0.85520519,3.8365775 -1.1320049,3.530978 -1.2008046,3.454179 -1.2623221,3.3868675 -1.3167217,3.3292703 h 0.00234 c 0.1135985,0 0.2095881,-0.046361 0.2879884,-0.1391613 0.0784006,-0.094399 0.11762644,-0.2064359 0.11762644,-0.336035 0,-0.1311987 -0.0432397,-0.2359559 -0.12963964,-0.3143554 -0.084798,-0.080042 -0.1975777,-0.1200132 -0.3383776,-0.1200132 z"
       id="path5653" />
    <path
       style="font-size:0.846667px;font-family:'Cinzel Decorative';-inkscape-font-specification:'Cinzel Decorative, Normal';fill:#c3e33e;fill-opacity:1;stroke-width:0.0299999;stroke-linecap:round;paint-order:markers fill stroke"
       d="m 17.139282,2.6596468 v 0.024009 h 0.01446 0.01928 c 0.04479,0 0.08237,0.012784 0.11279,0.038378 0.03101,0.023244 0.04776,0.052481 0.05026,0.087744 v 1.1362796 h -1.44e-4 c -0.0016,0.035198 -0.01843,0.065659 -0.0504,0.091259 -0.03039,0.025597 -0.06798,0.038378 -0.112791,0.038378 h -0.01672 -0.01673 v 0.024009 h 0.204038 0.144 0.196583 l -0.0023,-0.024009 h -0.01673 -0.01446 c -0.04482,0 -0.08328,-0.012784 -0.115286,-0.038378 -0.02945,-0.024803 -0.04533,-0.054227 -0.04776,-0.088036 V 2.8115501 c 0.002,-0.036028 0.01786,-0.065877 0.04791,-0.089501 0.032,-0.025597 0.07047,-0.038378 0.115285,-0.038378 h 0.01446 0.01672 l 0.0023,-0.024009 h -0.196725 -0.144 z"
       id="path5677" />
    <path
       style="font-size:0.846667px;font-family:'Cinzel Decorative';-inkscape-font-specification:'Cinzel Decorative, Normal';fill:#c3e33e;fill-opacity:1;stroke-width:0.0299999;stroke-linecap:round;paint-order:markers fill stroke"
       d="m 10.743335,2.6596468 v 0.024009 h 0.0167 0.01919 c 0.032,0 0.05845,0.010403 0.07925,0.031201 0.02239,0.019191 0.03444,0.043271 0.03603,0.072071 V 3.595668 c 0,0.1663994 0.05349,0.2976035 0.160693,0.3936036 0.1088,0.096001 0.255305,0.1439943 0.439307,0.1439943 0.185598,0 0.331216,-0.047993 0.436816,-0.1439943 0.107201,-0.0976 0.160694,-0.2295468 0.160694,-0.3959473 V 2.7869417 c 0.0016,-0.0288 0.01363,-0.052872 0.03603,-0.072071 0.02239,-0.020806 0.04885,-0.031201 0.07925,-0.031201 h 0.01684 0.01919 V 2.6596607 H 12.092006 11.98639 11.83053 v 0.024009 h 0.0167 0.01919 c 0.032,0 0.05919,0.010403 0.08159,0.031201 0.02168,0.018595 0.03301,0.041678 0.03369,0.069287 v 0.8091797 c 0,0.1472003 -0.04398,0.2631004 -0.131984,0.3479003 -0.0864,0.084798 -0.205716,0.1272954 -0.357715,0.1272954 -0.137599,0 -0.246368,-0.044872 -0.326367,-0.1344727 -0.07839,-0.089601 -0.117612,-0.2120369 -0.117612,-0.3672375 V 2.7869405 c 0,-0.0288 0.01128,-0.052872 0.03369,-0.072071 0.02401,-0.020806 0.05119,-0.031201 0.08159,-0.031201 h 0.01684 0.01919 V 2.6596593 H 11.048023 10.89934 Z"
       id="path5675" />
    <path
       style="font-size:0.846667px;font-family:'Cinzel Decorative';-inkscape-font-specification:'Cinzel Decorative, Normal';fill:#c3e33e;fill-opacity:1;stroke-width:0.0299999;stroke-linecap:round;paint-order:markers fill stroke"
       d="m 16.200609,2.6261129 c -0.0015,0.015987 -0.0071,0.037548 -0.01672,0.064746 -0.0096,0.027213 -0.02069,0.055281 -0.03353,0.084081 -0.01105,0.027213 -0.02154,0.05038 -0.03121,0.069579 l -0.01191,0.028712 -0.501709,1.0753418 c -0.02296,0.042035 -0.04918,0.073162 -0.07895,0.093458 -0.03521,0.022394 -0.06953,0.033693 -0.103125,0.033693 h -0.0096 -0.0096 v 0.02401 h 0.45835 v -0.02401 h -0.01928 c -0.0288,0 -0.05451,-0.012784 -0.0769,-0.038378 -0.02013,-0.024661 -0.0241,-0.057878 -0.01134,-0.099609 L 15.89241,3.6125413 h 0.606591 l 0.134476,0.327539 c 0.01162,0.040609 0.0077,0.073088 -0.01219,0.097265 -0.02239,0.025597 -0.04723,0.038378 -0.07441,0.038378 h -0.01928 v 0.024009 h 0.491893 v -0.024009 h -0.0096 -0.0096 c -0.032,0 -0.06556,-0.011282 -0.100771,-0.033693 -0.03521,-0.02401 -0.06491,-0.063079 -0.08892,-0.1174819 h -5.84e-4 L 16.222436,2.6261007 Z m -5.84e-4,0.2580945 0.269235,0.65625 h -0.546534 z"
       id="path5667" />
    <path
       style="font-size:0.846667px;font-family:'Cinzel Decorative';-inkscape-font-specification:'Cinzel Decorative, Normal';fill:#c3e33e;fill-opacity:1;stroke-width:0.0299999;stroke-linecap:round;paint-order:markers fill stroke"
       d="m 9.7320072,2.6261129 c -0.1080624,0.00111 -0.2094038,0.019587 -0.3039551,0.055225 -0.0976,0.035201 -0.1839316,0.086315 -0.2591319,0.1535159 -0.073602,0.067201 -0.1312526,0.1472882 -0.172851,0.2400888 -0.041599,0.091199 -0.062402,0.1926879 -0.062402,0.3046876 0,0.1119997 0.020806,0.2145231 0.062402,0.307324 0.041598,0.091199 0.099252,0.1703962 0.172851,0.2375972 0.0752,0.067201 0.1615294,0.1192053 0.2591319,0.1560047 0.0976,0.035201 0.202354,0.052733 0.3143557,0.052733 0.1119996,0 0.2169014,-0.017546 0.3145022,-0.052733 0.0992,-0.036799 0.18553,-0.088807 0.259132,-0.1560047 0.0752,-0.067201 0.133596,-0.1463981 0.175195,-0.2375972 0.0416,-0.092801 0.0624,-0.1953241 0.0624,-0.307324 0,-0.1119997 -0.02081,-0.2134885 -0.0624,-0.3046876 -0.0416,-0.092801 -0.09999,-0.1728879 -0.175195,-0.2400888 -0.0736,-0.067201 -0.159931,-0.1183153 -0.259132,-0.1535159 -0.0976,-0.036799 -0.2025017,-0.055225 -0.3145022,-0.055225 -0.00349,0 -0.00692,-3.6e-5 -0.010401,0 z m 0.00499,0.071912 c 0.00182,-1.39e-5 0.0036,0 0.00541,0 0.1184003,0 0.2256803,0.028825 0.3216798,0.086425 0.096,0.0576 0.17193,0.1376872 0.227928,0.2400888 0.056,0.1008 0.08408,0.2190784 0.08408,0.3550782 0,0.134399 -0.02809,0.2528249 -0.08408,0.3552244 -0.056,0.1024016 -0.13193,0.1824889 -0.227928,0.2400889 -0.096001,0.0576 -0.2032812,0.086278 -0.3216798,0.086278 -0.1168016,0 -0.2231886,-0.028678 -0.3191896,-0.086278 C 9.3272198,3.9173309 9.251291,3.8372436 9.1952897,3.734842 9.1392913,3.6324433 9.1112085,3.5140175 9.1112085,3.3796176 c 0,-0.1360006 0.028091,-0.2542791 0.084081,-0.3550782 0.055998,-0.1024016 0.1319301,-0.1824888 0.227931,-0.2400888 0.094499,-0.056699 0.199114,-0.085541 0.3137695,-0.086425 z"
       id="path5665" />
    <path
       style="font-size:0.846667px;font-family:'Cinzel Decorative';-inkscape-font-specification:'Cinzel Decorative, Normal';fill:#c3e33e;fill-opacity:1;stroke-width:0.0299999;stroke-linecap:round;paint-order:markers fill stroke"
       d="m 18.048951,2.6236227 0.0096,0.088917 c 0.0079,0.059201 0.0119,0.1294837 0.0119,0.2110847 v 1.0272948 c 0,0.035201 -0.01275,0.064769 -0.03838,0.08877 -0.02551,0.024009 -0.05681,0.036034 -0.0936,0.036034 h -0.02154 -0.01928 v 0.024009 h 0.180029 0.100771 0.172857 v -0.024009 h -0.02154 -0.01928 c -0.03521,0 -0.06642,-0.012047 -0.0936,-0.036034 -0.02551,-0.02401 -0.03852,-0.053569 -0.03852,-0.08877 h -2.94e-4 l -0.0018,-1.0023925 1.249512,1.1841798 5.87e-4,5.859e-4 h 1.47e-4 0.02126 l -0.0071,-0.043214 c -0.0031,-0.030402 -0.0065,-0.068737 -0.0096,-0.1151376 -0.0031,-0.047999 -0.0048,-0.097628 -0.0048,-0.1488274 V 2.8084736 h 1.47e-4 c 0,-0.035201 0.01276,-0.064769 0.03838,-0.08877 0.02721,-0.02401 0.05839,-0.036034 0.0936,-0.036034 h 0.01928 0.02154 v -0.024009 h -0.172998 -0.10063 -0.180029 v 0.024009 h 0.01928 0.02154 c 0.03679,0 0.068,0.012047 0.0936,0.036034 0.02466,0.023244 0.0383,0.051786 0.04056,0.085547 V 3.7995871 L 18.072827,2.6236105 Z"
       id="path5659" />
    <path
       style="font-size:0.846667px;font-family:'Cinzel Decorative';-inkscape-font-specification:'Cinzel Decorative, Normal';fill:#c3e33e;fill-opacity:1;stroke-width:0.0299999;stroke-linecap:round;paint-order:markers fill stroke"
       d="m 12.562524,2.6236227 0.0095,0.088917 c 0.008,0.059201 0.01202,0.1294837 0.01202,0.2110847 v 1.0272948 c 0,0.035201 -0.01278,0.064769 -0.03838,0.08877 -0.0256,0.024009 -0.0568,0.036034 -0.0936,0.036034 h -0.02168 -0.01919 v 0.024009 h 0.180028 0.100781 0.172851 v -0.024009 h -0.02169 -0.01919 c -0.0352,0 -0.0664,-0.012047 -0.0936,-0.036034 -0.0256,-0.02401 -0.03838,-0.053569 -0.03838,-0.08877 h -2.93e-4 l -0.0018,-1.0023925 1.249512,1.1841798 5.87e-4,5.859e-4 h 1.44e-4 0.02126 l -0.0071,-0.043214 c -0.0031,-0.030402 -0.0065,-0.068737 -0.0096,-0.1151376 -0.0031,-0.047999 -0.0048,-0.097628 -0.0048,-0.1488274 V 2.8084736 h 1.44e-4 c 0,-0.035201 0.01276,-0.064769 0.03838,-0.08877 0.02721,-0.02401 0.05839,-0.036034 0.0936,-0.036034 h 0.01928 0.02154 v -0.024009 h -0.172856 -0.10063 -0.180028 v 0.024009 h 0.01928 0.02154 c 0.03679,0 0.06786,0.012047 0.09346,0.036034 0.02466,0.023244 0.03844,0.051786 0.04073,0.085547 V 3.7995871 L 12.586402,2.6236105 Z"
       id="path5657" />
    <path
       style="font-size:0.846667px;font-family:'Cinzel Decorative';-inkscape-font-specification:'Cinzel Decorative, Normal';fill:#c3e33e;fill-opacity:1;stroke-width:0.0299999;stroke-linecap:round;paint-order:markers fill stroke"
       d="m 15.550512,2.6187755 c -0.01446,0.00479 -0.03682,0.010432 -0.06724,0.016838 -0.03042,0.00641 -0.06398,0.012047 -0.100772,0.016838 -0.033,0.003 -0.0646,0.00465 -0.09476,0.00485 h -0.792042 c -0.0303,-1.871e-4 -0.06276,-0.00184 -0.09726,-0.00485 -0.03679,-0.00479 -0.07038,-0.010431 -0.100772,-0.016838 -0.02883,-0.00641 -0.05037,-0.011906 -0.06474,-0.016696 v 0.062402 0.0479 0.1608406 h 0.02636 v -0.038378 c 0,-0.033599 0.01049,-0.061682 0.03121,-0.084081 0.02239,-0.024009 0.05199,-0.036779 0.08878,-0.038378 h 0.434472 v 1.2168456 c -0.0016,0.035198 -0.01587,0.065659 -0.04306,0.091258 -0.02721,0.025597 -0.06004,0.038378 -0.09845,0.038378 h -0.01446 -0.01446 v 0.02401 h 0.175351 0.151171 0.167868 v -0.02401 h -0.01446 -0.01191 c -0.03841,0 -0.07123,-0.012784 -0.09845,-0.038378 -0.02636,-0.024803 -0.04073,-0.054227 -0.04306,-0.088035 V 2.729222 h 0.434475 c 0.03679,0.0016 0.06548,0.014372 0.08629,0.038378 0.02239,0.022394 0.0337,0.050482 0.0337,0.084081 v 0.038378 h 0.02636 V 2.7245335 2.6813194 2.6189175 Z"
       id="path5655" />
    <path
       style="font-size:0.846667px;font-family:'Cinzel Decorative';-inkscape-font-specification:'Cinzel Decorative, Normal';fill:#c3e33e;fill-opacity:1;stroke-width:0.0299999;stroke-linecap:round;paint-order:markers fill stroke"
       d="m 6.5239998,2.1676048 c -0.027213,0 -0.062269,0.00564 -0.1054686,0.016838 v 0.024009 c 0.019219,-0.0016 0.037485,-0.00234 0.055077,-0.00234 0.1968009,0 0.3655972,0.1383421 0.5063963,0.4151367 L 6.8288331,3.931694 c -0.00799,0.0432 -0.028803,0.078415 -0.062402,0.1056161 -0.032,0.025597 -0.069593,0.038378 -0.1127934,0.038378 h -0.038378 v 0.02401 h 0.4656738 v -0.021685 h -0.038526 c -0.024009,0 -0.04629,-0.010403 -0.06709,-0.031201 -0.019191,-0.020806 -0.027213,-0.044725 -0.024009,-0.071924 L 7.0569098,2.7821066 7.6784429,4.1332784 h 0.02401 c 0.00961,-0.065599 0.036791,-0.1471748 0.081592,-0.2447745 L 8.2832769,2.760427 8.4296154,3.8284443 c 0.0288,0.2144013 0.1105229,0.3888425 0.2449219,0.5232424 0.065602,0.065599 0.1382627,0.1104718 0.218262,0.1344728 0.081601,0.024009 0.1496523,0.035889 0.204052,0.035889 0.055998,0 0.1063701,-0.00312 0.1511716,-0.00952 v -0.024038 h -0.028712 c -0.1551997,0 -0.2887806,-0.057651 -0.4007812,-0.172851 C 8.708131,4.2004516 8.6360664,4.0309111 8.6024665,3.8069112 L 8.3792242,2.3860128 H 8.3576809 L 7.7121344,3.8332785 7.1336677,2.5803975 C 7.1080709,2.5275965 7.0735959,2.4724712 7.0303959,2.4148712 c -0.025597,-0.032 -0.052792,-0.060826 -0.081592,-0.086425 -0.0288,-0.027213 -0.062382,-0.052758 -0.1007802,-0.076759 -0.038401,-0.025597 -0.079115,-0.044773 -0.1223149,-0.057569 -0.0432,-0.012813 -0.080793,-0.020069 -0.1127934,-0.021685 -0.032,-0.0032 -0.061716,-0.00485 -0.088917,-0.00485 z"
       id="path3193" />
    <path
       style="font-weight:bold;font-size:1.12889px;font-family:Cinzel;-inkscape-font-specification:'Cinzel, Bold';fill:#c3e33e;fill-opacity:1;stroke-width:0.0299999;stroke-linecap:round;paint-order:markers fill stroke"
       d="m 18.528037,4.8833001 v 0.03208 h 0.01928 0.01928 c 0.04907,0 0.09068,0.015902 0.124809,0.0479 0.03631,0.032 0.05564,0.072516 0.05771,0.1215836 v 1.5136228 c 0,0.046933 -0.01814,0.087449 -0.05434,0.1215808 -0.03416,0.034132 -0.07574,0.05127 -0.124809,0.05127 h -0.02239 -0.01927 v 0.031932 h 0.230428 0.451318 0.399903 c 0.228246,0 0.42459,-0.038336 0.588867,-0.1151377 0.164267,-0.076799 0.290179,-0.1866557 0.377637,-0.3295896 0.08745,-0.1429342 0.131102,-0.3146522 0.131102,-0.5151858 0,-0.2005313 -0.04365,-0.3722513 -0.131102,-0.5151855 C 20.488969,5.183105 20.363054,5.0732483 20.198809,4.9985812 20.034541,4.9217821 19.838208,4.883299 19.609942,4.883299 h -0.399903 -0.454686 z m 0.681883,0.1248038 h 0.06386 0.227197 0.07033 c 0.200523,0 0.358384,0.074642 0.473584,0.2239739 0.117326,0.1472003 0.176088,0.3510124 0.176088,0.6112791 0,0.2602686 -0.05873,0.4639337 -0.176088,0.6111329 -0.1152,0.1472003 -0.273061,0.2207508 -0.473584,0.2207508 h -0.07033 -0.217672 -0.07339 z"
       id="path5699" />
    <path
       style="font-weight:bold;font-size:1.12889px;font-family:Cinzel;-inkscape-font-specification:'Cinzel, Bold';fill:#c3e33e;fill-opacity:1;stroke-width:0.0299999;stroke-linecap:round;paint-order:markers fill stroke"
       d="m 16.803623,4.8833001 v 0.03208 h 0.01587 0.02239 c 0.04694,0 0.08745,0.015902 0.121578,0.0479 0.03626,0.032 0.05434,0.072516 0.05434,0.1215836 v 1.52124 c -10e-4,0.045079 -0.01814,0.084121 -0.05111,0.1171871 -0.03413,0.032 -0.07464,0.048047 -0.121578,0.048047 h -0.02239 -0.01928 v 0.031932 h 0.236722 0.438428 0.822362 0.0096 l 0.12481,-0.5887207 h -0.03192 c -0.02778,0.093869 -0.06718,0.175989 -0.118374,0.2463874 -0.05122,0.068267 -0.113216,0.1215609 -0.185755,0.1599619 -0.0682,0.035133 -0.146296,0.053249 -0.23451,0.054346 H 17.478578 V 5.0848596 h 1.45e-4 c 0.0021,-0.049068 0.02013,-0.089583 0.05434,-0.1215836 0.03416,-0.032 0.07481,-0.0479 0.121719,-0.0479 h 0.01587 0.02239 v -0.03208 h -0.214441 -0.451026 z"
       id="path5697" />
    <path
       style="font-weight:bold;font-size:1.12889px;font-family:Cinzel;-inkscape-font-specification:'Cinzel, Bold';fill:#c3e33e;fill-opacity:1;stroke-width:0.0299999;stroke-linecap:round;paint-order:markers fill stroke"
       d="m 15.696054,4.8833001 v 0.03208 h 0.01928 0.01928 c 0.05119,0 0.09499,0.015902 0.131244,0.0479 0.03625,0.032 0.05434,0.072516 0.05434,0.1215836 h 1.48e-4 v 1.5168455 c 0,0.046933 -0.01814,0.087449 -0.05434,0.1215808 -0.03626,0.032 -0.07897,0.048047 -0.128041,0.048047 h -0.02239 -0.01928 v 0.031932 h 0.233632 0.45117 0.223966 V 6.771337 h -0.02239 -0.01587 c -0.05119,0 -0.09499,-0.016044 -0.131244,-0.048047 -0.03419,-0.034132 -0.05227,-0.074648 -0.05434,-0.1215808 h -1.48e-4 V 5.0848596 h 1.48e-4 c 0.0021,-0.049068 0.02041,-0.089583 0.05448,-0.1215836 0.03626,-0.032 0.07991,-0.0479 0.131102,-0.0479 h 0.01928 0.01587 l 0.0031,-0.03208 H 16.381088 15.92977 Z"
       id="path5695" />
    <path
       style="font-weight:bold;font-size:1.12889px;font-family:Cinzel;-inkscape-font-specification:'Cinzel, Bold';fill:#c3e33e;fill-opacity:1;stroke-width:0.0299999;stroke-linecap:round;paint-order:markers fill stroke"
       d="m 13.417784,4.8833001 v 0.028857 h 0.02239 0.02239 c 0.04051,0 0.07449,0.012784 0.102246,0.038378 0.02778,0.025597 0.04275,0.058638 0.04482,0.09917 h 1.44e-4 v 1.0592285 c 0,0.2282655 0.07574,0.4085541 0.227197,0.5408203 0.15361,0.1301329 0.384058,0.1951172 0.69126,0.1951172 0.255997,0 0.453271,-0.066073 0.591942,-0.1983402 C 15.26097,6.5142635 15.33141,6.3339773 15.33141,6.1057106 V 5.0458945 c 8.4e-4,-0.038815 0.01474,-0.07056 0.04161,-0.09536 0.02985,-0.025597 0.06494,-0.038378 0.105477,-0.038378 h 0.01928 0.02239 v -0.028857 h -0.188816 -0.204775 -0.19542 v 0.028857 h 0.02239 0.02239 c 0.03841,0 0.07143,0.012784 0.09918,0.038378 0.02778,0.025597 0.04275,0.058637 0.04482,0.09917 h 1.47e-4 v 1.0751953 c -0.0021,0.1855984 -0.05015,0.330671 -0.144,0.4352051 -0.09173,0.1045332 -0.221839,0.1567389 -0.390381,0.1567389 -0.162142,0 -0.289129,-0.055327 -0.380858,-0.1662605 -0.0896,-0.1109338 -0.134333,-0.2645745 -0.134333,-0.4608399 V 5.0458945 c 8.41e-4,-0.038815 0.01474,-0.07056 0.04161,-0.09536 0.02778,-0.025597 0.06185,-0.038378 0.102387,-0.038378 h 0.02239 0.02239 v -0.028857 h -0.188816 -0.454393 z"
       id="path5693" />
    <path
       style="font-weight:bold;font-size:1.12889px;font-family:Cinzel;-inkscape-font-specification:'Cinzel, Bold';fill:#c3e33e;fill-opacity:1;stroke-width:0.0299999;stroke-linecap:round;paint-order:markers fill stroke"
       d="m 11.994394,4.5185521 c -0.255314,0.00151 -0.482678,0.050615 -0.682178,0.1472173 -0.202668,0.096001 -0.360517,0.2325033 -0.473584,0.4095703 -0.110934,0.1770661 -0.166405,0.3796435 -0.166405,0.6079102 0,0.3413333 0.122636,0.6208764 0.367969,0.8384765 0.245333,0.2176016 0.560092,0.3263672 0.944092,0.3263672 0.232534,0 0.448978,-0.041604 0.649511,-0.1248038 0.064,0.1855985 0.168557,0.3403284 0.313624,0.4640624 0.145077,0.1258668 0.321145,0.2047181 0.528077,0.2367184 0.05122,0.00853 0.103408,0.012898 0.156728,0.012898 h 1.47e-4 c 0.162142,0 0.33495,-0.036306 0.518406,-0.1088391 l -0.0065,-0.03208 c -0.07895,0.017065 -0.156699,0.025625 -0.23349,0.025625 -0.07466,0 -0.147288,-0.00856 -0.217672,-0.025625 C 13.430696,7.2320489 13.242929,7.0699894 13.129866,6.8097216 13.078616,6.688121 13.05197,6.5569194 13.049873,6.416118 V 5.9073691 c -0.0021,-0.044799 0.01077,-0.080014 0.03838,-0.105616 0.02778,-0.025597 0.0684,-0.038378 0.121719,-0.038378 h 0.04791 v -0.03208 h -0.899123 v 0.03208 h 0.05112 c 0.0512,0 0.09062,0.012784 0.118357,0.038378 0.02772,0.025597 0.0416,0.061758 0.0416,0.1086916 v 0.4864748 c -0.03413,0.096001 -0.100205,0.1728199 -0.198341,0.2304199 -0.096,0.0576 -0.210067,0.086425 -0.342334,0.086425 -0.245333,0 -0.445878,-0.095046 -0.601611,-0.2849122 -0.155786,-0.1898646 -0.233697,-0.4362259 -0.233697,-0.7391591 0,-0.3050668 0.079,-0.5536054 0.236866,-0.7456056 0.159999,-0.1941336 0.365845,-0.2912108 0.617578,-0.2912108 0.2048,0 0.37964,0.050173 0.524707,0.1504403 0.1472,0.098133 0.246458,0.2443011 0.297656,0.4384275 h 0.02563 l -0.0064,-0.5504881 c -0.09814,-0.049068 -0.22716,-0.089583 -0.38716,-0.1215837 -0.159999,-0.034132 -0.32533,-0.051123 -0.495996,-0.051123 -0.0041,0 -0.0082,-2.41e-5 -0.0123,1.7e-6 z"
       id="path5681" />
    <path
       style="font-weight:bold;font-size:1.12889px;font-family:Cinzel;-inkscape-font-specification:'Cinzel, Bold';fill:#c3e33e;fill-opacity:1;stroke-width:0.0299999;stroke-linecap:round;paint-order:markers fill stroke"
       d="m 2.5763284,4.8833001 v 0.03208 h 0.019191 0.019191 c 0.051202,0 0.094836,0.015902 0.1311052,0.0479 0.036266,0.032 0.054493,0.072516 0.054493,0.1215836 v 1.5168455 c 0,0.046933 -0.018227,0.087449 -0.054493,0.1215808 -0.036269,0.032 -0.078962,0.048047 -0.1280268,0.048047 h -0.022252 -0.01919 V 6.803269 H 2.8098422 3.261014 3.4849878 V 6.771337 h -0.022252 -0.016101 c -0.051199,0 -0.094836,-0.016044 -0.1311024,-0.048047 C 3.2813994,6.6891576 3.2631754,6.648642 3.2610381,6.6017088 V 5.0848596 h 1.463e-4 c 0.00213,-0.049068 0.020211,-0.089583 0.054346,-0.1215836 0.036266,-0.032 0.08005,-0.0479 0.1312497,-0.0479 h 0.019191 0.015959 l 0.00323,-0.03208 H 3.2609973 2.8098255 Z"
       id="path5691" />
    <path
       style="font-weight:bold;font-size:1.12889px;font-family:Cinzel;-inkscape-font-specification:'Cinzel, Bold';fill:#c3e33e;fill-opacity:1;stroke-width:0.0299999;stroke-linecap:round;paint-order:markers fill stroke"
       d="m -1.3885636,4.8833001 v 0.03208 h 0.015959 0.025625 c 0.044802,0 0.083137,0.015902 0.1151376,0.0479 0.027298,0.023868 0.044436,0.053932 0.05127,0.090088 V 6.6291 c -0.00683,0.035512 -0.023953,0.066875 -0.05127,0.09419 -0.032,0.032 -0.071425,0.048047 -0.1183578,0.048047 h -0.022422 -0.015959 v 0.031932 h 0.2304199 0.44165018 0.20800911 V 6.771337 h -0.022422 -0.0128976 c -0.0405326,0 -0.0799597,-0.014967 -0.11835778,-0.044824 -0.0362665,-0.029869 -0.0543458,-0.071473 -0.0543458,-0.1248038 V 5.0148399 c 0.0168661,0.00188 0.0403143,0.00292 0.0703134,0.00292 0.034132,-0.00214 0.0715266,-0.00214 0.11205921,0 0.0277228,0 0.0596806,0.0053 0.0959471,0.015959 0.0384009,0.00853 0.0757927,0.025512 0.11205921,0.051123 0.0362665,0.025597 0.0660359,0.061903 0.0895011,0.1088391 0.0255969,0.046933 0.0405524,0.109885 0.0448242,0.1888186 0.002135,0.029866 0.001048,0.056514 -0.003231,0.079979 -0.002135,0.023471 -0.005244,0.041553 -0.009524,0.054346 -0.0170646,0.0896 -0.0437131,0.1579975 -0.0799795,0.2049307 -0.0362665,0.044802 -0.076782,0.07566 -0.12158077,0.092724 -0.0426671,0.014939 -0.086451,0.022422 -0.13124975,0.022422 h -0.0575688 -0.022422 v 0.028857 c 0.0298687,0 0.0618151,0.015902 0.0959471,0.0479 0.0362665,0.029869 0.0683603,0.078951 0.0960945,0.1472173 0.006406,0.025597 0.0170079,0.057546 0.0319323,0.095947 0.0170646,0.038401 0.0362353,0.077973 0.0575688,0.1185052 l 0.0640148,0.1215808 c 0.0213449,0.038401 0.0415899,0.071436 0.0607918,0.09917 0.0511994,0.078934 0.10558487,0.1418853 0.16318487,0.1888185 0.05759999,0.044802 0.12585258,0.07566 0.20478612,0.092724 0.0810652,0.017065 0.17923463,0.025625 0.29443348,0.025625 h 0.26879809 v -0.031932 c -0.0448016,0 -0.0842258,-0.00641 -0.11836062,-0.01919 -0.0341348,-0.012813 -0.0671698,-0.034149 -0.0991701,-0.064015 -0.0320003,-0.032 -0.0693921,-0.076873 -0.1120592,-0.1344728 C 0.35431816,6.5024364 0.31910336,6.4533516 0.28496856,6.4064184 0.25296825,6.3573507 0.22632258,6.3148055 0.20498904,6.2785362 0.18364416,6.2401353 0.16760007,6.2123983 0.1569418,6.1953337 0.12707598,6.146266 0.08343945,6.0939158 0.02583945,6.0384502 -0.02962605,5.9829847 -0.08836841,5.9457375 -0.15023454,5.9265356 -0.04570133,5.909471 0.03859819,5.8742534 0.10259882,5.8209195 0.16873393,5.7675857 0.21672731,5.7046339 0.24659313,5.632101 c 0.0320003,-0.074667 0.0480472,-0.1493093 0.0480472,-0.2239739 0,-0.1002642 -0.0202677,-0.1834753 -0.0607918,-0.2496104 C 0.19544763,5.0902499 0.1430974,5.0369558 0.07696228,4.9985548 0.01083001,4.9580194 -0.06381188,4.9291939 -0.14701155,4.9121293 -0.23021123,4.8929388 -0.31654319,4.8832726 -0.4061435,4.8832726 H -0.71649351 -1.1581437 Z"
       id="path5689" />
    <path
       style="font-weight:bold;font-size:1.12889px;font-family:Cinzel;-inkscape-font-specification:'Cinzel, Bold';fill:#c3e33e;fill-opacity:1;stroke-width:0.0299999;stroke-linecap:round;paint-order:markers fill stroke"
       d="m 4.3454201,4.8416989 c -0.1026227,0.00116 -0.1942044,0.020381 -0.2748047,0.057569 -0.0832,0.038401 -0.1503638,0.093875 -0.2015631,0.1664079 -0.049076,0.072533 -0.07899,0.1601007 -0.089649,0.2624995 -0.012813,0.1087993 0.00434,0.2089984 0.05127,0.3007323 0.049068,0.091732 0.1269779,0.1652854 0.2336428,0.2207509 l 0.4543945,0.2879884 c 0.085334,0.044799 0.1461061,0.09076 0.1823726,0.1376957 0.038401,0.044802 0.057569,0.094827 0.057569,0.1502929 0,0.078934 -0.031002,0.1473307 -0.092872,0.2049307 -0.061866,0.0576 -0.1545874,0.086278 -0.2783196,0.086278 -0.1130655,0 -0.2112321,-0.023386 -0.2944335,-0.070313 -0.081067,-0.049065 -0.141839,-0.114197 -0.1823716,-0.195265 -0.040538,-0.081068 -0.057676,-0.169577 -0.05127,-0.2655751 h -0.025483 c -0.025597,0.040533 -0.04695,0.091794 -0.064015,0.1536605 -0.017065,0.059734 -0.026731,0.1205064 -0.028857,0.1823725 -0.00214,0.059735 0.00536,0.1108489 0.022422,0.153516 0.029869,0.032 0.072561,0.060826 0.1280267,0.086425 0.0576,0.025597 0.1258526,0.045862 0.2047861,0.060792 0.078934,0.014939 0.1643216,0.022422 0.2560536,0.022422 0.1493347,0 0.2783593,-0.022422 0.3871581,-0.067235 C 4.8504107,6.7307112 4.9367399,6.66355 4.9986088,6.5760813 5.062601,6.4886155 5.0978186,6.3851481 5.1042249,6.2656808 5.1106312,6.1504808 5.0892863,6.0523142 5.0402101,5.9712473 4.9911282,5.8901708 4.923967,5.8283075 4.8386328,5.7856404 L 4.3361916,5.4752405 c -0.040533,-0.023471 -0.07778,-0.046845 -0.1119146,-0.070313 -0.032,-0.023471 -0.057557,-0.050114 -0.076759,-0.07998 -0.017065,-0.032 -0.023613,-0.067215 -0.019332,-0.105616 0.00428,-0.074667 0.037448,-0.1344954 0.099317,-0.179297 0.063998,-0.044802 0.1472088,-0.06709 0.2496104,-0.06709 0.1280012,0 0.2260204,0.028678 0.2942872,0.086278 0.068267,0.0576 0.1023931,0.1355102 0.1023931,0.2336428 h 0.028857 l 0.041601,-0.3903808 c -5.539e-4,-2.073e-4 -0.00117,-3.785e-4 -0.00176,-5.86e-4 l 0.00176,-0.031348 H 4.7618788 c -0.022195,-0.0025 -0.045697,-0.00468 -0.070458,-0.00643 -0.059734,-0.00638 -0.1205065,-0.011707 -0.1823726,-0.015959 -0.059735,-0.00428 -0.1108488,-0.00643 -0.1535159,-0.00643 -0.00334,0 -0.0068,-3.74e-5 -0.01012,0 z"
       id="path5687" />
    <path
       style="font-weight:bold;font-size:1.12889px;font-family:Cinzel;-inkscape-font-specification:'Cinzel, Bold';fill:#c3e33e;fill-opacity:1;stroke-width:0.0299999;stroke-linecap:round;paint-order:markers fill stroke"
       d="m 0.55381881,4.8321745 v 0.07998 0.095947 0.3295899 h 0.0353027 v -0.028712 c 0,-0.091735 0.024463,-0.1643415 0.0735364,-0.2176753 0.0511994,-0.053331 0.12366424,-0.081068 0.21752785,-0.083202 H 1.248301 v 1.5936034 h -1.466e-4 c -0.00213,0.046933 -0.020211,0.087449 -0.054346,0.1215808 -0.032,0.032 -0.071425,0.048047 -0.1183606,0.048047 h -0.019191 -0.015959 v 0.031932 H 1.2546061 1.7122233 1.9234526 V 6.7713326 H 1.904262 1.888303 c -0.049068,0 -0.090672,-0.016044 -0.1248038,-0.048047 -0.034146,-0.034132 -0.051282,-0.074645 -0.051282,-0.1215808 V 5.0081016 h 0.3711912 c 0.091735,0.00213 0.1632529,0.029872 0.2144522,0.083203 0.053334,0.053334 0.078894,0.1257959 0.076759,0.2175278 v 0.028857 h 0.03208 V 4.9984338 4.9121546 4.8321739 c -0.012813,0.00638 -0.038506,0.013861 -0.076904,0.022422 -0.038401,0.00638 -0.080946,0.012784 -0.1278821,0.019191 -0.041068,0.00374 -0.079702,0.00584 -0.115869,0.00629 H 0.88252967 c -0.0364989,-2.503e-4 -0.0767027,-0.00244 -0.12070203,-0.00643 -0.0448016,-0.00638 -0.0864057,-0.01372 -0.12480377,-0.022252 -0.0362665,-0.00853 -0.0640035,-0.01491 -0.0832025,-0.019191 z"
       id="path5685" />
    <path
       style="font-weight:bold;font-size:1.12889px;font-family:Cinzel;-inkscape-font-specification:'Cinzel, Bold';fill:#c3e33e;fill-opacity:1;stroke-width:0.0299999;stroke-linecap:round;paint-order:markers fill stroke"
       d="M 6.217783,4.7968718 C 6.215643,4.8182168 6.20721,4.8481188 6.1923,4.8865208 6.177361,4.9227868 6.161317,4.9622138 6.144253,5.0048786 6.127188,5.0454116 6.111136,5.0828056 6.096206,5.1169378 6.081267,5.1489438 6.071771,5.1713798 6.067494,5.1841758 L 5.4125586,6.5920373 h -0.00103 C 5.3816626,6.6581693 5.3431796,6.7052218 5.2962464,6.732956 5.2493134,6.758553 5.2045884,6.771334 5.1619211,6.771334 H 5.1490231 5.1362671 V 6.803266 H 5.7762574 V 6.771334 h -0.025625 c -0.036269,0 -0.069304,-0.014967 -0.09917,-0.044824 C 5.6231494,6.696174 5.6188124,6.654317 5.6384284,6.6009721 L 5.7676368,6.3009727 h 0.6761718 l 0.1360828,0.3212402 c 0.011253,0.043313 0.00479,0.078117 -0.019616,0.104298 -0.029869,0.029866 -0.062904,0.044824 -0.09917,0.044824 h -0.025625 v 0.031932 h 0.940869 0.2110847 0.4289062 0.2271968 v -0.031932 h -0.025625 -0.025625 c -0.046933,0 -0.087449,-0.014967 -0.1215836,-0.044824 -0.034132,-0.032 -0.052211,-0.071425 -0.054346,-0.1183578 V 5.5515588 L 9.485156,6.8448692 h 0.028712 l -0.00952,-0.044824 c -0.00425,-0.032 -0.00969,-0.075637 -0.016101,-0.1311024 -0.00428,-0.0576 -0.00629,-0.1238202 -0.00629,-0.1984876 v -1.396289 c 0.00103,-0.044952 0.018057,-0.081955 0.051123,-0.1108885 0.036266,-0.032 0.07787,-0.0479 0.1248038,-0.0479 h 0.025625 0.028857 V 4.883297 H 9.4818942 9.0499118 8.8130466 v 0.03208 h 0.025625 0.028712 c 0.049068,0 0.089583,0.015902 0.1215808,0.0479 0.034132,0.029866 0.052356,0.068349 0.054493,0.1152822 V 6.1295861 L 7.5746677,4.8384728 H 7.545811 l 0.016101,0.102393 C 7.57257,5.0070008 7.577871,5.094566 7.577871,5.2033653 v 1.4047852 c 0,0.046933 -0.01715,0.08636 -0.05127,0.1183578 -0.034132,0.029866 -0.075736,0.044824 -0.1248038,0.044824 h -0.025483 -0.012898 -0.012756 c -0.042664,0 -0.08754,-0.012784 -0.1344727,-0.038378 C 7.1692539,6.7052315 7.1298268,6.6583181 7.0978265,6.592183 H 7.0977148 L 6.2434179,4.7968712 Z M 6.10836,5.5095215 6.3909288,6.1761718 H 5.8212499 Z"
       id="path5683" />
    <path
       style="font-weight:bold;font-size:1.12889px;font-family:Cinzel;-inkscape-font-specification:'Cinzel, Bold';display:none;fill:#c3e33e;fill-opacity:1;stroke-width:0.0299999;stroke-linecap:round;paint-order:markers fill stroke"
       d="m -2.7101455,4.4993616 c 0,0.023471 -0.00748,0.056503 -0.022422,0.09917 -0.014939,0.040533 -0.032068,0.083228 -0.05127,0.1280268 -0.017065,0.044802 -0.034058,0.085317 -0.051123,0.1215808 -0.014938,0.03414 -0.025682,0.057518 -0.03208,0.070313 l -0.7473631,1.6913083 c -0.030492,0.052033 -0.067221,0.090986 -0.1101571,0.1167477 -0.051202,0.029866 -0.1013726,0.044824 -0.1504403,0.044824 h -0.012756 -0.015959 v 0.031932 h 0.6846837 v -0.031932 h -0.028712 c -0.025597,0 -0.051157,-0.00748 -0.076759,-0.022422 -0.025597,-0.017065 -0.043835,-0.040592 -0.054493,-0.070458 -0.00955,-0.026787 -0.00791,-0.058705 0.00485,-0.0958 l 0.169336,-0.4064942 h 0.7511717 l 0.1571783,0.3936036 h -8.788e-4 c 0.025597,0.064001 0.022479,0.1140265 -0.00952,0.1502929 -0.032,0.034132 -0.069395,0.05127 -0.1120592,0.05127 h -0.028857 v 0.031934 h 1.0176278 v -0.031932 h -0.012756 -0.012898 c -0.049068,0 -0.099094,-0.014967 -0.1502929,-0.044824 -0.046545,-0.029089 -0.086941,-0.074965 -0.1211414,-0.1375483 L -2.6812883,4.4993616 Z m -0.1110359,0.7564478 0.313916,0.7858885 h -0.6414545 z"
       id="path3220" />
  </g>
  <g
     inkscape:groupmode="layer"
     id="layer4"
     inkscape:label="Layer 3"
     transform="translate(4.3981056,-1.6022772)">
    <path
       style="font-weight:bold;font-size:1.12889px;font-family:Cinzel;-inkscape-font-specification:'Cinzel, Bold';fill:#f3215a;fill-opacity:1;stroke-width:0.0299999;stroke-linecap:round;paint-order:markers fill stroke"
       d="m -2.7101455,4.4993616 c 0,0.023471 -0.00748,0.056503 -0.022422,0.09917 -0.014939,0.040533 -0.032068,0.083228 -0.05127,0.1280268 -0.017065,0.044802 -0.034058,0.085317 -0.051123,0.1215808 -0.014938,0.03414 -0.025682,0.057518 -0.03208,0.070313 l -0.7473631,1.6913083 c -0.030492,0.052033 -0.067221,0.090986 -0.1101571,0.1167477 -0.051202,0.029866 -0.1013726,0.044824 -0.1504403,0.044824 h -0.012756 -0.015959 v 0.031932 h 0.6846837 v -0.031932 h -0.028712 c -0.025597,0 -0.051157,-0.00748 -0.076759,-0.022422 -0.025597,-0.017065 -0.043835,-0.040592 -0.054493,-0.070458 -0.00955,-0.026787 -0.00791,-0.058705 0.00485,-0.0958 l 0.621045,-1.4917031 0.589693,1.4788085 h -8.788e-4 c 0.025597,0.064001 0.022479,0.1140265 -0.00952,0.1502929 -0.032,0.034132 -0.069395,0.05127 -0.1120592,0.05127 h -0.028857 v 0.031932 l 0.8845758,-2e-6 v -0.031932 h -0.012756 -0.012898 c -0.049068,0 -0.099094,-0.014967 -0.1502929,-0.044824 -0.046545,-0.029089 -0.086941,-0.074965 -0.1211414,-0.1375483 L -2.6812883,4.4993616 Z"
       id="path3220-2"
       sodipodi:nodetypes="cccccccscccccscccccccscccccscccc" />
    <path
       style="fill:#f3215a;fill-opacity:1;stroke-width:0.0299999;stroke-linecap:round;paint-order:markers fill stroke"
       d="m -3.1964497,6.1228847 0.2909058,-0.1328202 0.1511178,0.068117 0.1524416,-0.069599 0.2979416,0.1343027 -0.068641,-0.1723861 -0.2245295,-0.1012082 -0.1558913,0.071175 -0.1511149,-0.068116 -0.2220066,0.101364 z"
       id="path15895" />
  </g>
  <g
     inkscape:groupmode="layer"
     id="layer5"
     inkscape:label="Layer 4"
     inkscape:highlight-color="#ffffff"
     transform="translate(8.2844443,2.1063886)">
    <path
       id="path5673-7"
       style="font-size:0.846667px;font-family:'Cinzel Decorative';-inkscape-font-specification:'Cinzel Decorative, Normal';fill:#ffffff;fill-opacity:1;stroke-width:0.0299999;stroke-linecap:round;paint-order:markers fill stroke"
       d="m 2.6324493,-1.5410081 c -0.026419,6.608e-4 -0.059695,0.00635 -0.1001962,0.016846 v 0.023876 c 0.019219,-0.0016 0.037485,-0.00234 0.055077,-0.00234 0.1968009,0 0.3655972,0.1383423 0.5063963,0.4151367 L 2.942555,0.22295657 c -0.00799,0.0432 -0.028803,0.0784139 -0.062402,0.10561521 -0.032,0.0255969 -0.069593,0.0383788 -0.1127934,0.0383788 h -0.038378 v 0.0240236 H 3.194655 V 0.36929478 H 3.156129 c -0.02401,0 -0.04629,-0.0104031 -0.06709,-0.0312012 -0.019191,-0.0208063 -0.027213,-0.0447253 -0.02401,-0.0719237 l 0.1056161,-1.19267572 0.6215331,1.35117181 h 0.023868 c 0.00961,-0.0655994 0.036791,-0.14717593 0.081593,-0.24477533 l 0.499361,-1.12807647 0.146338,1.06801753 c 0.0288,0.21440097 0.1105229,0.3888424 0.2449219,0.52324216 0.065602,0.0655994 0.1382627,0.11047181 0.218262,0.13447275 0.081601,0.0240094 0.1496523,0.0358886 0.204052,0.0358886 0.055998,0 0.10637,-0.003115 0.1511716,-0.009522 v -0.0240236 h -0.028712 c -0.1551997,0 -0.2887809,-0.0576516 -0.4007812,-0.17285159 C 4.8218552,0.49185471 4.7497891,0.3222982 4.7161892,0.09829849 L 4.4929473,-1.3225999 H 4.471404 L 3.8258574,0.12466569 3.2473908,-1.1282151 c -0.025597,-0.052801 -0.060072,-0.1079275 -0.1032718,-0.1655275 -0.025597,-0.032 -0.052792,-0.060826 -0.081592,-0.086426 -0.0288,-0.027213 -0.062382,-0.052757 -0.1007801,-0.076758 -0.038401,-0.025597 -0.079115,-0.044773 -0.1223149,-0.057568 -0.0432,-0.012813 -0.080793,-0.020064 -0.1127934,-0.021679 -0.032,-0.0032 -0.061716,-0.00483 -0.088917,-0.00483 -0.0017,0 -0.00351,-4.4e-5 -0.00527,-1.1e-6 z m -8.5434072,0.2520995 v 0.024024 h 0.031201 c 0.041598,0 0.076815,0.015165 0.1056152,0.045557 0.030399,0.0288 0.046302,0.064014 0.0479,0.1056152 v 1.33198234 c -0.0016,0.0415984 -0.01749,0.0768152 -0.0479,0.10561521 -0.030399,0.0288 -0.065613,0.0432128 -0.1056152,0.0432128 h -0.031201 v 0.0238762 h 0.5255858 l -0.00249,-0.0238762 h -0.028709 c -0.0432,0 -0.080048,-0.0153071 -0.1104494,-0.045703 -0.0288,-0.0303987 -0.043213,-0.0654693 -0.043213,-0.10546866 V -1.2144944 h 0.2976551 c 0.094402,0.0016 0.16721,0.037558 0.2184094,0.1079589 0.052801,0.070398 0.079101,0.16400919 0.079101,0.28081048 0,0.14079968 -0.047103,0.2415461 -0.1415027,0.30234375 -0.024009,0.0176032 -0.053569,0.0320049 -0.08877,0.0432128 -0.035201,0.009609 -0.068927,0.0168605 -0.1009276,0.0216794 -0.030399,0.003203 -0.091916,0.004689 -0.1847168,0.004689 v 0.0240236 c 0.030402,0.003203 0.073638,0.0360357 0.1296388,0.0984376 0.056001,0.0623991 0.1695231,0.1888472 0.3407227,0.37924803 0.1711984,0.18879845 0.2863564,0.31762586 0.3455566,0.38642577 0.0608,0.0687997 0.1281089,0.13269571 0.2017077,0.19189445 0.04,0.0352006 0.079971,0.0647685 0.1199707,0.0887695 0.04,0.0240094 0.082349,0.0448163 0.127148,0.0624025 0.0464,0.0191906 0.089637,0.0319725 0.1296397,0.0383788 0.04,0.006406 0.085618,0.009669 0.136817,0.009669 0.052801,0 0.1128302,-0.008793 0.1800283,-0.0263679 v -0.0240236 c -0.019191,0.003203 -0.038514,0.004833 -0.057716,0.004833 -0.092801,0 -0.186412,-0.0257102 -0.2808113,-0.0769042 -0.0464,-0.0240094 -0.099893,-0.0615937 -0.1606932,-0.11279281 -0.059199,-0.0495978 -0.1279956,-0.11349411 -0.2063962,-0.19189445 -0.078401,-0.0784006 -0.2561103,-0.27037729 -0.53291,-0.57597652 -0.0688,-0.0767991 -0.1303171,-0.14411196 -0.1847168,-0.20170884 h 0.00234 c 0.1135984,0 0.209588,-0.0463595 0.2879883,-0.13916013 0.078401,-0.0943994 0.1176265,-0.20643618 0.1176265,-0.33603513 0,-0.13119874 -0.04324,-0.2359559 -0.1296397,-0.3143555 -0.084798,-0.080042 -0.1975805,-0.1199707 -0.3383787,-0.1199707 z m 17.5751929,0.1990724 c -0.01446,0.00479 -0.03682,0.01044 -0.06724,0.016846 -0.03042,0.00641 -0.06399,0.012056 -0.100781,0.016846 -0.03299,0.003 -0.06461,0.00463 -0.09478,0.00483 h -0.79204 c -0.0303,-1.871e-4 -0.06277,-0.00183 -0.09727,-0.00483 -0.03679,-0.00479 -0.07039,-0.01044 -0.10078,-0.016846 -0.02883,-0.00641 -0.05037,-0.011908 -0.06475,-0.016699 v 0.062402 0.0479004 0.16083977 h 0.02636 v -0.0383788 c 0,-0.0335991 0.01049,-0.0616827 0.0312,-0.0840821 0.02239,-0.0240094 0.05198,-0.0367801 0.08877,-0.0383788 H 10.9274 v 1.21684564 c -0.0016,0.0351978 -0.01587,0.06566 -0.04307,0.0912597 -0.02721,0.0255969 -0.06003,0.0383788 -0.09844,0.0383788 h -0.01451 -0.01434 v 0.0240236 h 0.175343 0.151171 0.167871 v -0.0240236 h -0.01451 -0.01188 c -0.03841,0 -0.07123,-0.0127842 -0.09844,-0.0383788 -0.02636,-0.0248031 -0.04074,-0.0542282 -0.04307,-0.088037 v -1.22006936 h 0.434472 c 0.03679,0.001601 0.06547,0.0143716 0.08628,0.0383788 0.02239,0.0223937 0.03369,0.0504831 0.03369,0.0840821 v 0.0383788 h 0.02636 v -0.16552742 -0.0432128 -0.062402 z m -2.9879875,0.00483 0.00952,0.0889161 c 0.00799,0.0592016 0.012019,0.12948321 0.012019,0.21108387 V 0.2422916 c 0,0.0352006 -0.012784,0.0647685 -0.038378,0.0887695 -0.025597,0.0240094 -0.056803,0.0360352 -0.093603,0.0360352 h -0.021685 -0.01919 v 0.0240236 h 0.1800283 0.1007801 0.172851 V 0.3670963 h -0.021685 -0.019191 c -0.035201,0 -0.066404,-0.0120472 -0.093603,-0.0360352 C 8.8185184,0.30705163 8.805737,0.27749223 8.805737,0.2422916 h -2.929e-4 l -0.00176,-1.00239251 1.2495119,1.18417964 5.86e-4,5.8592e-4 h 1.46e-4 0.02123 l -0.0072,-0.043213 c -0.0031,-0.0304016 -0.0064,-0.0687365 -0.0095,-0.11513678 -0.0031,-0.0479991 -0.0048,-0.0976289 -0.0048,-0.14882825 v -1.01762553 h 1.47e-4 c 0,-0.0352006 0.01276,-0.0647685 0.03838,-0.0887695 0.02721,-0.0240095 0.0584,-0.0360352 0.0936,-0.0360352 h 0.01919 0.02154 v -0.024024 H 10.053629 9.9529931 9.7729647 v 0.024024 h 0.019332 0.021543 c 0.036794,0 0.067861,0.012047 0.093458,0.0360352 0.024661,0.0232441 0.038426,0.0517864 0.040722,0.0855468 V 0.09097428 L 8.7001243,-1.0850022 Z m 5.4864255,0 0.0095,0.0889161 c 0.0079,0.0592016 0.01202,0.12948321 0.01202,0.21108387 V 0.2422916 c 0,0.0352006 -0.01276,0.0647685 -0.03838,0.0887695 -0.02551,0.0240094 -0.05681,0.0360352 -0.0936,0.0360352 h -0.02154 -0.01933 v 0.0240236 h 0.180028 0.100781 0.172851 V 0.3670963 h -0.02154 -0.01933 c -0.03521,0 -0.06642,-0.0120472 -0.0936,-0.0360352 -0.02551,-0.0240094 -0.03852,-0.0535689 -0.03852,-0.0887695 h -2.93e-4 l -0.0018,-1.00239251 1.249511,1.18417964 5.86e-4,5.8592e-4 h 1.47e-4 0.02123 l -0.007,-0.043213 c -0.0031,-0.0304016 -0.0065,-0.0687365 -0.0097,-0.11513678 -0.0031,-0.0479991 -0.0048,-0.0976289 -0.0048,-0.14882825 v -1.01762553 h 1.47e-4 c 0,-0.0352006 0.01275,-0.0647685 0.03838,-0.0887695 0.02721,-0.0240095 0.0584,-0.0360352 0.0936,-0.0360352 h 0.01933 0.02154 v -0.024024 h -0.172998 -0.100636 -0.180028 v 0.024024 h 0.01933 0.02154 c 0.03679,0 0.06801,0.012047 0.0936,0.0360352 0.02466,0.0232441 0.03831,0.0517864 0.04058,0.0855468 V 0.09097428 L 14.18655,-1.0850022 Z m -15.8947252,0.00234 c -0.00125,2.8e-6 -0.00241,1.316e-4 -0.00366,1.465e-4 -0.1552904,0.00184 -0.2909769,0.032212 -0.4072263,0.0911131 -0.1184003,0.0608003 -0.2096334,0.1472777 -0.273634,0.25927738 -0.064001,0.11199969 -0.096094,0.24632504 -0.096094,0.40312499 0,0.15519968 0.032094,0.28892757 0.096094,0.40092771 0.064001,0.11199968 0.1552337,0.19833051 0.273634,0.25913083 0.1199991,0.0608003 0.2607137,0.0920047 0.4223143,0.0936034 0.094402,0 0.1839996,-0.0120472 0.2687981,-0.0360351 0.084798,-0.0255969 0.1608746,-0.0615586 0.2280755,-0.1079589 0.067201,-0.0464003 0.1215836,-0.10167335 0.1631849,-0.16567369 l 0.026362,-0.32871095 h -0.021685 c -0.00799,0.13119874 -0.042471,0.23833417 -0.1032718,0.3215332 -0.0608,0.0831997 -0.1399975,0.14486088 -0.2375972,0.1848634 -0.096001,0.0384009 -0.2040236,0.0575683 -0.3240235,0.0575683 -0.1263997,-0.001598 -0.2359105,-0.029533 -0.3287109,-0.0839356 -0.092801,-0.0559984 -0.1648658,-0.13445405 -0.2160651,-0.23525376 -0.049601,-0.10240157 -0.074415,-0.22246043 -0.074415,-0.36005858 0,-0.1407994 0.024803,-0.26160378 0.074415,-0.36240233 0.051199,-0.10239874 0.1223744,-0.18070497 0.2135735,-0.23510749 0.092801,-0.0559984 0.202456,-0.0840821 0.3288574,-0.0840821 0.148799,0 0.2759924,0.0320933 0.3815918,0.0960936 0.1071977,0.0640006 0.1783728,0.16950075 0.2135735,0.31669919 h 0.021685 l -0.052733,-0.33837779 c -0.073602,-0.0464003 -0.1608208,-0.0823564 -0.2616208,-0.10795891 -0.1007999,-0.025597 -0.2008006,-0.038379 -0.2999998,-0.038379 -0.0038,0 -0.00765,-1.549e-4 -0.011426,-1.476e-4 z m -1.8398433,1.465e-4 c -0.1080624,0.00111 -0.2094038,0.019587 -0.3039551,0.055225 -0.0976,0.0352007 -0.1839316,0.0863147 -0.2591319,0.15351565 -0.073602,0.067201 -0.1312526,0.14728734 -0.172851,0.24008797 -0.041599,0.091199 -0.062402,0.19268787 -0.062402,0.30468746 0,0.11199969 0.020806,0.21452343 0.062402,0.30732423 0.041598,0.09119905 0.099249,0.17039678 0.172851,0.23759773 0.0752,0.0672009 0.1615294,0.11920648 0.2591319,0.15600585 0.0976,0.0352006 0.2025014,0.0527343 0.3145019,0.0527343 0.1119997,0 0.216754,-0.0175493 0.3143554,-0.0527343 0.099198,-0.0367994 0.1855304,-0.0888078 0.259132,-0.15600585 0.0752,-0.067201 0.1335968,-0.14639868 0.1751952,-0.23759773 0.041598,-0.09280063 0.062402,-0.19532437 0.062402,-0.30732423 0,-0.11199968 -0.020806,-0.21348849 -0.062402,-0.30468746 -0.041601,-0.0928006 -0.099995,-0.17288702 -0.1751952,-0.24008797 -0.073602,-0.0672009 -0.1599307,-0.11831498 -0.259132,-0.15351565 -0.0976,-0.036799 -0.202354,-0.055225 -0.3143554,-0.055225 -0.00349,0 -0.00706,-3.6e-5 -0.010547,0 z m 9.4176257,0 c -0.1080623,0.00111 -0.2094037,0.019587 -0.303955,0.055225 -0.0976,0.0352007 -0.1839317,0.0863147 -0.259132,0.15351565 -0.073601,0.067201 -0.1312526,0.14728734 -0.172851,0.24008797 -0.041598,0.091199 -0.062402,0.19268787 -0.062402,0.30468746 0,0.11199969 0.020806,0.21452343 0.062402,0.30732423 0.041598,0.09119905 0.099252,0.17039678 0.172851,0.23759773 0.0752,0.0672009 0.1615295,0.11920648 0.259132,0.15600585 0.0976,0.0352006 0.202354,0.0527343 0.3143553,0.0527343 0.1119997,0 0.2169014,-0.0175493 0.314502,-0.0527343 0.099198,-0.0367994 0.1855303,-0.0888078 0.2591319,-0.15600585 0.0752,-0.067201 0.1335968,-0.14639868 0.1751953,-0.23759773 0.041598,-0.09280063 0.062402,-0.19532437 0.062402,-0.30732423 0,-0.11199968 -0.020806,-0.21348849 -0.062402,-0.30468746 -0.041601,-0.0928006 -0.099995,-0.17288702 -0.1751953,-0.24008797 -0.073602,-0.0672009 -0.1599307,-0.11831498 -0.2591319,-0.15351565 -0.0976,-0.036799 -0.2025014,-0.055225 -0.314502,-0.055225 -0.00349,0 -0.00692,-3.6e-5 -0.0104,0 z m 6.4686028,0 c -0.0015,0.015987 -0.0072,0.037548 -0.01684,0.064746 -0.0096,0.0272126 -0.02069,0.0552821 -0.03355,0.0840821 -0.01105,0.0272126 -0.02154,0.050381 -0.0312,0.0695801 l -0.01188,0.028711 -0.501709,1.07534175 c -0.02296,0.042035 -0.04919,0.0731611 -0.07896,0.0934571 -0.03521,0.0223937 -0.06953,0.0336915 -0.103125,0.0336915 h -0.0097 -0.0095 v 0.0240236 h 0.458349 v -0.0240236 h -0.01933 c -0.0288,0 -0.05451,-0.0127842 -0.0769,-0.0383788 -0.02013,-0.0246614 -0.02404,-0.0578778 -0.01128,-0.0996095 l 0.137401,-0.3251953 h 0.606592 l 0.134472,0.32753904 c 0.01162,0.0406091 0.0075,0.0730891 -0.0123,0.0972655 -0.02239,0.0255969 -0.04723,0.0383788 -0.07442,0.0383788 h -0.01919 v 0.0240236 h 0.491895 v -0.0240236 h -0.0097 -0.0097 c -0.032,0 -0.06557,-0.0112819 -0.10078,-0.0336915 -0.03521,-0.0240094 -0.06491,-0.0630779 -0.08892,-0.11748047 h -5.84e-4 L 12.336159,-1.082512 Z m -13.12294759,0.033545 v 0.024024 h 0.0142016 0.0146551 c 0.0384009,0 0.0710929,0.012784 0.0982913,0.0383788 0.0272126,0.0240094 0.0416126,0.0544603 0.0432142,0.0912597 v 1.13276362 c -0.001601,0.0351978 -0.0160157,0.0655106 -0.0432142,0.0911132 -0.0272126,0.0255969 -0.0598904,0.0385254 -0.0982913,0.0385254 h -0.0146551 -0.0142016 v 0.0238762 h 0.17519525 0.14882739 0.16801794 v -0.0238762 h -0.0146551 -0.0118772 c -0.0399997,0 -0.0737291,-0.0127842 -0.10092755,-0.0383788 -0.0272126,-0.0255969 -0.0407225,-0.0560591 -0.0407225,-0.0912597 v -1.13627835 c 8.2347e-4,-0.035263 0.0143717,-0.0644944 0.0407225,-0.0877442 0.0272126,-0.0255968 0.0600378,-0.0383788 0.0984387,-0.0383788 h 0.0143433 0.0145134 v -0.024024 h -0.16799923 -0.14882824 z m 0.84960927,0 v 0.024024 h 0.0215433 c 0.02879433,0 0.04885228,0.010403 0.06005764,0.0312012 0.0127843,0.0191906 0.0104031,0.0400031 -0.007172,0.0624025 h 5.8592e-4 l -0.5166504,0.60717771 0.0383783,0.0432128 c 0.0255969,0.0272126 0.0584362,0.0631573 0.0984387,0.10795889 0.0399997,0.0432 0.0824938,0.08970605 0.12729542,0.13930668 0.04640031,0.04799905 0.08949259,0.09435854 0.12949227,0.13916012 0.03999969,0.0432 0.07209354,0.0791589 0.09609448,0.10795889 l 0.03837827,0.0408691 c 0.0288,0.0320003 0.0591137,0.0575561 0.091114,0.0767577 0.0335991,0.0176032 0.0664384,0.0311216 0.0984387,0.0407228 0.033599,0.008022 0.0640601,0.0136715 0.0912586,0.0168463 0.0288,0.0016 0.0527244,0.00249 0.0719235,0.00249 h 0.0887697 V 0.3670968 C 0.51774168,0.3655098 0.47702768,0.3567163 0.44662613,0.3407289 0.41622453,0.3247415 0.38739903,0.3006589 0.36020063,0.2686586 l -0.59591531,-0.64848511 0.51372051,-0.5491699 h 5.8593e-4 c 0.0272126,-0.0319946 0.061526,-0.0559165 0.1031244,-0.0719237 0.0432,-0.016016 0.0897052,-0.024024 0.13930581,-0.024024 h 0.009524 v -0.024024 h -0.009524 z m 0.50405268,0 v 0.024024 h 0.0287093 c 0.0464003,0 0.0880044,0.01114 0.12480377,0.0335449 0.0384009,0.0208063 0.070492,0.0496264 0.0960945,0.0864258 h 8.7902e-4 l 0.44311515,0.697998 v 0.44443357 c -0.0016,0.0351978 -0.016016,0.06566 -0.043214,0.0912597 -0.025597,0.0255969 -0.057694,0.0383788 -0.096094,0.0383788 h -0.014343 -0.014343 v 0.0238762 H 1.2458491 1.3946765 1.562547 V 0.36709007 H 1.548204 1.533861 c -0.038401,0 -0.071238,-0.0127842 -0.098439,-0.0383788 C 1.409825,0.30311437 1.396298,0.27265217 1.394699,0.23745157 v -0.44077069 l 0.4595213,-0.69902341 0.00366,-1.465e-4 c 0.022394,-0.0320003 0.052713,-0.060084 0.091114,-0.0840821 0.04,-0.0255969 0.082494,-0.0383789 0.1272954,-0.0383789 h 0.028712 V -1.048974 H 1.6033968 v 0.023876 h 0.014202 0.014655 c 0.035192,0 0.060755,0.013663 0.076759,0.0408691 0.015987,0.0272126 0.015109,0.0567692 -0.00249,0.0887695 L 1.3404574,-0.28929912 0.99826974,-0.8977952 h 2.931e-4 c -0.0159874,-0.0288 -0.0167527,-0.0567343 -0.002344,-0.0839356 0.0159874,-0.0288 0.0415559,-0.043213 0.0767565,-0.043213 h 0.014202 0.014655 v -0.024024 z m 6.31201094,0 v 0.024024 h 0.016696 0.019191 c 0.032,0 0.058447,0.010403 0.079248,0.0312012 0.022394,0.0191906 0.034435,0.0432703 0.036034,0.0720703 v 0.80874021 c 0,0.16639908 0.053493,0.29760349 0.1606932,0.39360349 0.1087994,0.096001 0.2553052,0.14399405 0.4393065,0.14399405 0.1855984,0 0.3312167,-0.0479934 0.4368163,-0.14399405 C 8.152244,0.1830648 8.2057366,0.05111745 8.2057366,-0.11528273 v -0.80639576 c 0.0016,-0.0288 0.013635,-0.0528712 0.036034,-0.0720703 0.022394,-0.0208063 0.048847,-0.0312012 0.079248,-0.0312012 h 0.016696 0.019332 V -1.048974 H 8.2055833 8.0999672 7.9441071 v 0.024024 h 0.016696 0.01919 c 0.032,0 0.059193,0.010403 0.081592,0.0312012 0.021685,0.0185953 0.033012,0.0416778 0.033693,0.0692872 v 0.80917967 c 0,0.14720002 -0.043982,0.26310046 -0.1319839,0.34790036 -0.0864,0.0847984 -0.2057159,0.12729486 -0.3577149,0.12729486 -0.1375994,0 -0.2463676,-0.0448724 -0.3263669,-0.13447275 -0.078372,-0.0896005 -0.1174672,-0.21203591 -0.1174672,-0.3672363 v -0.77988278 c 0,-0.0288 0.011282,-0.0528712 0.03369,-0.0720703 0.024009,-0.0208063 0.051191,-0.0312012 0.081592,-0.0312012 h 0.016838 0.019191 V -1.048974 H 7.1617458 7.0130641 Z m 6.3959467,0 v 0.024024 h 0.01434 0.01933 c 0.04479,0 0.08238,0.012784 0.112794,0.0383788 0.03101,0.0232441 0.04775,0.0524812 0.05024,0.0877442 v 1.13627922 h -1.46e-4 c -0.0016,0.0351978 -0.01843,0.06566 -0.05039,0.0912597 -0.03039,0.0255969 -0.06798,0.0383788 -0.112793,0.0383788 h -0.0167 -0.0167 v 0.0238762 h 0.203907 0.143994 0.196583 l -0.0023,-0.0238762 h -0.0167 -0.01434 c -0.04482,0 -0.08328,-0.0127842 -0.115282,-0.0383788 -0.02945,-0.0248031 -0.04532,-0.0542282 -0.04775,-0.088037 v -1.13774335 c 0.002,-0.0360283 0.01786,-0.065878 0.0479,-0.089502 0.032,-0.0255969 0.07047,-0.0383789 0.115282,-0.0383789 h 0.01434 0.0167 l 0.0023,-0.024024 h -0.196728 -0.143994 z m -16.8253402,0.038379 c 0.00179,-2.75e-5 0.00363,1.38e-5 0.00541,0 0.00182,-1.39e-5 0.00374,0 0.00556,0 0.1184003,0 0.2255329,0.0288258 0.321533,0.0864258 0.096001,0.0576 0.1720771,0.13768639 0.2280755,0.24008796 0.055998,0.1008 0.083937,0.21907842 0.083937,0.35507811 0,0.13439906 -0.02795,0.25282516 -0.083937,0.35522461 -0.055998,0.10240157 -0.1320774,0.18248796 -0.2280755,0.24008796 -0.096001,0.0576 -0.2031336,0.0862792 -0.321533,0.0862792 -0.1167987,0 -0.2231886,-0.0286792 -0.3191896,-0.0862792 -0.096001,-0.0576 -0.1720771,-0.13768639 -0.2280755,-0.24008796 -0.055998,-0.10239874 -0.083937,-0.22082485 -0.083937,-0.35522461 0,-0.13600034 0.02795,-0.25427904 0.083937,-0.35507811 0.055998,-0.10240157 0.1320774,-0.18248796 0.2280755,-0.24008796 0.093022,-0.0558125 0.1956529,-0.0846952 0.3082031,-0.0864258 z m 9.4176261,0 c 0.00179,-2.75e-5 0.00363,1.38e-5 0.00541,0 0.00182,-1.39e-5 0.0036,0 0.00541,0 0.1184003,0 0.2256803,0.0288258 0.3216798,0.0864258 0.096001,0.0576 0.1719298,0.13768639 0.2279282,0.24008796 0.055998,0.1008 0.084081,0.21907842 0.084081,0.35507811 0,0.13439906 -0.028091,0.25282516 -0.084081,0.35522461 -0.055998,0.10240157 -0.1319329,0.18248796 -0.2279282,0.24008796 -0.096001,0.0576 -0.2032809,0.0862792 -0.3216798,0.0862792 -0.1168016,0 -0.2231886,-0.0286792 -0.3191893,-0.0862792 -0.096001,-0.0576 -0.1719297,-0.13768639 -0.2279282,-0.24008796 -0.055998,-0.10239874 -0.084081,-0.22082485 -0.084081,-0.35522461 0,-0.13600034 0.028091,-0.25427904 0.084081,-0.35507811 0.055999,-0.10240157 0.1319301,-0.18248796 0.2279282,-0.24008796 0.093022,-0.0558125 0.1957946,-0.0846952 0.3083496,-0.0864258 z m 6.4684561,0.18618152 0.269237,0.65624997 H 12.036452 Z M -6.5965046,0.7907301 c 0,0.0234709 -0.00747,0.0565027 -0.022414,0.0991701 -0.014939,0.0405326 -0.032068,0.083228 -0.05127,0.1280267 -0.017065,0.044802 -0.034059,0.085317 -0.051123,0.1215808 -0.014938,0.03414 -0.025682,0.057518 -0.03208,0.070313 L -7.5007533,2.90113 c -0.030492,0.052033 -0.06722,0.090987 -0.1101563,0.1167477 -0.051202,0.029866 -0.1013717,0.044824 -0.1504394,0.044824 h -0.012745 -0.015968 v 0.031932 h 0.6846679 v -0.031932 h -0.028711 c -0.025597,0 -0.051155,-0.00748 -0.076758,-0.022422 -0.025597,-0.017065 -0.043834,-0.040592 -0.054492,-0.070458 -0.00955,-0.026787 -0.00792,-0.058705 0.00483,-0.0958 l 0.1946778,-0.4675782 0.2739257,-0.1250986 0.1511719,0.068117 0.1524903,-0.069579 0.2520995,0.1136722 0.1864746,0.4675779 h -8.789e-4 c 0.025597,0.064001 0.022334,0.1140264 -0.00967,0.1502929 -0.032,0.034132 -0.069396,0.05127 -0.1120606,0.05127 H -6.201 v 0.031932 h 0.8844758 v -0.031932 h -0.012756 -0.012898 c -0.049068,0 -0.099094,-0.014967 -0.1502929,-0.044824 -0.046545,-0.029089 -0.086943,-0.074965 -0.1211425,-0.1375484 L -6.5676476,0.79072982 Z M 8.0961694,0.8099207 C 7.8457058,0.81287152 7.6222393,0.86204497 7.4258571,0.95713741 7.2231885,1.0531383 7.0653392,1.1896407 6.9522732,1.3667077 6.8413393,1.5437738 6.7858653,1.7463512 6.7858653,1.9746179 c 0,0.3413327 0.1226353,0.6208763 0.3679687,0.8384765 0.2453329,0.2176016 0.5600925,0.3263669 0.9440917,0.3263669 0.2325345,0 0.4489789,-0.041604 0.6495117,-0.1248038 0.064001,0.1855985 0.1685565,0.3403287 0.3136232,0.4640627 0.1450658,0.1258668 0.3211443,0.2047181 0.528076,0.2367184 0.051222,0.00853 0.1034192,0.012898 0.1567389,0.012898 h 1.465e-4 c 0.1621417,0 0.334953,-0.036306 0.518408,-0.1088391 l -0.0064,-0.03208 c -0.07894,0.017065 -0.156705,0.025625 -0.233495,0.025625 -0.074665,0 -0.1472912,-0.00856 -0.2176754,-0.025625 C 9.544411,3.5234091 9.3566441,3.361349 9.2435814,3.1010815 9.192331,2.9794812 9.1656987,2.8482793 9.163601,2.7074782 V 2.1987378 c -0.00213,-0.044799 0.010772,-0.080014 0.038378,-0.105616 0.02778,-0.025597 0.068261,-0.038378 0.1215808,-0.038378 h 0.048047 v -0.03208 h -0.899119 v 0.03208 h 0.051123 c 0.051199,0 0.090626,0.012784 0.1183606,0.038378 0.027723,0.025597 0.041601,0.061758 0.041601,0.1086916 v 0.4864742 c -0.034132,0.096001 -0.100352,0.1728199 -0.1984874,0.2304199 -0.096001,0.0576 -0.2100671,0.086425 -0.3423339,0.086425 -0.2453329,0 -0.4458778,-0.095046 -0.6016112,-0.2849122 C 7.3853534,2.5303562 7.307497,2.2839935 7.307497,1.9810606 c 0,-0.3050666 0.078999,-0.5536055 0.2368658,-0.7456054 0.1599988,-0.1941335 0.3658451,-0.29121075 0.617578,-0.29121075 0.2048003,0 0.3796407,0.0501732 0.524707,0.15044035 0.1472003,0.098133 0.2464583,0.2443011 0.2976562,0.4384278 H 9.009929 L 9.0034946,0.98262441 C 8.9053592,0.9335567 8.7763374,0.89304111 8.6163364,0.86104079 8.4563377,0.82690883 8.2910067,0.80991796 8.1203404,0.80991796 c -0.00405,0 -0.00825,-2.579e-5 -0.012302,0 -0.004,2.361e-5 -0.00788,-4.68e-5 -0.011877,0 z M 2.3314239,1.0882399 c -0.00214,0.021345 -0.010573,0.051248 -0.025483,0.089649 -0.014939,0.036266 -0.030983,0.075693 -0.048047,0.1183578 -0.017065,0.040533 -0.033117,0.07793 -0.048047,0.1120592 -0.014938,0.032006 -0.024435,0.054439 -0.028712,0.067238 L 1.5261995,2.8834057 h -0.00103 c -0.029866,0.066132 -0.068349,0.1131845 -0.1152822,0.1409187 -0.046933,0.025597 -0.091658,0.038378 -0.1343253,0.038378 H 1.262669 1.2499131 v 0.031932 h 0.6399904 v -0.031932 h -0.025625 c -0.036269,0 -0.069304,-0.014967 -0.09917,-0.044824 -0.028318,-0.030336 -0.032653,-0.072193 -0.01304,-0.1255379 L 1.8812777,2.5923414 h 0.6761717 l 0.1360829,0.3212402 c 0.011253,0.043313 0.00479,0.078117 -0.019616,0.1042979 -0.029869,0.029866 -0.062904,0.044824 -0.09917,0.044824 h -0.025625 v 0.031932 h 0.940869 0.2110847 0.4289063 0.2271968 v -0.031932 h -0.025625 -0.025625 c -0.046933,0 -0.087449,-0.014967 -0.1215836,-0.044824 -0.034132,-0.032 -0.052211,-0.071427 -0.054346,-0.1183577 V 1.8429274 l 1.4687984,1.2933105 h 0.028712 l -0.00952,-0.044824 c -0.00425,-0.032 -0.00969,-0.075637 -0.016101,-0.1311024 -0.00428,-0.0576 -0.00615,-0.1238202 -0.00615,-0.1984876 v -1.396289 c 0.00103,-0.044952 0.018057,-0.081955 0.051123,-0.1108885 0.036266,-0.032 0.07787,-0.0479 0.1248038,-0.0479 h 0.025483 0.028857 V 1.1746657 H 5.5955351 5.1635527 4.9266874 v 0.03208 h 0.025625 0.028712 c 0.049068,0 0.089586,0.015902 0.1215836,0.0479 0.034132,0.029866 0.052356,0.068349 0.054493,0.1152822 V 2.4209548 L 3.6883085,1.1298414 h -0.028857 l 0.016101,0.1023931 c 0.010658,0.066135 0.015959,0.1537002 0.015959,0.2624995 v 1.4047852 c 0,0.046933 -0.01715,0.08636 -0.05127,0.1183578 -0.034132,0.029866 -0.075736,0.044824 -0.1248038,0.044824 h -0.025483 -0.012898 -0.012756 c -0.042664,0 -0.08754,-0.012784 -0.1344728,-0.038378 C 3.2828949,2.9966 3.2434679,2.949687 3.2114673,2.8835516 H 3.2113556 L 2.3570587,1.0882399 Z m -5.663964,0.035303 v 0.07998 0.095947 0.3295899 h 0.035303 V 1.600347 c 0,-0.091735 0.024463,-0.1643414 0.073536,-0.2176753 0.051199,-0.053331 0.1236671,-0.081068 0.2175278,-0.083202 h 0.3681153 v 1.5936034 h -1.465e-4 c -0.00213,0.046933 -0.020211,0.087449 -0.054346,0.1215808 -0.032,0.032 -0.071425,0.048047 -0.1183606,0.048047 h -0.019191 -0.015959 v 0.031932 h 0.2143077 0.4576172 0.2112293 v -0.031932 h -0.019191 -0.015959 c -0.049068,0 -0.090672,-0.016044 -0.1248038,-0.048047 -0.034159,-0.03413 -0.051282,-0.074646 -0.051282,-0.1215796 v -1.593604 h 0.3711911 c 0.091735,0.00213 0.1632529,0.029871 0.2144523,0.083202 0.053334,0.053334 0.078894,0.1257988 0.076759,0.2175279 v 0.028857 h 0.03208 v -0.3392549 -0.08628 -0.07998 c -0.012813,0.00638 -0.038506,0.013861 -0.076904,0.022422 -0.038401,0.00638 -0.080943,0.012784 -0.1278793,0.019191 -0.041068,0.00374 -0.079702,0.00584 -0.115869,0.00629 h -1.2035176 c -0.036499,-2.503e-4 -0.076703,-0.00245 -0.120702,-0.00643 -0.044802,-0.00638 -0.086406,-0.01372 -0.1248038,-0.022252 -0.036266,-0.00853 -0.064004,-0.01491 -0.083203,-0.019191 z m 3.79160104,0.00952 c -0.10262267,0.00116 -0.19420439,0.020381 -0.2748047,0.057569 -0.0831997,0.038401 -0.15036376,0.093872 -0.20156313,0.166405 -0.04907622,0.072533 -0.07899023,0.1601008 -0.0896485,0.2624996 -0.0128126,0.1087993 0.004337,0.2089984 0.05127024,0.3007323 0.04906771,0.091732 0.12697794,0.1652854 0.23364281,0.2207509 L 0.63235217,2.429012 c 0.0853342,0.044799 0.14610612,0.09076 0.18237258,0.1376957 0.0384009,0.044802 0.0575688,0.094827 0.0575688,0.1502929 0,0.078934 -0.0310025,0.1473307 -0.0928715,0.2049307 -0.0618661,0.0576 -0.15458738,0.086278 -0.27831966,0.086278 -0.1130655,0 -0.2112321,-0.023386 -0.29443348,-0.070313 C 0.12560091,2.8888312 0.06482894,2.8236995 0.02429635,2.7426315 -0.01624191,2.6615635 -0.03338018,2.5730545 -0.02697388,2.4770564 h -0.02548346 c -0.02559685,0.040533 -0.04695024,0.091797 -0.0640148,0.1536633 -0.0170646,0.059734 -0.0267307,0.1205064 -0.0288567,0.1823726 -0.002135,0.059734 0.005357,0.1108488 0.022422,0.1535159 0.02986866,0.032 0.07256126,0.060826 0.12802676,0.086425 0.0576,0.025597 0.12585259,0.045862 0.20478613,0.060792 0.0789335,0.014939 0.16432156,0.022422 0.25605352,0.022422 0.14933478,0 0.27835934,-0.022422 0.38715813,-0.067235 0.1109339,-0.046933 0.197263,-0.1140941 0.259132,-0.2015628 0.063992,-0.087466 0.09921,-0.1909332 0.105616,-0.3104002 C 1.224272,2.4418492 1.2029272,2.3436826 1.153851,2.2626154 1.1047557,2.1815273 1.0376078,2.1196764 0.95227365,2.0770094 L 0.44983247,1.7666089 C 0.40929987,1.743138 0.37205263,1.7197635 0.33791783,1.6962955 0.30591752,1.6728246 0.28036319,1.6461818 0.26115847,1.616316 c -0.0170646,-0.032 -0.0236126,-0.067215 -0.0193323,-0.1056161 0.00428,-0.074667 0.0374485,-0.1344954 0.0993175,-0.179297 0.0639978,-0.044802 0.1472088,-0.06709 0.24961037,-0.06709 0.12800125,0 0.22602045,0.028678 0.29428721,0.086278 0.0682668,0.0576 0.10239307,0.1355102 0.10239307,0.2336428 H 1.016291 L 1.057889,1.1938554 C 1.0573351,1.1936482 1.056719,1.193477 1.056129,1.1932695 l 0.00176,-0.031348 H 0.87551627 c -0.0221953,-0.0025 -0.0456973,-0.00468 -0.0704579,-0.00643 -0.0597345,-0.00638 -0.12050644,-0.011707 -0.18237258,-0.015959 -0.0597345,-0.00428 -0.11084881,-0.00643 -0.15351589,-0.00643 -0.003345,0 -0.006803,-3.74e-5 -0.0101197,0 z m -5.73398364,0.041601 v 0.03208 h 0.015959 0.025625 c 0.044802,0 0.083137,0.015902 0.1151377,0.0479 0.027298,0.023868 0.044436,0.053932 0.05127,0.090088 v 1.5757325 c -0.00683,0.035512 -0.023953,0.066875 -0.05127,0.09419 -0.032,0.032 -0.071427,0.048047 -0.1183606,0.048047 h -0.022422 -0.015959 v 0.031932 h 0.2304198 0.4416502 0.2080091 v -0.031932 h -0.022422 -0.012898 c -0.040533,0 -0.079963,-0.014967 -0.1183606,-0.044824 -0.036266,-0.029869 -0.054346,-0.071473 -0.054346,-0.1248038 v -1.586865 c 0.016866,0.00188 0.040314,0.00292 0.070313,0.00292 0.034132,-0.00214 0.071527,-0.00214 0.1120592,0 0.027723,0 0.059681,0.0053 0.095947,0.015959 0.038401,0.00853 0.075793,0.025512 0.1120593,0.051123 0.036266,0.025597 0.066036,0.061903 0.089501,0.1088391 0.025597,0.046933 0.040552,0.109885 0.044824,0.1888186 0.00214,0.029866 0.00106,0.056514 -0.00323,0.07998 -0.00214,0.023471 -0.00524,0.041553 -0.00952,0.054346 -0.017065,0.0896 -0.043713,0.1579975 -0.07998,0.2049307 -0.036266,0.044802 -0.076782,0.075659 -0.1215808,0.092724 -0.042667,0.014939 -0.086451,0.022422 -0.1312498,0.022422 h -0.057569 -0.022422 v 0.028857 c 0.029869,0 0.061815,0.015902 0.095947,0.0479 0.036266,0.029869 0.06836,0.078951 0.096094,0.1472173 0.00641,0.025597 0.017008,0.057546 0.031932,0.095947 0.017065,0.038401 0.036235,0.077973 0.057569,0.1185052 l 0.064015,0.1215808 c 0.021345,0.038401 0.04159,0.071436 0.060792,0.09917 0.051199,0.078934 0.1055849,0.1418853 0.1631849,0.1888185 0.0576,0.044802 0.1258526,0.07566 0.2047861,0.092724 0.081065,0.017065 0.1792347,0.025625 0.2944335,0.025625 h 0.2687981 v -0.031932 c -0.044802,0 -0.084226,-0.00641 -0.1183606,-0.019191 -0.034135,-0.012813 -0.06717,-0.034149 -0.09917,-0.064015 -0.032,-0.032 -0.069395,-0.076873 -0.112062,-0.1344728 -0.036266,-0.051199 -0.071481,-0.1002841 -0.1056161,-0.1472173 -0.032,-0.049068 -0.058646,-0.09161 -0.079979,-0.1278822 -0.021345,-0.038401 -0.037389,-0.066138 -0.048047,-0.083203 -0.029866,-0.049068 -0.073502,-0.101418 -0.1311024,-0.1568863 -0.055465,-0.055465 -0.1142079,-0.092713 -0.176074,-0.1119146 0.1045332,-0.017065 0.1888327,-0.052282 0.2528305,-0.1056161 0.066135,-0.053334 0.1141285,-0.1162857 0.1439944,-0.1888186 0.032,-0.074667 0.048047,-0.1493093 0.048047,-0.2239738 0,-0.1002643 -0.020268,-0.1834753 -0.060792,-0.2496104 -0.038401,-0.068267 -0.090751,-0.121561 -0.1568835,-0.1599619 -0.066132,-0.040535 -0.1407741,-0.069361 -0.2239738,-0.086425 -0.0832,-0.019191 -0.1695316,-0.028857 -0.2591319,-0.028857 h -0.3103416 -0.4416502 z m 3.9648919,0 v 0.03208 h 0.019191 0.019191 c 0.051202,0 0.094833,0.015902 0.1311024,0.0479 0.036266,0.032 0.054493,0.072516 0.054493,0.1215808 v 1.5168458 c 0,0.046933 -0.018227,0.087449 -0.054493,0.1215807 -0.036269,0.032 -0.078962,0.048047 -0.1280268,0.048047 h -0.022252 -0.019191 v 0.031932 h 0.2334954 0.45117182 0.22397383 v -0.031932 h -0.022252 -0.0161008 c -0.0511994,0 -0.0948359,-0.016044 -0.13110235,-0.048047 -0.034132,-0.034132 -0.0523559,-0.074648 -0.0544932,-0.1215807 V 1.376228 h 1.4655e-4 c 0.002134,-0.049068 0.020211,-0.089581 0.0543458,-0.1215808 0.0362665,-0.032 0.0800504,-0.0479 0.13124975,-0.0479 h 0.0191905 0.0159591 l 0.003231,-0.03208 H -0.62536271 -1.0765345 Z m 10.841454,0 v 0.028857 h 0.022422 0.022422 c 0.040507,0 0.074495,0.012784 0.1022456,0.038378 0.02778,0.025597 0.042755,0.058637 0.044824,0.09917 h 1.465e-4 v 1.0592285 c 0,0.2282655 0.075742,0.4085541 0.2271969,0.5408204 0.1536098,0.1301329 0.3840588,0.1951171 0.6912598,0.1951171 0.255997,0 0.453273,-0.066073 0.591944,-0.1983401 0.140797,-0.1322674 0.211229,-0.312554 0.211229,-0.5408204 v -1.05981 c 8.39e-4,-0.038815 0.01474,-0.07056 0.0416,-0.09536 0.02985,-0.025597 0.06493,-0.038378 0.105469,-0.038378 h 0.01933 0.02225 V 1.1746691 H 11.444949 11.24031 11.044753 v 0.028857 h 0.02242 0.02242 c 0.03841,0 0.07142,0.012784 0.09917,0.038378 0.02778,0.025597 0.04275,0.058637 0.04482,0.09917 h 1.46e-4 v 1.0751953 c -0.0021,0.1855984 -0.05014,0.330671 -0.143994,0.4352051 -0.09173,0.1045332 -0.221839,0.1567389 -0.390381,0.1567389 -0.162142,0 -0.28913,-0.055327 -0.380859,-0.1662605 C 10.2289,2.7310191 10.184178,2.5773785 10.184178,2.3811133 V 1.3372632 c 8.42e-4,-0.038815 0.01474,-0.07056 0.0416,-0.09536 0.02778,-0.025597 0.06186,-0.038378 0.102393,-0.038378 h 0.02242 0.02242 V 1.174668 H 10.184158 9.7297631 Z m 2.2782708,0 v 0.03208 h 0.01933 0.01919 c 0.05119,0 0.095,0.015902 0.13125,0.0479 0.03626,0.032 0.05435,0.072516 0.05435,0.1215808 h 1.46e-4 v 1.5168458 c 0,0.046933 -0.01814,0.087449 -0.05435,0.1215807 -0.03626,0.032 -0.07896,0.048047 -0.128027,0.048047 h -0.02242 -0.01919 v 0.031932 h 0.233643 0.451171 0.223974 v -0.031932 h -0.02242 -0.01596 c -0.05119,0 -0.09499,-0.016044 -0.13125,-0.048047 -0.03418,-0.034132 -0.05228,-0.074648 -0.05434,-0.1215807 h -1.47e-4 V 1.376228 h 1.47e-4 c 0.0021,-0.049068 0.02041,-0.089581 0.05449,-0.1215808 0.03626,-0.032 0.07991,-0.0479 0.131102,-0.0479 h 0.01933 0.01582 l 0.0032,-0.032082 H 12.494759 12.04344 Z m 1.107569,0 v 0.03208 h 0.01596 0.02225 c 0.04694,0 0.08745,0.015902 0.12158,0.0479 0.03625,0.032 0.05435,0.072516 0.05435,0.1215808 V 2.897465 c -0.001,0.045079 -0.01817,0.084121 -0.05112,0.1171871 -0.03413,0.032 -0.07464,0.048047 -0.12158,0.048047 h -0.02225 -0.01933 v 0.031932 h 0.236719 0.438428 0.822363 0.0097 l 0.124804,-0.5887207 h -0.03194 c -0.02778,0.093869 -0.06717,0.1759889 -0.118361,0.2463874 -0.05122,0.068267 -0.113204,0.1215609 -0.185743,0.1599619 -0.0682,0.035133 -0.146307,0.053249 -0.234522,0.054346 H 13.592262 V 1.376228 h 1.47e-4 c 0.0021,-0.049068 0.02013,-0.089581 0.05435,-0.1215808 0.03416,-0.032 0.07481,-0.0479 0.121728,-0.0479 h 0.01582 0.02242 v -0.032082 h -0.21446 -0.451025 z m 1.724414,0 v 0.03208 h 0.01933 0.01919 c 0.04907,0 0.09067,0.015902 0.124804,0.0479 0.03631,0.032 0.05565,0.072516 0.05772,0.1215808 v 1.513623 c 0,0.046933 -0.01814,0.087449 -0.05434,0.1215808 -0.03416,0.034132 -0.07574,0.05127 -0.124804,0.05127 h -0.02242 -0.01919 v 0.031932 h 0.23042 0.451318 0.399903 c 0.228245,0 0.424591,-0.038336 0.588867,-0.1151376 0.164267,-0.076799 0.290179,-0.1866557 0.377637,-0.3295899 0.08745,-0.1429342 0.131102,-0.3146522 0.131102,-0.5151855 0,-0.2005313 -0.04366,-0.3722516 -0.131102,-0.5151855 C 16.602624,1.4744706 16.476709,1.3646139 16.312465,1.2899465 16.14821,1.21315 15.951875,1.1746657 15.72361,1.1746657 H 15.323708 14.86902 Z m 0.681884,0.1248037 h 0.06387 0.227197 0.07031 c 0.200522,0 0.358384,0.074642 0.473584,0.2239739 0.117326,0.1472003 0.176074,0.3510127 0.176074,0.6112791 0,0.2602687 -0.05872,0.4639337 -0.176074,0.6111329 -0.1152,0.1472003 -0.273062,0.2207508 -0.473584,0.2207508 h -0.07031 -0.217675 -0.07339 z m -21.9629856,0.082763 0.3345703,0.8389159 -0.1787108,-0.080566 -0.1558593,0.071192 -0.1511719,-0.068114 -0.2047853,0.093603 z M 2.222,1.8008863 2.5045686,2.4675368 H 1.9348907 Z" />
  </g>
</svg>
