<svg width="256mm" height="256mm" version="1.1" viewBox="0 0 256 256" xmlns="http://www.w3.org/2000/svg">
    <rect transform="rotate(90)" y="-256" width="256" height="256" fill="#eeb681" style="paint-order:stroke fill markers"/>
    <path d="m16.91 0.01343c42.74 4.969 83.54 3.301 125.3 4.325-44.54 4.901-89.06-3.965-133.7-1.705-2.803-0.2004-5.658-0.2922-8.482-0.3637v2.349c2.449-0.1888 4.888-0.09273 7.347 0.05457 12.15 1.096 24.77-0.3265 37.05 1.031-15 0.3646-29.7 0.9107-44.4 1.558v1.607c14.16-2.053 29.51 1.372 43.92-1.186 9.256-0.3608 48.01 2.564 40.59 5.933-23.97 2.628-43.94 0.4356-69.71 5.009-4.6 0.8163-9.575-0.6725-14.8-1.242v1.732c9.412 0.4867 18.84 0.6265 28.35-1.358 20.35-2.455 46.15 3.874 63.55-5.548-10.76-3.152-21.89-5.336-33.09-6.022 26.97-0.2758 53.85 7.332 80.68 1.18 31.76 1.711 63.31-1.379 95.1-1.645 7.803 0.8744 14.66-0.3878 21.41-0.9085v-2.349c-24.2-0.6146-49.09 2.765-73.56 2.091-9.108 1.453-18.27 1.001-27.43 0.4366 22.58 0.4361 61.48-3.882 68.51-4.978-6.493-0.0013-10.4 2.41e-4 -16.72-0.01449-23.02 1.354-49.69 5.153-72.89 2.716-26.16 0.7233-60.86-0.9806-86.32-2.699-10.67 0-24.65 3.38e-4 -30.68 0zm74.07 0c29.33 0.9463 58.98 2.293 88.1 0-29.2 9.18e-4 -59.13 9.18e-4 -88.1 0zm165 7.442c-17.32 0.7625-34.63 1.398-52.28 1.2-18.63 2.747-38.22-0.5289-56.34 3.065 19.79 8.101 46.76 2.916 68.72 4.136 13.38 0.8094 34.49 3.204 39.9 3.452v-1.732c-20.66-4.499-71.84-1.855-106.1-5.7 33.85 0.1232 67.91-1.251 101.8-2.064 1.423-0.3347 2.875-0.5384 4.326-0.7487zm-105 1.517c-12.03-0.4419-13.66 1.376-13.22 2.838 4.794-0.8253 19.49-2.13 13.22-2.838zm-13.22 2.838c-1.429 0.2458-2.088 0.4559-0.9136 0.5865 3.967 2.021 1.363 0.9024 0.9136-0.5865zm114.5-1.21c-2.707 0.8233-12.01 0.4009-10.87 2.715 9.608 2.929 17.62 1.996 1.802-0.5865 1.733-0.2656 8.218-1.44 12.81-1.24v-0.6514c-1.244-0.09997-2.499-0.1082-3.739-0.2371zm-252.3 0.04347v0.6514c0.7697 0.03381 25.47-0.2197 11.07 4.04 8.014-1.122 38.72-1.91 41.46-4.078-17.46-0.2019-35.17 0.779-52.53-0.6134zm94.91 0.2289c15 4.689 49.98 1.992 13.47 1.453-4.48-0.4463-9.084-0.2734-13.47-1.453zm146.2 2.009c-0.4796 0.6115-0.3616-0.3352 0 0zm-129.8 0.9559c-36.63 3.491-2.984 0.5737 12.48 0.8311-4.134-0.5429-8.307-0.8106-12.48-0.8311zm38.52 1.927c5.972 2.17 28.13 3.297 10.45 2.738-23.83-1.814-47.61-0.7991-71.45-1.051-29.2 2.632-88.47 3.176-88.8 3.178v1.555c12.86-1.379 26.04 0.0038 39.05-0.8067 22.79 0.5531 45.53-2.098 68.3-1.582 25.42-0.4806 50.82 1.093 76.28 1.463 24.14 0.5691 48.4 2.556 72.37 1.121v-1.555c-24.2 0.1628-49.53-1.207-74.11-2.042 20.05-0.9777 41.36-0.5928 60.71 0.7188-30.57-5.392-62.54 1.582-92.8-3.736zm-21.72 7.318c-27.41 0.1145-54.83 0.6333-82.27 1.465-15.31 1.278-30.56 1.112-45.81 0.8167v3.07c32.34 1.226 64.97-2.871 97.54-2.012 49.05-0.3468 98.18-0.9626 147.2 1.458 3.746 0.3608 7.503 0.5819 11.26 0.7487v-3.07c-15.2-0.1309-30.41-0.6077-45.68-1.507-27.41-0.7925-54.82-1.083-82.23-0.9683zm-12.83 4.472c-15.33-0.09128-30.54 0.8796-45.97 2.379-18.66 0.989-37.14 3.533-55.78 1.293-4.493 0.08645-8.994 0.1038-13.49 0.01449v2.843c16.01 1.948 23.86-2.123 35.12 1.332 23.44-2.07 47.13-3.993 70.43-5.663 37.18 0.7316 74.49 0.1145 111.7 2.344 12.98 0.4294 26.31 0.3357 38.76 2.181v-2.843c-0.4317 0.01932-0.8638-0.0097-1.295 0.01449-41.24-2.219-82.7-4.135-124.1-3.429-5.154-0.2864-10.28-0.4337-15.39-0.4641zm58.52 3.187c-4.313-0.02898-8.635 0.171-12.98 0.7287-25.06-1.426-50.19-0.1174-75.24 0.2869-18.93 1.458-37.23 6.385-56.4 5.346-9.757-0.1396-19.46-1.105-29.16-1.904v1.62c2.892 0.2946 5.806 0.5998 8.682 1.04 20.28 0.6676 40.95 1.64 60.79-2.725 21.04-3.126 42.18-2.036 63.39-2.848 16.87-0.383 33.7 1.102 50.61-0.3695 23.93 4.354 48.46 2.645 72.53 5.096v-1.62c-14.41-1.187-28.82-2.454-43.42-1.972-13.02-0.4895-25.87-2.598-38.8-2.681zm-32.47 5.613c-36.87 0.2043-73.44 11.7-110.6 7.527-10.24-1.205-20.48-1.454-30.74-1.542v0.8286c2.499 0.1009 5.057 0.4806 7.529 0.541 5.531-1.538 19.47 1.663 28.4 1.265 38.74 3.232 76.86-8.941 115.4-8.186-3.343-0.1864-6.689-0.4525-10.03-0.4342zm10.03 0.4342c1.933 0.1077 3.861 0.06279 5.796 0.2497 0.1873 8.7e-4 0.3743 0.01932 0.5616 0.02415-2.12-0.1251-4.24-0.2304-6.357-0.2719zm6.357 0.2719c4.648 0.2738 9.299 0.6121 13.96 1.36 27.89 0.5989 56.84 3.832 84.35 4.942v-0.8286c-32.76-0.1772-65.51-5.264-98.31-5.473zm-11.52 1.131c-0.2349 0.04347-0.5246 0.128-0.6639 0.03864-18.78 4.096-39.42 4.704-58.78 7.777-2.013 0.5012-17.9-0.3144-8.152 0.7162 22.63 0.0026 46.49-1.527 67.93-8.333 0.0833-0.2473-0.097-0.2439-0.332-0.1995zm7.987 2.723c-7.607-0.5545-15.15 0.8947-22.04 4.687-4.746 2.642-8.87 0.4752-13.24 1.355 1.615 1.974 8.827 1.865 0.4718 1.917-38.06-0.4982-81.62 0.242-119.3-3.214 0.0013 1.68 0.0038 6.172 0.0038 6.172 2.085 0.4129 29.67 3.096 36.91 7.779-2.955 0.5418-10.47 0.9916-10.56 0.09756 9.096-0.9661-3.894-2.492-7.001-3.447-2.631 1.397 14.92 3.109 4.71 2.476-10.52-0.6922-5.38 1.611-4.108 1.188-4.406-0.1599-9.942 1.049-13.68 0.01932 1.779 0.1695 15.24-1.396 8.641-3.359-5.218 0.2294-10-2.083-14.91-2.393v2.99c1.013-0.07148 2.6-0.03381 3.248-0.03864-8.334 3.14 7.568-0.2787-0.5541-1.373-5.266-1.037 6.275 1.542 7.975 1.745 2.377-0.08259 9.322 0.1719 2.933 0.8336-4.015 1.097-10.01 0.2859-13.6 0.3999l-3.58e-4 2.803c3.143-0.5195 6.362-1.107 9.626 0.1864 12.05-0.608 24.05 0.645 35.47-1.862 1.727-3.507-4.347-2.583-7.523-3.145-11.24-3.24-23.89-2.206-34.5-5.481 18.58 1.992 38.1 2.287 55.96 6.644 9.064 5.687 0.5497 3.055-6.894 4.567-17.23 0.8803-30.72 1.815-52.13 1.873v2.795c46.68 1.409 51.15-1.604 75.73-3.587 20.42-4.694 41.89-5.485 62.77-3.045 14.91-3.819 34.06 1.615 47.04-3.527-3.702-0.6534-14.62 1.161-4.016-1.844 3.646-2.975 30.83-5.574 16.93-1.418-3.476-1.073-10.24 4.776-3.737 4.088 4.035-0.02415-4.748 2.459-6.572 2.631-5.48 3.435-16.17-0.5015-23.49 0.1821-21.22 1.657-42.99-0.5021-63.71 4.635-32.45 2.848-65.26 5.519-97.91 4.026-0.9855-0.297-2.041-0.6399-3.046-0.8954v1.505c1.25 0.3009 2.539 0.693 3.767 1.053 28.49 2.75 57.01-1.397 85.41-3.267 13.23-0.8005 25.83-4.628 39.18-4.248 11.91-1.394 23.91 0.1391 35.8-1.131 8.965 1.659 18.86-0.1449 27.34 1.692-13.4 0.5629-37.55-2.12-54.75-0.2072-23.11 0.4627-45.41 6.335-68.5 7.462-23.25 3.026-45.85 1.96-68.24-0.7581v0.901c20.39 3.301 41.79 1.512 62.34 1.439 19.62-2.681 39.37-3.144 58.64-7.557 44.98-2.934 90.6-0.4197 135 6.312v-0.901c-5.221-0.634-10.44-1.277-15.64-2.099-5.758-1.279-17.24-1.532-20.97-2.244 12.3 0.4168 24.88 0.9221 36.61 3.746v-1.505c-12.04-3.06-25.34-3.43-37.52-4.655-2.723 1.52-9.968 0.08452-4.366-0.5515 11.38-1.541 40.09-1.32 41.89-1.617v-2.803c-0.7657 0.02415-2.084-0.09756-2.511 0.03864 2.176 2.677-8.837-0.9056-12.19 1.061-9.503-0.03864-22 0.4949-29.42 1.016-4.742 0.01932-12.03 1.911-10.8-2.913-1.908-2.308-7.712-3.312-1.655-3.249 17.43-7.835 54.61-3.067 56.57-2.871-3e-3 -3.428-3e-3 -3.639-4e-3 -6.172-30.64-1.799-63.63-4.591-94.24-3.731-2.528-0.6176-5.07-1.023-7.605-1.208zm2.152 3.037c4-0.03864 9.575 0.9744 2.456 1.777-5.71 3.358-11.21-0.8074-17.46 1.268-5.466-0.5473 9.796-2.962 15.01-3.045zm24.42 1.063c10.15 0.1623-8.386 3.437-9.073 2.671-3.015-3.917-11.48 2.229-4.293 0.6215 4.557 0.5096-2.347 5.295-3.949 0.7812-3.702 0.9208-11.26 0.4801-3.699-1.051 6.821-3.291 13.61-1.802 21.01-3.022zm17.01 0.4791c27.31 1.214 11.26 0.198-9.802 2.815 3.597-1.052 6.694-2.089 9.802-2.815zm-192.8 1.839c27.09 1.949 54.49 2.794 81.6 4.929 6.419-1.509 12.58 0.5107 18.77 1.722-33.34-2.461-66.76-1.261-99.93-6.097-0.8218-0.269-1.508-0.3347-2.137-0.3318 0.5687-0.06906 0.9068 0.05313 1.695-0.2222zm239.1 0.4018c17.46 0.9463-9.208 0.7724 0 0zm-95.27 0.412c3.363 1.039-7.605 2.42-10.03 2.453-15.86 1.934-32.24 1.919-48.04 0.1096-7.155 0.5636-8.253-0.4482 2.346-0.1497 19.21 2.724 37.35-0.8898 55.73-2.413zm4.403 2.054c3.323 2.758 18.02-0.7581 4.77 2.164-2.792 1.434-12.49-0.7482-10.38 1.839 3.929-0.2439 11.45 1.016 1.445 0.6814-4.239-0.1681-8.427-1.055-12.66-0.4192 5.7-1.193 11.23-2.589 16.83-4.265zm62.87 2.334c-0.2837 2.089 7.098 0.9815 0.0624 1.64-6.063-0.7861-3.395 2.208 0.8886 2.695 7.169 0.5882 14.27 1.234 21.32 3.052-5.359-1.152-3.509-1.706 0.8511-1.522 5.45 0.0097 12.36-0.7025 16.91-1.023v-2.99c-1.91-0.1207-3.838-0.01449-5.821 0.6813-11.33-3.09-22.88-1.167-34.21-2.533zm-90.88 1.68c12.69 1.844 2.646 2.719-5.848 1.071-4.982-1.046-16.79-0.9868-5.202-0.8161 3.679-0.3473 7.356-0.1101 11.05-0.2545zm110.3 0.1246c3.942 0.824 12.03 1.383 13.35 2.466-9.624 0.425-20 1.19-28.47-1.47 4.924-0.5958 10.07-0.585 15.12-0.9958zm-41.97 7.605c5.772 3.722-4.922 0.4168 0 0zm4.902 2.526c5.323 1.203 11.58-0.4013 16.04 1.705-2.551-0.7863-28.18-1.092-16.04-1.705zm57.68 0.05989c-2.077 0.1048-14.18-0.5167-16.22-0.3917 1.984 1.432 13.08 2.955 16.22 3.187zm-113.2 1.592c-16.65 0.3724-33.23 1.76-49.6 5.478-26.02 2.356-52.08 6.907-78.11 2.401-5.015-0.6393-10.05-1.398-15.07-2.066v1.685c0.9804 0.2144 1.967 0.5658 2.946 0.7956 11.01-2.156 24.46 3.833 36.51 2.75 23.81-0.06955 47.67-3.387 71.21-7.103 16-3.469 42.77-2.763 52.69-2.029-11.12 1.605 15.62-0.1618 20.75 1.21 13.59-0.1729 28.12 3.271 41.03 1.627-19.71-1.198-39.46-2.453-59.27-3.017 30.21-0.2748 60.5-0.5246 90.13 5.96v-1.685c-21-2.881-41.98-6.193-63.19-5.391-16.65-0.3458-33.37-0.989-50.02-0.6165zm2.211 2.114c-27.67 0.6311-54.94 5.927-81.88 11.23-20.52 0.2478-44.16-3.99-63.12-4.066 22.14 4.408 45.24 4.814 67.77 5.209 27.4-7.165 56.42-10.08 84.31-11.74-2.366-0.1874-4.69-0.7871-7.094-0.6314zm33.1 2.264c-18.83-0.05602-37.66 0.6008-56.49 2.139-28.7 2.263-56.45 15.17-85.78 8.226-11.57-1.131-24.26-2.15-35.83-4.1v3.082c24.4 5.197 50.29 5.61 75.27 5.852 45.53-11.27 92.27-14.58 139.1-10.9 14.53-1.488 28.02 2.142 41.64 5.239v-3.082c-5.257-0.8861-10.34-1.941-14.88-3.474 19.02 2.461 4.669-3.603-6.477-0.8436-18.86-1.316-37.7-2.085-56.54-2.141zm-28.8 4.932c-5.285 0.6361-10.55 1.563-15.82 2.393 9.738-1.541 19.5-2.378 29.2-1.36l-7.051-0.7013zm-15.82 2.393c-0.9669 0.1531-1.932 0.2695-2.898 0.4366 0.9653-0.156 1.932-0.2845 2.898-0.4366zm-2.898 0.4366c-30.62 4.957-61.15 11.66-92.42 8.453-12.93 0.382-25.7-2.839-38.15-5.023v0.4269c32.13 7.493 67.88 6.953 101.1 2.306 9.711-2.064 19.57-4.449 29.46-6.162zm36.6-1.814c10.46 0.7069-17.63 2.433-21.49 4.927-15.59 5.194-34.12 0.8491-48.45 8.718 1.47 5.282 19.83 0.1821 7.638 1.166-16.93 0.0386 6.468-5.709 11.28-4.635 21.73-0.3241 44.37-10.47 65.01-8.002-7.526 1.808 11.61-0.5684 6.02 2.666 8.273 1.473 16.66 0.4583 24.24 4.777 14.69 3.009 29.59 5.361 44.57 7.145v-1.178c-2.839-0.3434-5.739-0.5708-8.554-0.9534-13.63-2.843-29.34-2.606-41.73-8.041 9.502 3.753 26.52 2.494 7.221-1.929-5.174-1.961-34.17-3.73-22.81-3.499 21.47 0.8825 44.84 1.158 65.86 6.432v-0.2198c-28.59-8.353-59.33-5.849-88.82-7.373zm21.13 2.523c6.668-0.3661 40.5 4.646 29.07 5.496-9.466-1.285-20.63-3.386-28.41-4.255 1.069-0.5045-0.2344-1.06-0.659-1.24zm60.62 1.665c2.32 0.6428 4.712 1.126 7.074 1.677v-0.4269c-2.344-0.4115-4.761-0.94-7.074-1.25zm-78.14 1.183c-3.292-0.142-6.598-0.1526-9.919 3e-3 -14.19 2.28-28.47 3.976-42.29 7.335-2.895 5.908 20.1 1.721 13.16 4.695 9.522 0.1845-14.78 1.078-19.71 2.571-29.25 4.293-58.88 1.099-87.81 1.001-8.175-0.3627-16.21-1.138-24.21-2.031v2.783c10.9 1.288 21.96 2.567 27.55 3.144-9.329 1.125-18.46 0.0942-27.55-1.22v4.482c1.052-0.029 2.099 0.2173 3.153 0.169-5.243-0.2652 1.013-1.997 2.988-1.974 7.937 0.7628 5.616 1.474-1.747 1.964 14.27-0.7392 28.7-2.961 43.18-2.421 5.964-1.619 12.28-1.252 18.41-0.7787-21.68 5.192-44.53 0.6352-65.99 4.59v6.115c4.375 0.713 10.93 1.643 14.19-0.7718 2.713-2.582 18.99-1.378 8.546-2.783-5.03-1.611-10.07-1.635-15.34-1.957 21.45-1.443 42.99-0.2362 64.31-3.744 14.36 1.807-16.22 2.764-22.13 4.353-2.014 1.321-13.07 0.5682-5.302 1.787-14.6 2.667-29.47 3.257-44.28 4.384v1.218c6.205-0.1468 12.43 0.5615 17.47-0.72-1.549 0.4738 31.55-4.543 22.36-2.451 19.04-5.457 40.12-6.478 60.37-7.852 17.97 2.355 35.81 1.523 53.81 3.844-5.469 1.84-16.65 2.302-18.49 5.049 7.397 2.16 17.74 4.155 21.43 6.676-21.71 2.066-43.47 2.333-65.21 0.8685 10.23-0.5826 22.93 0.0604 31.26-4.323 12.61 4.617-3.918-2.553-7.316-4.959-35.57-9.783-71.09 5.9-106.9 5.636-12.78 1.301-9.553 2.538 0.7463 1.031 35.29 0.0483 70.44-14.74 105.5-5.593 9.567 2.074 3.189 6.233-3.07 6.082-37.33 1.559-74.86 1.371-112 5.247v1.318c13.27-0.5657 26.55-1.516 39.83-3.153 16.66-1.603 54.55-0.8019 19.19 1.929-19.71-0.2627-39.37 0.8016-59.02 1.723v1.512c9.435-0.5395 18.87-0.7111 28.39-0.7568 24.14 0.7313-5.524-0.3347-13.92 1.041-4.897 0.4501-9.668 0.7338-14.48 1.106v1.343c4.878-0.2125 9.739-0.4212 14.57-1.303 10.57-0.9922 25.95-0.492 34.47-0.1473-16.52-0.1207-32.78 1.668-49.03 2.451v1.44c0.4272 0.0241 97.9-1.993 146-3.697 31.15 3.393 62.33 2.811 93.61 3.651 5.448 0.3371 10.9 0.3463 16.36 0.2396v-1.44c-9.582 0.4617-19.17 0.6102-28.81-0.614-25.3 0.2449-50.5 0.2618-75.64-2.77 4.253-0.2168 8.518-0.2265 12.77-0.2796 18.67 1.922 36.37 1.794 55.01 2.433 12.37-0.1772 24.59 0.7562 36.67 0.2294v-1.343c-1.986 0.1546-4.025 0.2371-6 0.397-16.1-0.7447-5.689-1.315 6-1.844v-1.455c-14.76 0.6919-29.53 1.22-44.3 0.6215-1.664 0.0609-18.7-2.378-11.96-1.71-0.2232-3.313-0.1326-2.85 4.59-3.04 13.7-0.7214 26.68-5.925 40.62-4.735 3.486-0.9854 7.262-1.4 11.04-1.489v-1.218c-4.948 0.3762-9.915 0.897-14.83 1.397-16.76-1.04-32.56 6.173-49.38 5.289-9.723 3.285 9.132 7.075 13 7.071 14.44 1.696-4.916 0.0435-8.836 0.1695-36.03-5.309-72.94-2.525-109.5-2.868-15.47 2.318-31.08 1.817-46.64 1.428 24.96 0.029 49.62-6.235 74.49-2.458 16.83-1.778 34.9-0.6136 50.96-4.418-8.113-3.299-18.13-5.104-26.22-7.208 8.582-3.357 21.11-2.298 28.34-5.488-19.81-1.763-39.72-1.8-59.4-3.731 24.96-2.056 50.05-1.224 75.11-2.908 6.285 4.312 19.8 8.343 4.633 7.51-11.25 0.8628-23.4 4.085-33.81 3.022 14.2 6.106 31.75 6.789 47.35 7.128 16.05-6.113 34.69-4.148 50.32-5.865 0.1714 0.0589 2.667 0.3849 4.363 0.6614v-6.115c-2.377 0.438-4.752 0.896-7.091 1.565-19.02-3.348-42.65-5.454-59.13-8.261 18.89 1.751 38.77 2.232 57.52 4.487 3.922 0.4636 5.437 0.5762 8.698 0.6592v-4.482c-14.88-2.152-29.61-5.981-44.63-7.522-5.853-2.126-16.46 1.968-17.85-3.037-13.56-2.804-28.05-4.405-41.57-2.858-1.669 2.83 11.02 1.945 2.344 2.788-3.283 0.3849-12.94-2.326-10.19 1.789 7.718 0.6392 15.57 1.468 22.97 3.641-14.44 5.239-32.21 2.416-47.88 5.281-7.756 0.519-22.99 1.112-26.63-0.906 20.46-0.5405 41.21-4.039 61.53-3.269 0.4406-3.978-10.39-1.664-12.99-4.53-14.45-0.141 1.7-4.625 7.176-5.371 6.096-1.042 12.21-2.309 18.45-2.111 25.06 1.462 48.5 10.77 73.7 12.13 4.354 0.799 10.1 1.406 15.56 2.052v-2.783c-5.668-0.6464-11.31-1.441-16.88-2.511-22.88-2.791-45.29-10.26-68.34-11.26zm-166.4 22.92c-0.415 0.0193-0.8258-0.01-1.241 0.01 0.2744 0.0145 0.2174 0.0671 0.5591 0.0725 0.3785-0.0242 0.3276-0.0589 0.6814-0.0826zm-4.394-21.11v0.2198c1.192 0.2975 2.457 0.6394 3.633 0.9702-1.198-0.3941-2.426-0.8364-3.633-1.19zm158.6 4.27c7.903 0.2975 18.66-0.5416 24.58 2.591-8.055-1.476-17.33-1.243-24.58-2.591zm-42.34 4.767c3.124-2.525-0.8845-3.597-4.233-3.699-5.581-0.169-11.7 1.211-3.227 0.6938 3.369 0.17 13.91 2.297-4.999 4.058-34.7 3.233-70.11 2.194-103.8-1.879v1.178c35.16 4.188 72.03 5.058 107 1.599 2.94-0.3912 6.084 0.5827 9.22-1.952zm43.9-2.221c4.072 2.152 9.372 1.011 13.52 3.287-4.793 1.741-13.42-3.564-15.05-3.042 0.5004-0.1159 1.022-0.1942 1.535-0.2444zm12.3 0.9484c2.714-0.0386 15.03 2.042 5.891 1.652-2.14 0.0546-3.977-0.923-5.891-1.652zm18.16 2.254c3.041 1.145-14.54 0.9231-0.3394 0.0386zm-17.01 2.638c18.76 1.565 37.66-0.6968 56.37 3.185 9.024 0.0807 30.12 4.891 7.136 2.136-24.28-3.309-49.02-5.164-73.54-2.461-4.202-0.3786-21.92 0.5677-8.901-0.0898 6.428-0.4284 12.74-1.608 18.93-2.77zm-125.2 2.783c9.189 0.2729 9.748 0.5502 0.7388 1.512-5.012 1.481-17.34-0.0502-16.47 0.2173 5.471-0.2854 10.29-1.854 15.73-1.73zm40.94 1.657c17.54 1.384-17.64 1.392-15.4 0.6564 5.12-0.4173 10.3-0.2386 15.4-0.6564zm-87.7 0.9809c2.919-0.3038 0.02367 1.397 0 0zm189.1 1.128c10.16 1.933 12.65 6.084 0 0zm7.688 4.752c21.34 2.869-15.68 1.21-22.16 2.763 7.317-1.516 14.81-1.62 22.16-2.763zm38.51 1.333c9.294 0.169 4.624 1.834 0 0zm-18.04 1.118c2.302 0.734-16.18 3.902-22.38 3.067-26.12-1.283-10.61-1.817 6.802-2.314 5.177-0.4134 10.43-0.3183 15.58-0.7537zm7.496 0.5715c8.55 5e-3 4.331 1.137 0 0zm-50.22 1.592c7.7 3.111 19.97 2.411 27.28 3.085-7.513 1.482-36.76-2.69-27.28-3.085zm-91.08 0.242c-7.099 1.626-24.34-1.482-27.76 3.674 13.46 3.391 29.06 2.533 41.8-1.55 10.82-0.1318-6.887-1.894-10.32-2.034zm6.188 1.687c6.696 0.5232-12.16 3.334-15.92 2.833-12.47 0.2096-16.81-2.193 1.011-2.406 4.989 0.2246 9.963 0.212 14.91-0.4269zm-90 4.353-1.265 0.0241v0.142l1.265-0.1671zm254.7 0.2188c-15.2 0.0802-32.47 1.115-46.46 5.096 15.49 1.488 30.97 1.643 46.46 0.9833v-1.318c-2.861 0.2985-5.736 0.452-8.591 0.8011-10.13 0.9046-23.73-1.361-31.77-1.525 13.25-1.94 27.51-1.767 40.36-3.896zm-132.5 6.878c7.244 0.3733 17.73-0.781 22.86 1.355-31.29 0.74-62.57 0.6522-93.88 0.8935 23.19 0.0193 46.25-2.45 69.46-2.171zm-31.78 4.42c-14.7-0.0193-29.4 0.0792-44.1 0.3246-16.15-0.0386-31.83 1.875-47.6 2.883v1.245c4.784 0.1381 9.703-0.1584 16.24-1.401 48.19-3.923 96.61-1.594 144.9-1.862 21.4 1.902 46.63 1.689 68.62 2.189-1.928-0.1835-3.849-0.2941-5.788-0.5815-44.11-1.579-88.22-2.733-132.3-2.798zm138.1 3.379c5.174 0.4927 10.32 0.7505 15.44 0.6689-4.963-0.2647-9.931-0.5436-15.44-0.6689zm15.44 0.6689c3.602 0.1922 7.539 0.2917 10.75 0.599v-1.245c-3.58 0.2347-7.151 0.5891-10.75 0.6464zm-215.8-0.881c-9.785 0.8643-19.6 1.439-29.41 2.162v0.6015c10.1-0.6794 20.24-1.228 33.74-2.499 40.88 2.651 81.97 0.1299 122.8 3.105-5.019-0.4052-10.04-0.8456-15.05-1.44-37.38-1.074-74.75-0.815-112.1-1.929zm127.2 3.369c2.514 0.2028 5.029 0.3675 7.545 0.5266-2.513-0.228-5.03-0.3434-7.545-0.5266zm7.545 0.5266c6.138 0.557 12.27 1.254 18.39 2.131 23.41-0.8917 54.74-1.647 73.5-3.07v-0.6015c-30.61 2.256-61.31 3.473-91.89 1.54zm-99.91-1.782c-21.44-0.1574-42.85 0.2878-64.2 1.608v1.25c8.541 0.9307 19.01-2.643 27.94-1.356 22.8 0.3004 49.51 0.5978 69.86 1.253-32.67 0.029-65.34 0.2652-97.79 2.816v0.886c7.42-0.6088 14.85-1.034 22.21-1.685 44.69-1.288 89.47-2.299 133.9 3.19 33.3 3.262 66.81 1.405 99.9-1.31v-0.886c-6.384 0.5021-12.77 0.952-19.14 1.645-45.77 4.066-91.47-1.487-137.1-4.712 51.63 1.384 103.6 7.868 155 0.3246 0.3699 0.0608 0.7952-0.01 1.173 0.029v-1.25c-30.68 2.157-61.95 4.6-92.94 2.396-32.89-2.259-65.9-3.956-98.86-4.198zm-7.832 4.862c-18.85-0.1724-37.65 0.5474-56.37 2.981v1.635c2.074-0.3574 4.184-0.3661 6.241-0.7967 61.4-4.757 122.8 3.794 184.3 4.263 21.82 0.5379 44.06 0.4216 65.5-3.272v-1.635c-29.38 2.858-58.92 4.758-88.52 1.929-36.92-0.9907-74.1-4.766-111.1-5.104zm-13.42 3.517c-13.88 0.0637-42.45 3.109-42.95 3.258v0.9808c21.9-4.938 45.89-2.083 68.43-2.446 48.77 3.7 97.68 5.148 146.6 4.977 14.42 0.7591 27.75 0.2304 40.99-2.336v-0.9808c-2.589 0.5141-5.25 0.9043-7.728 1.602-54.55 2.791-109.3 0.5811-163.8-3.112-13.76-1.3-27.65-2.006-41.53-1.942zm33.06 7.792c-25.51-0.2487-50.98 0.5948-76.01 5.976v2.708c2.236 0.1652 35.25 1.208 37.21-3.347-15.81 0.01-36.46 2.675-9.52-1.515 10.75-1.623 21.73-1.376 32.59-1.927 24.96-0.058 22.49 0.6305 0.2696 3.988-20.01 5.047-40.24 5.379-60.55 4.466v2.106c8.97 0.5739 17.94 1.026 26.94 0.4361 24.32 0.2594 48.36-6.711 72.66-7.088 28.84 1.273 57.81-0.4216 86.63 1.36 23.45 5e-3 46.6 4.004 69.77 5.486v-2.106c-29-1.305-58.16-5.634-87.05-4.65-26.9-2.524-54.22-1.869-81.22-3.764 56.1-0.2256 112.5 2.633 168.3 6.749v-2.708c-1.046 0.2202-2.103 0.3217-3.147 0.5566-50.01-2.2-100.2-4.483-150.3-6.192-8.851-0.2222-17.71-0.4477-26.57-0.5341zm15.03 4.123c11.98 0.452 26.91 0.859 37.22 1.275-16.6 1.235-33.11-2.117-49.65 0.1174 4.13-0.8394 8.287-1.009 12.43-1.393zm34.93 3.397c-25.57-0.7416-50.68 9.498-76.47 6.873-16.54 0.4202-33.25 2.655-49.5 1.174v4.497c2.908 0.0889 5.842 0.4699 8.712 0.4086-16.13 3.141 2.564-0.3072 8.324-0.0193 29.34-0.2202 58.75 1.362 88.13-0.6389 24.56 2.231 48.46-6.232 72.99-1.345 25.83 0.6669 52.3 5.724 77.84 3.849v-0.0599c-42.91 0.2878-86.14-9.358-129-3.532-29.73-0.8816-59.46 2.825-89.18 0.866 54.06-1.101 108.3-15.55 162.2-4.078 18.6 1.148 37.62 4.179 56.01 4.742v-4.497c-1.917-0.1748-3.853-0.1763-5.756-0.4767-37.76-2.254-75.38-8.851-113.3-6.704-3.675-0.6236-7.337-0.9548-10.99-1.061zm35.44 10.78c-27.36 0.3038-54.74 4.022-82.21 2.908-26.4 2.85-52.89-0.7368-79.21 1.897v2.591c18.05-1.119 36.1-2.606 54.25-0.8017 35.69-2.87 71.53-1.238 107.2-4.705 31.6 0.3057 63.09 7.167 94.56 5.7v-2.591c-22.41 1.296-44.86-1.343-67.23-3.859-9.117-0.9627-18.23-1.242-27.35-1.141zm-20.24 4.665c-8.754 0.2738-17.48 1.371-26.17 3.836-36.78-1.455-72.32 0.9796-108.8 4.415-1.572 0.1478-4.469 0.128-6.155-0.0435v1.32c12.03-0.7262 24.32-0.354 36.65-0.2376-2.798 0.803-4.729 1.839-8.119 1.233-6.152-0.5814-41.31 2.456-17.68 1.555 26.9-1.395 55.18 2.078 80.15 11.58 7.611 9.876-20.69 7.289-27.06 9.227-20.94 1.885-42.81 4.62-63.94 3.452v1.63c31.9-0.0811 52.2-3.224 78.11-5.082 7.658 0.956 24.45-5.29 11.45-11.71-12.22-2.852-24.47-6.079-36.89-8.086 21.81 2.607 43.6 6.913 65.67 6.534 5.16 0.893 21.37 2.357 13.51 6.517-19.76 3.305-39.61 7.214-59.2 11.52 1.94 4.483 14.78-0.2589 18.44 5.124 45.03 6.548 91.13-0.0241 135.7-8.036 9.553-0.8213 19.43 3.462 29.21 3.412v-1.63c-11.84-0.6543-23.46-2.556-34.54-6.741-17.1-3.833-74.17-2.374-66.13-10 27.94-14.08 60.36-6.792 90.19-9.172 3.466-0.3999 6.964-0.6811 10.48-0.8935v-1.32c-11.02-1.393-24.64-0.0386-35.9-3.439-26.18 0.7924-52.67-5.786-78.93-4.964zm17.95 1.917c41.14 4.071-16.73-0.2922-32.52 1.47 0.7008-0.9537 24.93-0.9782 32.52-1.47zm-18.44 2.486c18.82 1.745 37.77 1.938 56.66 1.837-28.44 2.793-56.59 8.449-84.85 10.19-19.9-3.654-39.14-10.01-59.72-6.364-1.428-0.3709-2.59-0.5722-3.794-0.8012 10.21-0.0551 20.41-0.3192 30.46-1.58 20.02-3.905 40.88-1.564 61.24-3.284zm-75.54 1.071c15.17 0.01 14.09 0.4004 3.222 0.856-13.74 1.396-36.96 0.1135-3.222-0.856zm95.43 1.867c-19.32 1.259-39.05 2.573-58.24 2.111-0.2911 0.1285-1.136 0.3598-1.85 0.5541 1.846-0.2067 4.482-0.2893 8.803 0.0526 16.57 0.774 33.16-1.051 49.68-1.692-11.93 1.501-31.32 3.66-45.41 4.23-9.532 0.7363-15.59-0.7027-15.57-1.78-2.916 1.027-3.614 2.23 11.88 2.725 17.11-0.7918 35.18-1.118 51.65-5.294 0.1668-0.588-0.5632-0.7809-0.9485-0.9085zm-62.57 3.477c0.942-0.3318 1.52-0.5476 2.489-0.8111-1.595 0.1787-2.481 0.4434-2.489 0.8111zm4.338-1.365c0.7144-0.3154-0.167-0.4371-5.848-0.1048 1.933 0.0874 3.902 0.058 5.848 0.1048zm115.8-1.887c29.8 1.419-30.9 0.9349 0 0zm-137.8 4.22c11.96 4.006 36.24 8.22 5.771 4.205-10.27-1.659-28.82-4.167-5.771-4.205zm139 1.792c-8.761 1.04-21.84-0.3386-27.92 6.709 16.1 7.696 36.49 6.581 54.14 10.41 3.398 0.0604 6.942 0.4139 10.41 0.6189v-1.65c-5.148-0.3786-10.36-0.8466-15.37-0.9958-15.69-3.61-33.13-2.988-47.99-8.615 6.592-4.375 17.06-4.507 24.83-5.039 13.01 0.7498 25.77 1.234 38.53 1.47v-1.123c-0.4528 0.0242-0.9238 0.0193-1.375 0.0483-11.68-1.885-23.52-0.4506-35.25-1.834zm-203.3 1.248c-5.412 0.0435-10.76 0.0526-16.04 0.3448v1.123c8.601 0.1589 17.19 0.4781 25.92 0.1966 19.26 1.584 44.22 0.9825 60.42 8.873-26.64 10.58-57.28 6.25-86.34 4.111v1.65c29.18 1.728 60.23 7.276 87.21-5.297-1.745-5.216-13.09-4.628-18.05-6.734-17.36-3.147-35.49-4.407-53.12-4.268zm145.2 0.8585c-8.194 7.536-33.52 7.467-32.45 3.022 10.82-0.945 21.71-1.31 32.45-3.022zm-147.8 2.658c-4.492 0.325-8.999 0.2782-13.51 0.3502v1.592c5.911 0.4279 13.25 1.956 0 0.3521v4.972c20.72 2.725 41.71 5.984 61.9 0.3888-1.499-7.82-15.44-5.275-21.91-6.908-8.825-0.27-17.65-0.3772-26.48-0.7462zm242.5 0.5441c-12.79 0.2043-25.64-0.2347-38.41 0.7512 0.111 4.173 11.72-0.0555 15.26 3.724 7.638 0.4564 15.38 1.419 23.15 2.441v-4.972c-0.2629-0.0768-4.426-0.4743-1.66-0.5042 0.7713 0.0435 0.9426 0.1005 1.66 0.1521zm-26.68 1.645c4.867 0.0435 21.14 1.046 9.385 1.178-3.155-0.1449-6.28-0.5182-9.385-1.178zm-217.8 0.1797c13.49-0.1845-4.254 0.6828 0 0zm9.675 1.58c-6.721 1.315-7.908-0.1029 0 0zm21.29 0.3144c7.808 0.4776 15.92 2.287 2.908 0.9185-10.78-1.187-40.09 0.9603-9.822-0.7862 1.743-0.3043 4.311-0.2917 6.914-0.1323zm-35.42 0.4909c4.316-0.0681 6.897 5e-3 9.621 1.636-5.089-0.5569-7.887-0.5514-13.39-1.136 1.886 0.0435 0.5129-0.4477 3.766-0.4991zm7.375 0.1454c8.078 0.268 3.515 1.917 0 0zm40.46 0.2072c14.18 0.5974-10.16 4.84 0 0zm-15.78 1.318c27.48 1.898-9.707 1.907-18.67 0.2743 6.219-0.2424 12.45 0.07 18.67-0.2743zm102.4 0.3043c14.68 1.893 21.53 0.8775 1.575 2.126-15.97 3.254-32.15 8.462-47.72 12.48 19.8 5.201-1.702 2.784-11.21-0.8935-7.288-1.753 13.68-2.312 17.05-4.58 13.32-3.494 27.39-4.554 40.31-9.132zm21.21 2.828c15.61 3.206 34.96-1.404 48.36 7.422-32.51 3.359-65.55 7.809-98.09 6.651-21.43-2.759 5.664-4.733 13.48-8.708 11.55-4.495 23.75-5.657 36.24-5.366zm49.68 2.339c14.19-0.2222 11.32 7.531-1.46 3.207-1.775-1.106-3.775-1.754-5.688-2.566 2.745-0.4158 5.121-0.6097 7.149-0.6414zm-42.28 1.777c-11.98 1.148-26.92 0.5836-37.64 4.198 15.31 1.892 34.69 4.11 48.05-2.024-2.93-1.782-7.006-1.991-10.41-2.174zm-2.224 1.126c30.22 2.412-25.57 4.785-31.67 2.788 5.287-1.121 22.85-2.493 31.67-2.788zm11.63 1.57c0.3324 0.212 0.5132 0.2371 0 0zm-163 6.442c-5.271 0.0637-16.24 0.4866-16.54 0.4472v0.9085c3.161 0.0879 60.13 1.081 85.19 3.209 36.02 3.224 72.45 6.375 108.5 1.19 20.31-6.388 41.73-4.751 62.34-4.205v-0.9085c-20.65 0.2038-42.05-2.626-62.24 4.141-43.02 5.959-86.42 0.785-129.3-3.574-15.85 0.0696-32.08-1.399-47.9-1.208zm-1.156 3.911c-3.415 0.0773-13.67 0.5104-15.38 0.4801v2.176c29.88-0.6634 59.56 7.811 89.45 2.505 20.8 1.276 38.65 4.069 10.74 2.835-33.42-0.4376-67.12-0.3072-100.2-3.92v1.32c7.202 1.131 28.11 1.09 21.07 2.812-2.701 0.4923-15.5 9.6e-4 -21.07-0.9478v1.497c12.52 0.7954 25.17 1.685 37.78 0.5186 50.24 0.728 100.3-2.052 150.6 0.6265 18.67-2.15 37.34-2.797 56.07-1.625 3.816 0.227 7.713 0.4289 11.57 0.6739v-1.497c-2.843-0.4842-4.326-1.086-0.5491-1.947 0.1236 0.0386 0.4138 0.0435 0.5491 0.0826v-1.32c-0.8373-0.0918-1.684-0.1203-2.521-0.2173-21.04 0.2816-42.19 2.382-63.34 4.894-8.807-0.029-50.76-1.337-22.12-1.562 29.37-0.0932 58.61-4.653 87.88-4.535 0.0333-7.7e-4 0.0666 7.3e-4 0.0998 0v-2.176c-10.04 0.1256-20.08 0.2251-30.11 0.3642-46.13 5.464-92.69 6.552-138.9 0.7213-23.78 2.846-47.75-2.3-71.65-1.76zm169.9 11.24c-53.17-0.6602-106.2 4.063-159.4 2.541-9.493 1.544-17.61 1.091-25.91 0.4496v1.547c5.702 0.3724 11.88 0.8769 15.37 0.4361 37.53-2.01 75.26 0.8088 112.8-2.745 15.01 0.2627 29.99-0.7168 44.99-0.861 15.57 0.4356 56.28 2.789 17.05 3.057-63.38-1.618-126.9 5.824-190.2 1.104v10.64l6.401-1.373c6.371-1.367 17.89 3.696 2.361 2.828-1.414-0.0792-7.441-0.0338-8.762 0.1406v5.86c7.175-0.029 14.37 1.188 16.5 1.648 1.919 0 156.9 0 162.6 0.0145 3.194-0.2038 58.04-2.125 27.73-0.0145 7.329 0 12.13-1e-3 16.72 0.0145 9.644-1.663 22.15-1.449 32.48-1.471v-5.86c-5.616 0.3139-15.61 2.291 0-1.595v-10.64c-0.5172-0.0386-1.035-0.0435-1.553-0.085-16.6-2.481-8.634-1.571 1.553-0.9059v-1.547c-22.38-1.925-47.7 0.5875-70.7-3.185zm-37.98 9.212 5.207 0.0145c13.43 2.77-54.75 0.8914-10.41 0.055zm82.13 6.16c-10.54 0.9592-24.95 4.92-22.6 0.896 0.5425-0.9275 0.9002-2.479 1.479-2.956-16.94-0.4914-36.43 0.7225-52.78 2.711 7.788 0.3758 24.17-0.3086 35.02 1.096-28.32 4.309-57.45-4.814-85.75 0.1198-20.48-7.093 35.79 0.8959 46.78-2.042 14.4-2.309 35.62-5.612 42.74-3.872 7.116 1.74 76.29 0.2999 35.12 4.046zm-158.5-3.841c-12.61 4.688-44.65 0.3081-11.83 0.3869l7.685-0.3197zm-51.59 2.763c14.13 0.1222-4.498 0.9897 0 0zm48.82 4.471c-6.236 2.648-21.6 0.6697-5.229-2.419 9.085-1.714 7.873 1.297 5.229 2.419zm17.21-0.7444c12.18-0.6059 6.556 1.937 0.7969 2.216-5.64 0.2729-11.6-1.678-0.7969-2.216zm150.5 1.083c16.11-0.0498-13.92 0.578 0 0zm-131.2 0.3994c15.92-1.277 85.7 5.738 35.06 5.066-4.381-1.372-63.11-2.816-35.06-5.066zm100.4-3.734c-1.017 0.1275-37.97 0.3502-21.05-0.6564 3.954-0.2352 14.27-1.129 19.35-0.8814 2.874 0.1396 2.71 1.41 1.693 1.538z" fill="#e5a568" style="paint-order:stroke fill markers"/>
</svg>
