<?xml version="1.0" encoding="UTF-8" standalone="no"?>
<!-- Created with Inkscape (http://www.inkscape.org/) -->

<svg
   width="256mm"
   height="256mm"
   viewBox="0 0 256 256"
   version="1.1"
   id="svg6808"
   inkscape:version="1.2.1 (9c6d41e410, 2022-07-14)"
   sodipodi:docname="Wood-seamless-pattern-Remake.svg"
   inkscape:export-filename="..\..\..\..\..\..\Desktop\woodTextureSample.png"
   inkscape:export-xdpi="96"
   inkscape:export-ydpi="96"
   xmlns:inkscape="http://www.inkscape.org/namespaces/inkscape"
   xmlns:sodipodi="http://sodipodi.sourceforge.net/DTD/sodipodi-0.dtd"
   xmlns="http://www.w3.org/2000/svg"
   xmlns:svg="http://www.w3.org/2000/svg">
  <sodipodi:namedview
     id="namedview6810"
     pagecolor="#505050"
     bordercolor="#ffffff"
     borderopacity="1"
     inkscape:showpageshadow="0"
     inkscape:pageopacity="0"
     inkscape:pagecheckerboard="1"
     inkscape:deskcolor="#505050"
     inkscape:document-units="mm"
     showgrid="false"
     inkscape:zoom="0.5946522"
     inkscape:cx="322.03698"
     inkscape:cy="527.19892"
     inkscape:current-layer="layer1" />
  <defs
     id="defs6805" />
  <g
     inkscape:label="Layer 1"
     inkscape:groupmode="layer"
     id="layer1"
     transform="translate(68.694381,-21.679718)">
    <rect
       style="display:inline;fill:#eeb681;fill-opacity:1;stroke:none;stroke-width:0.264583;paint-order:stroke fill markers"
       id="rect8370-5"
       width="255.99994"
       height="255.99997"
       x="21.679718"
       y="-187.3056"
       transform="rotate(90)" />
    <path
       id="path1333"
       style="display:inline;fill:#e5a568;fill-opacity:1;stroke:none;stroke-width:0.264583;paint-order:stroke fill markers"
       d="M -51.785534,21.693148 C -9.045113,26.66239 31.749811,24.993934 73.488955,26.018355 28.944611,30.91887 -15.575896,22.05378 -60.209542,24.313724 -63.01212,24.113293 -65.867083,24.02153 -68.691285,23.950051 v 2.348521 c 2.448775,-0.18884 4.888199,-0.09273 7.346663,0.05457 12.148171,1.095706 24.77053,-0.326485 37.050702,1.030747 -14.995721,0.36464 -29.69676,0.91073 -44.397978,1.558001 v 1.607313 c 14.155478,-2.052849 29.511073,1.372059 43.918744,-1.186166 9.255789,-0.360776 48.007954,2.563876 40.590033,5.932519 -23.9717194,2.627772 -43.935973,0.435635 -69.709838,5.008941 -4.600389,0.816262 -9.575032,-0.67253 -14.798939,-1.242141 v 1.732063 c 9.412259,0.486733 18.839042,0.626455 28.351162,-1.358344 20.34878,-2.454773 46.1525862,3.873971 63.550781,-5.548125 C 12.450875,30.736401 1.3230736,28.552281 -9.8819844,27.8656 17.085399,27.589826 43.96657,35.197562 70.796368,29.046066 c 31.759592,1.710909 63.308912,-1.379014 95.097792,-1.644694 7.80307,0.874363 14.66129,-0.387822 21.41072,-0.90846 v -2.348569 c -24.20115,-0.614623 -49.08741,2.765273 -73.55725,2.091486 -9.10793,1.452763 -18.271344,1.00061 -27.431092,0.436602 22.578262,0.436119 61.476972,-3.881988 68.512202,-4.978128 -6.49343,-0.0013 -10.40371,2.41e-4 -16.71583,-0.01449 -23.0207,1.353948 -49.690701,5.152817 -72.890112,2.716348 -26.163622,0.72329 -60.860165,-0.980615 -86.32434,-2.699445 -10.671776,0 -24.648904,3.38e-4 -30.677384,0 z m 74.071443,0 c 29.334776,0.946325 58.975537,2.292594 88.101471,0 -29.197714,9.18e-4 -59.12966,9.18e-4 -88.101471,0 z m 165.018361,7.442465 c -17.318,0.762459 -34.62841,1.398043 -52.28131,1.200462 -18.63409,2.747065 -38.217576,-0.528945 -56.337334,3.064857 19.789038,8.101086 46.756304,2.916006 68.715014,4.135545 13.38096,0.809355 34.4941,3.204386 39.90363,3.451664 V 39.256079 C 166.64909,34.757295 115.4626,37.401488 81.156682,33.555674 115.00706,33.67883 149.06839,32.304888 182.9787,31.491669 c 1.42307,-0.334696 2.87468,-0.538363 4.32557,-0.748743 z M 82.307338,30.653046 c -12.026816,-0.441915 -13.660184,1.376406 -13.218842,2.837717 4.794438,-0.825341 19.491415,-2.13022 13.218842,-2.837717 z m -13.218842,2.837717 c -1.428699,0.24583 -2.088302,0.455921 -0.913544,0.586515 3.967193,2.020876 1.363194,0.902374 0.913544,-0.586515 z M 183.56525,32.280305 c -2.70705,0.823264 -12.01324,0.400862 -10.87259,2.71543 9.60792,2.928612 17.61941,1.996101 1.80212,-0.586514 1.73276,-0.265632 8.21787,-1.439627 12.80949,-1.240403 v -0.651425 c -1.2436,-0.09997 -2.49944,-0.108185 -3.73902,-0.237137 z m -252.257148,0.04347 v 0.651377 c 0.769709,0.03381 25.466962,-0.219749 11.065715,4.040111 8.013671,-1.122076 38.72431,-1.909746 41.463628,-4.07812 -17.462363,-0.20188 -35.174005,0.778977 -52.529343,-0.613368 z m 94.909011,0.228927 c 14.995953,4.689266 49.982049,1.991608 13.46844,1.45257 -4.479768,-0.446261 -9.083611,-0.273359 -13.46844,-1.45257 z m 146.158547,2.00914 c -0.47957,0.611532 -0.36162,-0.335179 0,0 z M 42.58592,35.517725 C 5.9593894,39.008993 39.601718,36.091441 55.060942,36.348814 50.927078,35.805911 46.754275,35.538251 42.58592,35.517725 Z m 38.518341,1.926747 c 5.971558,2.169968 28.129549,3.297453 10.453268,2.737888 -23.826015,-1.814215 -47.607531,-0.799068 -71.448143,-1.050742 -29.201196,2.631636 -88.473057,3.175505 -88.801284,3.177678 v 1.554911 c 12.855186,-1.379449 26.040339,0.0038 39.050923,-0.806747 22.7908364,0.553093 45.534323,-2.098103 68.300676,-1.582295 25.415213,-0.480552 50.822471,1.093194 76.275409,1.462519 24.14308,0.569128 48.40239,2.556293 72.36916,1.120627 V 42.5034 c -24.20173,0.16276 -49.53315,-1.207416 -74.10638,-2.041547 20.05139,-0.977717 41.35864,-0.592793 60.71032,0.718799 -30.57397,-5.392465 -62.53582,1.581522 -92.803949,-3.736229 z M 59.38652,44.762138 c -27.413362,0.114463 -54.8330367,0.633266 -82.268313,1.46503 -15.314471,1.278171 -30.563549,1.112321 -45.810105,0.816697 v 3.069831 c 32.343404,1.225672 64.9734377,-2.871429 97.544791,-2.012183 49.046983,-0.34677 98.178877,-0.962552 147.186907,1.457544 3.7458,0.360776 7.50326,0.581878 11.26447,0.748743 V 47.237969 C 172.10178,47.107085 156.89887,46.630301 141.6199,45.730486 114.2071,44.938034 86.799887,44.647868 59.38652,44.762138 Z M 46.557063,49.234601 C 31.223755,49.14332 16.021746,50.114179 0.58314646,51.613114 -18.075483,52.602084 -36.558221,55.146255 -55.197568,52.905918 c -4.493023,0.08645 -8.994435,0.103838 -13.49433,0.01449 v 2.842741 c 16.008957,1.947707 23.863255,-2.122589 35.124704,1.332166 23.438466,-2.069946 47.132249,-3.993215 70.427276,-5.662975 37.176694,0.731598 74.486138,0.114464 111.686228,2.343547 12.98013,0.429357 26.31221,0.335662 38.75796,2.181318 v -2.842692 c -0.43167,0.01932 -0.86381,-0.0097 -1.29543,0.01449 C 144.76536,50.910204 103.31151,48.994132 61.94743,49.699746 56.793322,49.413347 51.668165,49.266042 46.557063,49.235615 Z m 58.523817,3.187144 c -4.31252,-0.02898 -8.634751,0.17097 -12.976732,0.728748 -25.059344,-1.425572 -50.188351,-0.117361 -75.239565,0.286882 -18.9258918,1.458124 -37.23324,6.385203 -56.399722,5.346004 -9.757053,-0.139578 -19.456855,-1.104834 -29.156759,-1.903709 v 1.619773 c 2.892276,0.294609 5.805756,0.599844 8.68204,1.040165 20.281724,0.667556 40.945941,1.640492 60.78519754,-2.72538 C 21.815901,53.688131 42.959951,54.778283 64.168873,53.966513 c 16.86727,-0.382993 33.70055,1.101598 50.608987,-0.36947 23.92943,4.353557 48.45811,2.645256 72.52641,5.096407 v -1.619772 c -14.40635,-1.186504 -28.81503,-2.454195 -43.4205,-1.971663 -13.01695,-0.489486 -25.86531,-2.597587 -38.80289,-2.680512 z m -32.473025,5.613036 c -36.87057,0.204295 -73.44343844,11.702132 -110.56053,7.52737 -10.237755,-1.205098 -20.484292,-1.454212 -30.739223,-1.54187 v 0.828625 c 2.498809,0.10094 5.056763,0.480552 7.528877,0.541019 5.531022,-1.53762 19.473905,1.663288 28.402037,1.265372 38.7433983,3.231964 76.855019,-8.940771 115.395298,-8.186233 -3.343346,-0.186425 -6.688619,-0.452539 -10.026459,-0.434187 z m 10.026459,0.434187 c 1.932577,0.107701 3.86097,0.06279 5.795715,0.249693 0.18731,8.7e-4 0.37433,0.01932 0.561611,0.02415 -2.120277,-0.125089 -4.239845,-0.230375 -6.357326,-0.271911 z m 6.357326,0.27191 c 4.647908,0.273842 9.298627,0.612111 13.96265,1.360178 27.89414,0.598879 56.83657,3.831518 84.34998,4.941713 V 64.214143 C 154.54688,64.036895 121.79793,58.949906 88.99164,58.740878 Z m -11.51907,1.130576 c -0.234935,0.04347 -0.524613,0.127986 -0.663936,0.03864 -18.783095,4.09599 -39.419795,4.70448 -58.783402,7.776919 -2.013378,0.501175 -17.90282535,-0.314411 -8.1519547,0.71624 22.6302607,0.0026 46.4917917,-1.526802 67.9312677,-8.333442 0.08332,-0.247279 -0.09699,-0.243898 -0.33197,-0.199465 z m 7.987216,2.722917 c -7.606631,-0.554494 -15.150868,0.894743 -22.04221,4.687141 -4.746272,2.642406 -8.869568,0.475239 -13.243799,1.355204 1.614975,1.973932 8.826536,1.864975 0.471752,1.916749 -38.058635,-0.498229 -81.621186,0.241966 -119.33991,-3.21419 0.0013,1.679709 0.0038,6.171731 0.0038,6.171731 2.084753,0.412937 29.668031,3.095622 36.910862,7.779383 -2.954849,0.541791 -10.471699,0.991578 -10.563099,0.09756 9.096006,-0.966078 -3.893824,-2.491866 -7.001284,-3.44669 -2.631308,1.396594 14.917431,3.109434 4.709965,2.475831 -10.52499,-0.692188 -5.380136,1.611127 -4.108434,1.188001 -4.40581,-0.159862 -9.942189,1.048568 -13.683098,0.01932 1.779236,0.169521 15.236708,-1.395725 8.641173,-3.35937 -5.218005,0.229409 -10.000391,-2.083179 -14.907109,-2.392857 v 2.989949 c 1.012739,-0.07148 2.599845,-0.03381 3.248267,-0.03864 -8.333735,3.140055 7.568135,-0.278671 -0.55411,-1.372687 -5.265823,-1.037122 6.27463,1.542016 7.97473,1.744572 2.376918,-0.08259 9.322193,0.171936 2.932815,0.833551 -4.015333,1.096769 -10.013742,0.285917 -13.601663,0.399897 l -3.58e-4,2.802799 c 3.142696,-0.519479 6.362436,-1.106573 9.625884,0.186425 12.04573,-0.607958 24.051434,0.644953 35.465731,-1.861836 1.727346,-3.506529 -4.346991,-2.582711 -7.522961,-3.144739 -11.239332,-3.239643 -23.89366,-2.205998 -34.499776,-5.480752 18.578649,1.991512 38.095812,2.286653 55.9579351,6.643832 9.06404521,5.687268 0.5497338,3.055487 -6.8939651,4.567269 -17.230022,0.880303 -30.716392,1.814939 -52.132848,1.87275 v 2.795314 c 46.683662,1.408909 51.146341,-1.60427 75.7300732,-3.587379 20.4200378,-4.693854 41.8850938,-5.485388 62.7745128,-3.044862 14.905896,-3.819443 34.058898,1.614557 47.039708,-3.526573 -3.70192,-0.653405 -14.61623,1.16081 -4.01607,-1.844352 3.64608,-2.975218 30.82789,-5.574157 16.93289,-1.417651 -3.47607,-1.0732 -10.24031,4.775814 -3.73652,4.088118 4.03513,-0.02415 -4.74761,2.458975 -6.57197,2.630573 -5.48042,3.434954 -16.16941,-0.501512 -23.489908,0.182078 -21.223819,1.657155 -42.991971,-0.50214 -63.710512,4.63474 -32.4474575,2.847667 -65.258605,5.518713 -97.90579,4.025718 -0.985469,-0.297024 -2.040727,-0.639882 -3.046056,-0.895419 v 1.504971 c 1.250185,0.300888 2.539,0.693009 3.767397,1.052626 28.489964,2.749866 57.0084591,-1.397271 85.413284,-3.266979 13.233361,-0.800517 25.831612,-4.627833 39.177292,-4.247835 11.909576,-1.394469 23.907885,0.139095 35.8027,-1.130624 8.964993,1.659086 18.859593,-0.14489 27.336243,1.69217 C 109.40067,86.222104 85.255204,83.53937 68.053017,85.452014 44.946271,85.914696 22.639489,91.787037 -0.44733322,92.914425 -23.695229,95.940693 -46.30201,94.874834 -68.691531,92.156313 v 0.900974 c 20.385928,3.301317 41.790565,1.511685 62.3361503,1.439481 C 13.259751,91.815483 33.016375,91.35256 52.283264,86.939502 97.266037,84.005433 142.88756,86.519805 187.30463,93.251391 v -0.901022 c -5.22137,-0.634039 -10.4406,-1.277108 -15.64245,-2.098972 -5.75848,-1.278992 -17.23666,-1.531729 -20.96893,-2.243718 12.30335,0.4168 24.88108,0.922128 36.61138,3.746226 v -1.504972 c -12.03802,-3.060027 -25.3373,-3.429786 -37.51993,-4.654685 -2.72326,1.52004 -9.96842,0.08452 -4.36552,-0.551548 11.38449,-1.541484 40.08635,-1.319899 41.88545,-1.61731 v -2.802751 c -0.76568,0.02415 -2.08416,-0.09756 -2.51097,0.03864 2.17573,2.677373 -8.83662,-0.905562 -12.18799,1.060691 -9.5028,-0.03864 -22.0005,0.494944 -29.41542,1.015824 -4.74183,0.01932 -12.02564,1.911291 -10.79521,-2.912626 -1.90777,-2.308048 -7.71221,-3.311991 -1.65487,-3.249495 17.42675,-7.834779 54.60802,-3.067272 56.56545,-2.870511 -0.003,-3.428 -0.003,-3.638911 -0.004,-6.17178 C 156.66389,65.73438 123.67138,62.942834 93.064972,63.802128 90.537265,63.18451 87.995183,62.779012 85.459636,62.59418 Z m 2.151562,3.037376 c 3.999998,-0.03864 9.575471,0.974384 2.456063,1.777026 -5.710222,3.358211 -11.213221,-0.807423 -17.462049,1.267884 -5.465772,-0.547346 9.795665,-2.962323 15.005986,-3.04491 z m 24.423412,1.063202 c 10.14694,0.162277 -8.38594,3.436693 -9.07298,2.670515 -3.014656,-3.916617 -11.480952,2.228987 -4.293136,0.621481 4.557186,0.509578 -2.346759,5.294906 -3.948674,0.78115 -3.702437,0.920824 -11.257947,0.480069 -3.69908,-1.050694 6.820736,-3.291078 13.60836,-1.802044 21.01387,-3.022452 z m 17.00777,0.479103 c 27.30646,1.214322 11.25581,0.198016 -9.80181,2.815259 3.59684,-1.05248 6.69442,-2.088685 9.80181,-2.815259 z m -192.828846,1.839426 c 27.090062,1.948576 54.4929715,2.794154 81.599383,4.929204 6.418793,-1.50927 12.582486,0.510737 18.767465,1.722113 -33.3396234,-2.461052 -66.758248,-1.260591 -99.925061,-6.097258 -0.821816,-0.269012 -1.507526,-0.334696 -2.136574,-0.331798 0.568716,-0.06906 0.906834,0.05313 1.694787,-0.222165 z m 239.052356,0.401828 c 17.46014,0.946276 -9.20777,0.772408 0,0 z m -95.265014,0.41197 c 3.363193,1.039151 -7.604941,2.419904 -10.033936,2.453325 -15.861588,1.933653 -32.243175,1.918536 -48.043097,0.109633 -7.154605,0.563622 -8.252585,-0.448193 2.346232,-0.149719 19.208523,2.723593 37.352924,-0.889769 55.730801,-2.413432 z m 4.402951,2.054008 c 3.322858,2.75827 18.023993,-0.758112 4.769863,2.163883 -2.792038,1.433879 -12.489503,-0.748163 -10.380876,1.839378 3.928765,-0.243898 11.451517,1.016499 1.445189,0.681369 -4.238975,-0.168072 -8.42681,-1.054895 -12.664737,-0.419215 5.699741,-1.193362 11.233952,-2.589135 16.830561,-4.265318 z m 62.874363,2.333598 c -0.28372,2.08854 7.09805,0.981484 0.0624,1.639719 -6.06325,-0.786076 -3.39522,2.208171 0.88858,2.695484 7.1694,0.588205 14.26685,1.233738 21.31588,3.052348 -5.35854,-1.151585 -3.50931,-1.705741 0.85113,-1.522455 5.44961,0.0097 12.35934,-0.702475 16.90794,-1.023261 v -2.989949 c -1.9105,-0.120741 -3.838,-0.01449 -5.82067,0.681321 -11.32645,-3.090309 -22.87936,-1.167088 -34.20526,-2.533207 z m -90.884532,1.67966 c 12.694205,1.84358 2.645571,2.718619 -5.848136,1.070689 -4.982017,-1.045864 -16.787071,-0.986797 -5.201669,-0.816117 3.679446,-0.347253 7.356405,-0.110116 11.049805,-0.254523 z m 110.298462,0.124606 c 3.94164,0.823989 12.02731,1.383167 13.34614,2.465833 -9.6242,0.425011 -20.0032,1.189595 -28.46694,-1.470005 4.92354,-0.595787 10.07299,-0.585017 15.1208,-0.995828 z m -41.96784,7.604693 c 5.77222,3.721643 -4.92215,0.4168 0,0 z m 4.90216,2.525721 c 5.32345,1.202635 11.58416,-0.401345 16.04433,1.704631 -2.55069,-0.786318 -28.18069,-1.092084 -16.04433,-1.704631 z m 57.67768,0.05989 c -2.07725,0.104804 -14.18304,-0.516677 -16.21903,-0.391686 1.98387,1.431803 13.08437,2.954982 16.21903,3.187144 z M 74.090486,87.801791 c -16.650849,0.372367 -33.231097,1.760123 -49.603096,5.47824 -26.0199855,2.356007 -52.084605,6.907189 -78.112473,2.400971 -5.014684,-0.639254 -10.048045,-1.39785 -15.066815,-2.065937 v 1.684683 c 0.980421,0.214437 1.967295,0.565844 2.946209,0.795591 11.011942,-2.156494 24.460048,3.832774 36.511565,2.750349 23.8111147,-0.06955 47.672544,-3.386561 71.206027,-7.103036 16.002596,-3.468665 42.774309,-2.763196 52.688155,-2.029087 -11.116875,1.604753 15.618852,-0.161794 20.749292,1.210459 13.59309,-0.172902 28.11509,3.270987 41.03432,1.627259 -19.71004,-1.197515 -39.463,-2.4526 -59.270129,-3.01743 30.206259,-0.274808 60.503819,-0.524598 90.130729,5.959951 V 93.809169 C 166.30721,90.928516 145.32593,87.615945 124.11541,88.418249 107.4629,88.072445 90.74134,87.429279 74.090486,87.801791 Z m 2.211465,2.113944 c -27.667931,0.63114 -54.94224,5.927351 -81.8764456,11.228585 -20.5240534,0.24776 -44.1623624,-3.990077 -63.1164714,-4.065661 22.144318,4.407651 45.241467,4.814211 67.7740153,5.208741 C 26.478352,95.122741 55.501594,92.208425 83.395595,90.547165 c -2.366465,-0.187391 -4.69048,-0.78709 -7.093644,-0.63143 z m 33.104499,2.263664 c -18.834225,-0.05602 -37.659936,0.60081 -56.489574,2.138913 -28.696565,2.263326 -56.4454182,15.171228 -85.7752,8.226128 -11.571713,-1.13072 -24.262629,-2.14964 -35.833574,-4.1 v 3.08229 c 24.395113,5.19696 50.2934,5.61028 75.2679513,5.85211 C 52.105276,96.112195 98.841319,92.803246 145.66093,96.482147 c 14.53164,-1.487778 28.01712,2.142294 41.64334,5.238693 v -3.082296 c -5.25715,-0.886147 -10.34483,-1.940511 -14.88367,-3.474171 19.02264,2.461052 4.66853,-3.60293 -6.47714,-0.843598 -18.85993,-1.315938 -37.70277,-2.085207 -56.53701,-2.141376 z m -28.803892,4.931715 c -5.284723,0.636115 -10.551913,1.562686 -15.824667,2.393485 9.737796,-1.540808 19.502954,-2.37774 29.198269,-1.360226 l -7.051213,-0.701316 z m -15.824667,2.393485 c -0.966887,0.153101 -1.931625,0.269496 -2.89786,0.436602 0.965264,-0.155998 1.932379,-0.284467 2.89786,-0.436602 z m -2.89786,0.436602 c -30.623601,4.956829 -61.15242215,11.658759 -92.417065,8.453269 -12.934868,0.38202 -25.704548,-2.83878 -38.154864,-5.02348 v 0.42694 c 32.129079,7.49313 67.87926703,6.95283 101.114078,2.30554 9.710617,-2.0644 19.565996,-4.44885 29.457851,-6.162124 z M 98.48145,98.126744 c 10.45599,0.70687 -17.634863,2.433476 -21.485608,4.926696 -15.58665,5.19416 -34.119775,0.8491 -48.454947,8.71783 1.470412,5.2824 19.828346,0.18208 7.637771,1.16554 -16.928157,0.0386 6.467765,-5.70948 11.28444,-4.63469 21.732381,-0.32407 44.369476,-10.474042 65.013444,-8.00154 -7.5258,1.80846 11.60819,-0.568407 6.02036,2.66554 8.27254,1.47343 16.65973,0.45833 24.23869,4.77692 14.69055,3.00917 29.58529,5.36107 44.56867,7.14549 v -1.178 c -2.8391,-0.34339 -5.73882,-0.57077 -8.55381,-0.95343 -13.63244,-2.84283 -29.34453,-2.60575 -41.72571,-8.04144 9.50236,3.75275 26.51676,2.4938 7.22094,-1.92926 -5.17436,-1.96084 -34.17243,-3.7298 -22.80599,-3.499087 21.47262,0.882477 44.84352,1.157767 65.86457,6.431667 v -0.21975 C 158.71676,97.145743 127.97021,99.6506 98.48145,98.126648 Z M 119.61262,100.65 c 6.66823,-0.36609 40.49682,4.6459 29.07097,5.49573 -9.46583,-1.28494 -20.63469,-3.38647 -28.41202,-4.25532 1.06856,-0.50451 -0.2344,-1.06016 -0.65895,-1.24041 z m 60.61798,1.66469 c 2.31979,0.64278 4.71173,1.12633 7.07367,1.6772 v -0.42694 c -2.34386,-0.41149 -4.76076,-0.94005 -7.07367,-1.2504 z m -78.13993,1.18303 c -3.292237,-0.14199 -6.597885,-0.15262 -9.919119,0.003 -14.193182,2.28003 -28.465722,3.97641 -42.292307,7.33515 -2.895217,5.90788 20.096931,1.72129 13.15893,4.69458 9.522066,0.18449 -14.778059,1.07817 -19.713443,2.57068 -29.248351,4.29338 -58.884267,1.09943 -87.809449,1.0008 -8.175115,-0.3627 -16.208029,-1.13786 -24.20718,-2.03097 v 2.78281 c 10.899184,1.28764 21.95964,2.56668 27.546831,3.14411 -9.329105,1.12512 -18.460283,0.0942 -27.546831,-1.21983 v 4.48241 c 1.052239,-0.029 2.099421,0.21734 3.153375,0.16904 -5.243329,-0.26515 1.013367,-1.99668 2.987718,-1.97417 7.937042,0.7628 5.61592,1.47435 -1.747194,1.96417 14.274497,-0.73922 28.698667,-2.96063 43.18088,-2.42091 5.963675,-1.61896 12.2779841,-1.25209 18.4130253,-0.77869 -21.6808293,5.19165 -44.5271683,0.63525 -65.9878043,4.59035 v 6.1147 c 4.375086,0.71305 10.925972,1.64281 14.193216,-0.77178 2.712597,-2.58209 18.990773,-1.378 8.54632,-2.78281 -5.029531,-1.61137 -10.06582,-1.63513 -15.340448,-1.95669 21.450093,-1.44281 42.989556,-0.23617 64.3120573,-3.74371 14.3619877,1.8074 -16.2240403,2.76416 -22.1270893,4.35269 -2.013711,1.32149 -13.065603,0.56821 -5.301507,1.78697 -14.602327,2.6668 -29.474944,3.25698 -44.283481,4.38379 v 1.21795 c 6.204864,-0.14683 12.433483,0.56154 17.4664,-0.71996 -1.549161,0.47379 31.554548,-4.54278 22.361714,-2.45086 19.0434504,-5.4567 40.12271,-6.47789 60.373367,-7.85178 17.965979,2.35514 35.811452,1.52332 53.806368,3.84354 -5.469405,1.83952 -16.651235,2.30163 -18.490408,5.04898 7.39734,2.1605 17.736783,4.15515 21.433202,6.67629 -21.70667,2.0655 -43.472161,2.33268 -65.208121,0.86852 10.228158,-0.58261 22.92986,0.0604 31.25746,-4.32275 12.614882,4.61745 -3.917529,-2.55296 -7.315788,-4.95914 -35.565946,-9.78336 -71.093415,5.89996 -106.886411,5.63554 -12.775737,1.30145 -9.553133,2.53837 0.746298,1.03074 35.288999,0.0483 70.438216,-14.74061 105.516112,-5.59308 9.566589,2.07371 3.188866,6.23297 -3.070081,6.08223 -37.3254842,1.55883 -74.855507,1.37134 -111.98918,5.24681 v 1.31758 c 13.271862,-0.5657 26.546563,-1.51642 39.834669,-3.15262 16.662866,-1.60325 54.5473,-0.80186 19.1867869,1.92926 -19.7061109,-0.26273 -39.3668629,0.80163 -59.0214559,1.7227 v 1.51241 c 9.435467,-0.53948 18.874876,-0.71108 28.390484,-0.75676 24.138719,0.7313 -5.524236,-0.3347 -13.915222,1.04074 -4.896636,0.45012 -9.668237,0.73377 -14.475262,1.10619 v 1.34274 c 4.877505,-0.21251 9.738892,-0.42115 14.567604,-1.30338 10.574208,-0.99221 25.946988,-0.49195 34.467342,-0.14731 -16.524606,-0.12074 -32.776134,1.66817 -49.034946,2.4514 v 1.44011 c 0.427219,0.0241 97.895604,-1.99335 146.029695,-3.69687 31.146453,3.39289 62.333413,2.81072 93.605163,3.65137 5.44842,0.33711 10.90317,0.34629 16.36131,0.23955 v -1.44006 c -9.58227,0.46172 -19.16651,0.61018 -28.81388,-0.61395 -25.29784,0.24487 -50.49995,0.26177 -75.638926,-2.77034 4.252906,-0.21685 8.517504,-0.22651 12.774549,-0.27964 18.671677,1.92153 36.368177,1.79437 55.009447,2.43343 12.37172,-0.17725 24.59255,0.75618 36.66881,0.22941 v -1.34275 c -1.98625,0.15455 -4.02474,0.23714 -6.0004,0.397 -16.10028,-0.74473 -5.68886,-1.31483 6.0004,-1.8444 v -1.45508 c -14.76405,0.6919 -29.5257,1.22041 -44.29909,0.62148 -1.6641,0.0609 -18.6989,-2.37798 -11.95836,-1.70965 -0.2232,-3.31281 -0.13263,-2.84965 4.59016,-3.03989 13.70344,-0.72145 26.68023,-5.92508 40.62246,-4.73452 3.48584,-0.98535 7.2616,-1.39997 11.04389,-1.48942 v -1.2179 c -4.94784,0.37623 -9.91543,0.89697 -14.82782,1.39703 -16.76143,-1.03982 -32.56336,6.17285 -49.37846,5.28863 -9.72252,3.28523 9.13201,7.07469 12.99669,7.07058 14.44276,1.69599 -4.91594,0.0435 -8.83585,0.16952 -36.033572,-5.30891 -72.942034,-2.52504 -109.45231,-2.86766 -15.4671738,2.31848 -31.081003,1.81653 -46.642847,1.4276 24.9590233,0.029 49.624069,-6.2351 74.490775,-2.45839 16.832257,-1.778 34.898459,-0.61357 50.963417,-4.41755 -8.112605,-3.2992 -18.134645,-5.10428 -26.22053,-7.20789 8.581884,-3.35686 21.109023,-2.29844 28.344633,-5.48824 -19.80662,-1.76259 -39.722631,-1.79977 -59.397419,-3.73121 24.957787,-2.05579 50.05423,-1.22378 75.107271,-2.9076 6.28485,4.31207 19.80065,8.3431 4.63259,7.50984 -11.24757,0.86277 -23.403708,4.08498 -33.813375,3.0224 14.201359,6.10567 31.754355,6.78906 47.351705,7.12801 16.05174,-6.1132 34.69079,-4.14805 50.31946,-5.8651 0.17141,0.0589 2.66652,0.38493 4.36301,0.66138 v -6.1147 c -2.37725,0.43805 -4.75173,0.89605 -7.09114,1.56486 -19.01759,-3.34845 -42.64968,-5.45409 -59.12537,-8.26109 18.88939,1.7508 38.7692,2.23232 57.51819,4.48705 3.92224,0.46365 5.43689,0.57623 8.69832,0.65925 v -4.48246 c -14.88025,-2.152 -29.60676,-5.98116 -44.62607,-7.5223 -5.85342,-2.12636 -16.45745,1.96847 -17.84643,-3.03743 -13.55576,-2.80429 -28.045938,-4.40542 -41.56847,-2.85766 -1.668628,2.83014 11.016936,1.94524 2.343755,2.78778 -3.282797,0.38492 -12.937549,-2.32558 -10.193682,1.78949 7.718361,0.63915 15.573639,1.46836 22.970723,3.64137 -14.439607,5.23941 -32.21405,2.41551 -47.878359,5.28114 -7.755909,0.51895 -22.987385,1.11247 -26.632369,-0.90599 20.462354,-0.54054 41.208769,-4.03857 61.529008,-3.26949 0.44055,-3.9781 -10.393627,-1.66358 -12.986709,-4.52989 -14.448963,-0.14103 1.699636,-4.62494 7.176016,-5.37098 6.096304,-1.04209 12.210412,-2.30891 18.447966,-2.11143 25.058331,1.46156 48.498381,10.76837 73.704531,12.12961 4.35406,0.79902 10.09563,1.40601 15.56009,2.05154 v -2.7828 c -5.66825,-0.64645 -11.31012,-1.44132 -16.87799,-2.5108 -22.87723,-2.79063 -45.29001,-10.26217 -68.33561,-11.25602 z m -166.388669,22.92134 c -0.414999,0.0193 -0.825776,-0.01 -1.240524,0.01 0.274396,0.0145 0.217401,0.0671 0.559109,0.0725 0.378532,-0.0242 0.327623,-0.0589 0.681415,-0.0826 z m -4.393899,-21.11379 v 0.21975 c 1.192383,0.29751 2.456904,0.63935 3.632609,0.97023 -1.197726,-0.3941 -2.426272,-0.8364 -3.632609,-1.18984 z m 158.577095,4.26966 c 7.903332,0.29751 18.660223,-0.54155 24.575663,2.59064 -8.05466,-1.47614 -17.329784,-1.24277 -24.575663,-2.59064 z m -42.339729,4.76698 c 3.123999,-2.52476 -0.884471,-3.59728 -4.233208,-3.6988 -5.581264,-0.16904 -11.698855,1.2108 -3.227338,0.69383 3.369125,0.17 13.906011,2.2967 -4.99943,4.05822 -34.69953291,3.23303 -70.10881,2.19407 -103.777327,-1.87874 v 1.17801 c 35.161393,4.18756 72.0324264,5.05834 107.017131,1.59919 2.940278,-0.3912 6.084215,0.5827 9.220172,-1.95171 z m 43.90479,-2.22126 c 4.072435,2.15157 9.372302,1.01104 13.518372,3.28697 -4.79284,1.74081 -13.419123,-3.56357 -15.053409,-3.0424 0.50037,-0.11591 1.021606,-0.19415 1.535037,-0.24438 z m 12.300312,0.9484 c 2.71377,-0.0386 15.02584,2.04232 5.89058,1.65223 -2.13985,0.0546 -3.97732,-0.92295 -5.89058,-1.65223 z m 18.16342,2.25372 c 3.04119,1.14545 -14.54097,0.92314 -0.33945,0.0386 z m -17.01026,2.63805 c 18.76128,1.5654 37.66002,-0.69677 56.37477,3.18464 9.0239,0.0807 30.11578,4.89066 7.13607,2.1364 -24.2796,-3.30929 -49.01641,-5.16412 -73.542284,-2.46086 -4.201885,-0.37865 -21.918705,0.56773 -8.90076,-0.0898 6.427666,-0.42839 12.736285,-1.60785 18.932204,-2.77035 z m -125.219571,2.78281 c 9.189144,0.27287 9.747915,0.55019 0.738822,1.51246 -5.011854,1.48077 -17.339935,-0.0502 -16.473634,0.21733 5.470603,-0.28543 10.288389,-1.85406 15.734812,-1.7296 z m 40.941966,1.6572 c 17.543059,1.38409 -17.6406785,1.39157 -15.3953508,0.6564 5.1202158,-0.41728 10.3006868,-0.23858 15.3953508,-0.6564 z m -87.697116,0.98086 c 2.91887,-0.30379 0.02367,1.39708 0,0 z m 189.107301,1.12811 c 10.16059,1.93317 12.65174,6.08364 0,0 z m 7.68769,4.75196 c 21.33871,2.86891 -15.67663,1.21002 -22.16453,2.76285 7.31692,-1.51579 14.81296,-1.61996 22.16453,-2.76285 z m 38.50587,1.33279 c 9.29396,0.16904 4.624,1.83368 0,0 z m -18.03614,1.11812 c 2.30178,0.73396 -16.18222,3.90169 -22.37917,3.06732 -26.12258,-1.28252 -10.60812,-1.81716 6.80161,-2.31361 5.17734,-0.41342 10.43257,-0.31827 15.57756,-0.75371 z m 7.49552,0.57154 c 8.55039,0.005 4.33129,1.13661 0,0 z m -50.22212,1.59229 c 7.70007,3.11146 19.96893,2.41054 27.28383,3.0848 -7.51338,1.48218 -36.762611,-2.69022 -27.28383,-3.0848 z m -91.084211,0.24197 c -7.0989192,1.62552 -24.3361235,-1.4815 -27.760567,3.67383 13.464717,3.39071 29.063433,2.5334 41.795603,-1.54989 10.820821,-0.13185 -6.887164,-1.89362 -10.320978,-2.03411 z m 6.187602,1.68714 c 6.696352,0.52315 -12.159291,3.3344 -15.9245139,2.83275 -12.4687187,0.2096 -16.8085261,-2.19272 1.0108745,-2.40595 4.9892874,0.22458 9.9626884,0.21202 14.9136394,-0.42694 z m -89.996889,4.35327 -1.265467,0.0241 v 0.14199 l 1.265467,-0.16711 z m 254.730698,0.21878 c -15.20292,0.0802 -32.46927,1.11498 -46.45563,5.09646 15.49274,1.48841 30.9726,1.64324 46.45563,0.98332 v -1.31777 c -2.86055,0.29847 -5.73588,0.45205 -8.59124,0.80114 -10.13155,0.90464 -23.72597,-1.361 -31.76915,-1.52492 13.25264,-1.93974 27.50977,-1.76654 40.36039,-3.89594 z m -132.520373,6.87846 c 7.243652,0.37333 17.726176,-0.78105 22.855907,1.3552 -31.289344,0.74005 -62.574142,0.65215 -93.877227,0.89349 23.1918808,0.0193 46.253399,-2.45042 69.463813,-2.17132 z m -31.781628,4.42006 c -14.7006532,-0.0193 -29.3994946,0.0792 -44.096916,0.32456 -16.150942,-0.0386 -31.834523,1.87468 -47.597248,2.88321 v 1.24542 c 4.784164,0.13813 9.702956,-0.15841 16.242428,-1.40074 48.1888782,-3.92309 96.613449,-1.59365 144.943003,-1.86189 21.398264,1.90159 46.634824,1.68898 68.622664,2.18885 -1.92845,-0.18352 -3.84907,-0.29412 -5.78824,-0.58154 -44.10931,-1.57891 -88.223753,-2.73344 -132.325691,-2.79777 z m 138.113931,3.37932 c 5.17373,0.49272 10.32473,0.75048 15.44278,0.66886 -4.96251,-0.26467 -9.93148,-0.54358 -15.44278,-0.66886 z m 15.44278,0.66886 c 3.60181,0.19222 7.53934,0.29171 10.74529,0.59897 v -1.24537 c -3.57995,0.23472 -7.15105,0.58907 -10.74529,0.6464 z m -215.844518,-0.88103 c -9.785183,0.86427 -19.595092,1.4389 -29.406357,2.16195 v 0.60149 c 10.104682,-0.67944 20.236534,-1.22819 33.739427,-2.49887 40.8826818,2.65095 81.974109,0.12992 122.818416,3.10475 -5.019195,-0.40521 -10.037646,-0.84558 -15.048412,-1.44006 -37.383199,-1.07378 -74.7535405,-0.81501 -112.103074,-1.92926 z m 127.151486,3.36932 c 2.514256,0.20285 5.029386,0.36754 7.54541,0.52663 -2.512918,-0.22796 -5.030502,-0.34339 -7.54541,-0.52663 z m 7.54541,0.52663 c 6.137862,0.55705 12.269372,1.25445 18.393062,2.13142 23.40636,-0.8917 54.73745,-1.6471 73.49985,-3.06983 v -0.60148 c -30.61271,2.25593 -61.30819,3.47281 -91.892912,1.53989 z m -99.9050843,-1.782 c -21.4353707,-0.15745 -42.8459147,0.28784 -64.1981687,1.60784 v 1.2504 c 8.54135,0.93068 19.012281,-2.64289 27.936211,-1.35578 22.803028,0.3004 49.5089784,0.59776 69.858179,1.25291 -32.6678105,0.029 -65.337364,0.26515 -97.79439,2.81584 v 0.886 c 7.42021,-0.60878 14.845689,-1.03365 22.21288,-1.68522 44.689772,-1.28826 89.467007,-2.29916 133.883199,3.18961 33.296936,3.26171 66.809876,1.40495 99.900086,-1.31029 v -0.886 c -6.38384,0.50209 -12.77224,0.95202 -19.13687,1.64469 -45.7732,4.06595 -91.466203,-1.48671 -137.065597,-4.71206 51.6294,1.38433 103.605717,7.86815 155.029347,0.32456 0.36988,0.0608 0.79519,-0.01 1.17312,0.029 v -1.25035 c -30.68178,2.15659 -61.94653,4.59958 -92.936235,2.39595 -32.892413,-2.25888 -65.899902,-3.95622 -98.8617613,-4.19794 z m -7.8324557,4.86183 c -18.853634,-0.17242 -37.654929,0.54744 -56.365713,2.98057 v 1.6347 c 2.074362,-0.35739 4.183603,-0.36609 6.24094,-0.7967 61.4040494,-4.75746 122.79583,3.79404 184.260065,4.26281 21.81588,0.53792 44.05749,0.42163 65.49516,-3.272 v -1.63475 c -29.37504,2.85829 -58.92149,4.75751 -88.515813,1.92926 -36.916412,-0.99066 -74.098009,-4.76577 -111.114639,-5.10389 z m -13.418522,3.51657 c -13.877291,0.0637 -42.448429,3.10944 -42.947191,3.25761 v 0.98081 c 21.896153,-4.93848 45.891269,-2.08275 68.42640682,-2.44642 48.76982418,3.69962 97.68113018,5.14813 146.58036818,4.97658 14.41913,0.75908 27.748,0.23038 40.98939,-2.33606 v -0.98085 c -2.58889,0.51406 -5.25045,0.9043 -7.72762,1.60233 -54.54588,2.79058 -109.318247,0.58111 -163.79283,-3.11228 -13.7560807,-1.29957 -27.651243,-2.00571 -41.528524,-1.94172 z m 33.059586,7.79189 c -25.509481,-0.24873 -50.977274,0.59482 -76.006777,5.9755 v 2.70795 c 2.235638,0.16517 35.248257,1.20799 37.206379,-3.34744 -15.811441,0.01 -36.455836,2.67486 -9.519766,-1.51497 10.754104,-1.62262 21.725855,-1.37641 32.590331,-1.92675 24.964162,-0.058 22.489049,0.63047 0.2695658,3.98829 -20.0086608,5.04652 -40.2423748,5.37938 -60.5465148,4.46556 v 2.10646 c 8.969989,0.57386 17.944398,1.02649 26.937808,0.43611 24.322416,0.25936 48.3622825,-6.7113 72.65621,-7.08806 28.842999,1.2732 57.813409,-0.42163 86.633822,1.36023 23.45218,0.005 46.60167,4.00369 69.76832,5.48577 v -2.10646 c -29.00327,-1.30531 -58.15669,-5.6338 -87.04815,-4.64966 -26.89797,-2.52413 -54.224994,-1.86889 -81.220005,-3.76366 56.097089,-0.22555 112.493195,2.63275 168.268155,6.74863 v -2.70794 c -1.04568,0.22023 -2.10324,0.32166 -3.14745,0.55657 -50.00726,-2.19986 -100.219366,-4.48304 -150.269466,-6.19206 -8.850551,-0.22217 -17.713458,-0.44771 -26.5724668,-0.53412 z m 15.030928,4.12304 c 11.981587,0.45205 26.906741,0.85895 37.222927,1.27537 -16.599655,1.23504 -33.110852,-2.1166 -49.6530297,0.11736 4.1302357,-0.83935 8.2867667,-1.00892 12.4301027,-1.39268 z m 34.934086,3.3968 c -25.570857,-0.7416 -50.6841236,9.49816 -76.467605,6.87343 -16.539607,0.42018 -33.247036,2.65468 -49.504186,1.17351 v 4.49744 c 2.907577,0.0889 5.842334,0.46992 8.711981,0.40859 -16.134534,3.14058 2.563885,-0.30717 8.324186,-0.0193 29.33708,-0.22024 58.7474273,1.36216 88.126437,-0.63892 24.558244,2.23111 48.455266,-6.23176 72.990661,-1.34525 25.8327,0.66688 52.29822,5.72382 77.8429,3.84851 v -0.0599 c -42.90526,0.28784 -86.14393,-9.35758 -129.023469,-3.53155 -29.730088,-0.88161 -59.4555246,2.82526 -89.179763,0.86605 54.062294,-1.10073 108.302474,-15.54601 162.195382,-4.07812 18.60074,1.1484 37.6176,4.17911 56.00785,4.74201 v -4.49743 c -1.91683,-0.17484 -3.85326,-0.17629 -5.75578,-0.47669 -37.75652,-2.2541 -75.38478,-8.85104 -113.278687,-6.70372 -3.674959,-0.62365 -7.336925,-0.95478 -10.989907,-1.06069 z m 35.443276,10.78184 c -27.360227,0.30378 -54.744937,4.02176 -82.208421,2.9076 -26.398527,2.84999 -52.894727,-0.73681 -79.206646,1.89738 v 2.59063 c 18.047834,-1.11946 36.102584,-2.60618 54.246599,-0.80172 35.691464,-2.87012 71.532028,-1.23813 107.185933,-4.70458 31.603523,0.30572 63.091653,7.16698 94.563633,5.70041 v -2.59063 c -22.41126,1.2958 -44.85974,-1.34275 -67.22739,-3.85852 -9.11688,-0.9627 -18.23364,-1.24185 -27.353708,-1.14057 z m -20.242611,4.66463 c -8.754409,0.27384 -17.484334,1.37076 -26.170601,3.83606 -36.7827637,-1.45469 -72.321347,0.97965 -108.84691,4.41528 -1.571524,0.14779 -4.468891,0.12799 -6.154945,-0.0435 v 1.32029 c 12.025178,-0.72619 24.315243,-0.35402 36.652255,-0.23762 -2.798322,0.80303 -4.728695,1.83899 -8.119492,1.23292 -6.151932,-0.58145 -41.312702,2.45631 -17.684193,1.55491 26.900477,-1.39515 55.1761406,2.07801 80.146707,11.58052 7.611418,9.87632 -20.6906708,7.28912 -27.0566856,9.22693 -20.9435784,1.8853 -42.8051634,4.62015 -63.9385914,3.45229 v 1.62977 c 31.902689,-0.0811 52.20256,-3.22433 78.1109027,-5.08206 7.6578063,0.95603 24.4541313,-5.29032 11.4516713,-11.70527 -12.2209266,-2.85183 -24.4709497,-6.0791 -36.893445,-8.08641 21.8051991,2.60739 43.597835,6.91318 65.669885,6.53401 5.159958,0.89295 21.373391,2.35687 13.51336,6.51652 -19.758174,3.30484 -39.607617,7.21383 -59.1952464,11.51812 1.9397296,4.48318 14.7751084,-0.25887 18.4429814,5.12389 45.032634,6.54757 91.126586,-0.0241 135.687806,-8.03647 9.55282,-0.82128 19.43131,3.46191 29.20825,3.41173 v -1.62973 c -11.84066,-0.65432 -23.46078,-2.55624 -34.54471,-6.74115 -17.09788,-3.8332 -74.165442,-2.37436 -66.129142,-10.0032 27.937552,-14.08204 60.358222,-6.79191 90.193132,-9.17201 3.46588,-0.3999 6.96388,-0.68113 10.48072,-0.89354 v -1.32024 c -11.02278,-1.39282 -24.6414,-0.0386 -35.89504,-3.43925 -26.18212,0.79236 -52.665413,-5.78584 -78.928669,-4.96412 z m 17.951276,1.9168 c 41.138693,4.07063 -16.728487,-0.29219 -32.520454,1.47 0.700779,-0.95366 24.930617,-0.97824 32.520454,-1.47 z m -18.442981,2.48583 c 18.81935,1.74476 37.774944,1.93805 56.661804,1.83686 -28.43828,2.793 -56.591633,8.44897 -84.854183,10.19287 -19.898236,-3.65413 -39.1350921,-10.00953 -59.721902,-6.36429 -1.428332,-0.37092 -2.590108,-0.57217 -3.793929,-0.80115 10.2137214,-0.0551 20.41197666,-0.31924 30.463741,-1.57983 20.021432,-3.90459 40.877364,-1.56409 61.244469,-3.28446 z m -75.5365901,1.07069 c 15.1731541,0.01 14.0886161,0.40038 3.22233863,0.85605 -13.74026253,1.39573 -36.95923553,0.1135 -3.22233863,-0.85605 z m 95.4347391,1.86686 c -19.315146,1.25919 -39.048218,2.57256 -58.236783,2.11143 -0.291108,0.12847 -1.136074,0.35981 -1.849543,0.55406 1.846399,-0.20671 4.481658,-0.2893 8.803406,0.0526 16.565192,0.77395 33.157433,-1.05079 49.682986,-1.69217 -11.933669,1.50053 -31.322193,3.65992 -45.409824,4.2304 -9.531817,0.73633 -15.588133,-0.70267 -15.565079,-1.77954 -2.915601,1.02742 -3.613903,2.2302 11.875992,2.72543 17.105228,-0.79182 35.180796,-1.11754 51.64733,-5.2936 0.16683,-0.58801 -0.563219,-0.78091 -0.948485,-0.90846 z m -62.574837,3.47663 c 0.942022,-0.3318 1.520344,-0.54759 2.488511,-0.81114 -1.594838,0.17869 -2.480653,0.44336 -2.488511,0.81114 z m 4.338054,-1.3652 c 0.714391,-0.31538 -0.167024,-0.43709 -5.848135,-0.10481 1.932982,0.0874 3.902286,0.058 5.848135,0.10481 z m 115.819608,-1.88681 c 29.79743,1.41857 -30.89962,0.93488 0,0 z m -137.767042,4.22041 c 11.95777,4.00553 36.236614,8.22033 5.770757,4.20538 -10.2748163,-1.65948 -28.819959,-4.1668 -5.770757,-4.20538 z m 138.972552,1.79195 c -8.76069,1.03963 -21.84304,-0.33856 -27.9203,6.70874 16.09821,7.69607 36.49133,6.58075 54.14332,10.41247 3.3978,0.0604 6.94205,0.4139 10.40585,0.61892 v -1.64972 c -5.14789,-0.37865 -10.35584,-0.84659 -15.3654,-0.99583 -15.69141,-3.60964 -33.12703,-2.98835 -47.9882,-8.61549 6.592,-4.37466 17.05889,-4.50748 24.82777,-5.03898 13.01106,0.74985 25.76576,1.23412 38.52583,1.47 v -1.12309 c -0.45277,0.0242 -0.92379,0.0193 -1.3753,0.0483 -11.6825,-1.88526 -23.52337,-0.45061 -35.25357,-1.83441 z m -203.327042,1.24793 c -5.412227,0.0435 -10.759929,0.0526 -16.040256,0.34484 v 1.12309 c 8.600581,0.1589 17.188155,0.47814 25.919447,0.19657 19.261658,1.58379 44.2240865,0.9825 60.415794,8.87258 -26.6417734,10.57691 -57.277764,6.24963 -86.335241,4.11105 v 1.64977 c 29.181692,1.72786 60.2330099,7.2757 87.211328,-5.29665 C 16.774077,216.70414 5.4343518,217.29254 0.46583386,215.18656 -16.891113,212.03917 -35.022695,210.77988 -52.651642,210.91878 Z m 145.242515,0.85852 c -8.19445,7.53592 -33.521437,7.46657 -32.450563,3.02241 10.821884,-0.94497 21.706583,-1.31005 32.450563,-3.02241 z m -147.770971,2.65806 c -4.491834,0.32503 -8.999293,0.27819 -13.5118,0.35015 v 1.59234 c 5.911264,0.42791 13.247721,1.95577 0,0.35208 v 4.97166 c 20.723588,2.72451 41.712293,5.98352 61.8968511,0.38879 -1.4988221,-7.81967 -15.4405271,-5.27516 -21.9099241,-6.90836 -8.824788,-0.26997 -17.647736,-0.37719 -26.475127,-0.74623 z m 242.484368,0.54406 c -12.78948,0.20429 -25.63677,-0.23472 -38.40851,0.75125 0.11104,4.17274 11.71991,-0.0555 15.26307,3.72372 7.63785,0.45641 15.37518,1.41935 23.14544,2.44087 v -4.97161 c -0.2629,-0.0768 -4.42619,-0.47427 -1.65984,-0.50417 0.77129,0.0435 0.94261,0.10046 1.65984,0.15214 z m -26.68479,1.64474 c 4.86715,0.0435 21.1448,1.04553 9.38498,1.17801 -3.15521,-0.14489 -6.27993,-0.51818 -9.38498,-1.17801 z m -217.778914,0.17967 c 13.486355,-0.1845 -4.254297,0.68277 0,0 z m 9.674526,1.57983 c -6.721391,1.31458 -7.907641,-0.10287 0,0 z m 21.290913,0.31441 c 7.807866,0.47765 15.916539,2.28728 2.907844,0.91846 -10.783268,-1.18709 -40.091643,0.96028 -9.821771,-0.78618 1.742706,-0.30427 4.311305,-0.29171 6.913927,-0.13233 z m -35.422444,0.49089 c 4.31602,-0.0681 6.896583,0.005 9.621246,1.63551 -5.088868,-0.55691 -7.887422,-0.55135 -13.386817,-1.13637 1.886131,0.0435 0.512881,-0.44771 3.765571,-0.49914 z m 7.374842,0.14537 c 8.07762,0.26804 3.515272,1.91718 0,0 z m 40.460229,0.20719 c 14.17867775,0.59743 -10.16486,4.8401 0,0 z m -15.77724,1.31778 c 27.4784716,1.89815 -9.707187,1.90708 -18.672612,0.27432 6.218881,-0.24245 12.453678,0.07 18.672612,-0.27432 z m 102.351164,0.30426 c 14.679966,1.89314 21.529461,0.87751 1.574993,2.12646 -15.974293,3.2535 -32.15253,8.46167 -47.721121,12.47898 19.798544,5.20121 -1.702477,2.78445 -11.214549,-0.89349 -7.287982,-1.75292 13.675607,-2.31205 17.047707,-4.57982 13.315187,-3.49383 27.387473,-4.55399 40.31297,-9.13213 z m 21.211058,2.82777 c 15.614046,3.20647 34.957476,-1.40427 48.362586,7.42247 -32.5077,3.35894 -65.552007,7.80914 -98.085497,6.65132 -21.427739,-2.75943 5.664317,-4.73264 13.480926,-8.70784 11.552629,-4.49458 23.751487,-5.65703 36.241985,-5.36595 z m 49.680476,2.33857 c 14.1947,-0.22216 11.32164,7.53134 -1.46016,3.20709 -1.77543,-1.10589 -3.77535,-1.75355 -5.68839,-2.56571 2.74536,-0.41583 5.12074,-0.60969 7.14855,-0.64138 z m -42.28232,1.77698 c -11.980351,1.14782 -26.922362,0.58357 -37.639748,4.19795 15.306058,1.89197 34.694901,4.11009 48.050588,-2.02411 -2.93049,-1.78201 -7.00598,-1.99132 -10.41084,-2.17384 z m -2.223935,1.1256 c 30.220795,2.41237 -25.570543,4.78509 -31.67431,2.78783 5.286732,-1.12125 22.849382,-2.49273 31.67431,-2.78783 z m 11.628885,1.56989 c 0.33241,0.21202 0.51319,0.23713 0,0 z m -162.959165,6.44161 c -5.271092,0.0637 -16.240748,0.48664 -16.539453,0.44723 v 0.90851 c 3.161238,0.0879 60.1272701,1.08073 85.194564,3.20902 36.021483,3.22351 72.449203,6.37458 108.463894,1.19046 20.31073,-6.38766 41.73204,-4.75113 62.33771,-4.20543 v -0.90846 c -20.64762,0.20381 -42.0481,-2.6256 -62.23539,4.14052 -43.015357,5.95932 -86.421515,0.78497 -129.3254867,-3.57395 -15.8516953,0.0696 -32.0825703,-1.3994 -47.8958383,-1.208 z m -1.155641,3.91097 c -3.414672,0.0773 -13.670347,0.5104 -15.383841,0.48006 v 2.17635 c 29.878549,-0.6634 59.5612929,7.81077 89.445286,2.50515 20.800777,1.27614 38.645546,4.06947 10.740314,2.83525 -33.4184842,-0.43757 -67.116904,-0.30717 -100.185571,-3.92029 v 1.32029 c 7.201567,1.13072 28.112272,1.08976 21.067203,2.81212 -2.700942,0.49229 -15.496458,9.6e-4 -21.067203,-0.94782 v 1.49748 c 12.523264,0.7954 25.171584,1.68483 37.777955,0.51856 50.241196,0.72803 100.307525,-2.05154 150.573983,0.62646 18.66734,-2.14968 37.33692,-2.79662 56.07276,-1.6248 3.81572,0.227 7.71332,0.42888 11.57147,0.67389 v -1.49749 c -2.8431,-0.48422 -4.32553,-1.08605 -0.54911,-1.94674 0.12355,0.0386 0.41379,0.0435 0.54911,0.0826 v -1.32029 c -0.83734,-0.0918 -1.68445,-0.12026 -2.52096,-0.21733 -21.03995,0.28157 -42.18769,2.38155 -63.33613,4.89423 -8.80745,-0.029 -50.755117,-1.33656 -22.119584,-1.56234 29.368354,-0.0932 58.606324,-4.65281 87.876834,-4.53487 0.0333,-7.7e-4 0.0666,7.3e-4 0.0998,0 v -2.17634 c -10.03788,0.12557 -20.07609,0.22506 -30.11429,0.36416 -46.12823,5.46365 -92.69042,6.55226 -138.850251,0.72126 -23.7804194,2.84612 -47.745154,-2.2995 -71.647813,-1.7595 z m 169.915516,11.24104 c -53.170572,-0.66021 -106.230614,4.06281 -159.38488,2.54074 -9.493206,1.54405 -17.60583,1.09054 -25.914448,0.44964 v 1.54743 c 5.701808,0.37237 11.875418,0.87687 15.366327,0.43612 37.530608,-2.01011 75.256321,0.80877 112.764517,-2.74538 15.006966,0.26274 29.993408,-0.71682 44.990474,-0.86103 15.56927,0.43564 56.27992,2.78899 17.05021,3.05732 -63.377095,-1.61779 -126.9360826,5.82434 -190.171528,1.10373 v 10.63709 l 6.40067,-1.37327 c 6.370836,-1.36684 17.890278,3.69644 2.361226,2.82777 -1.414427,-0.0792 -7.441067,-0.0338 -8.761896,0.14055 v 5.86012 c 7.174693,-0.029 14.373382,1.18761 16.503643,1.64822 1.918864,0 156.922215,0 162.574705,0.0145 3.19419,-0.20382 58.03803,-2.12525 27.72553,-0.0145 7.32926,0 12.13261,-0.001 16.71582,0.0145 9.64354,-1.66262 22.15019,-1.44866 32.47647,-1.47097 v -5.86017 c -5.61592,0.31392 -15.61107,2.29148 0,-1.59481 v -10.63709 c -0.51724,-0.0386 -1.03531,-0.0435 -1.55251,-0.085 -16.60252,-2.48061 -8.63415,-1.57089 1.55251,-0.90594 v -1.54743 c -22.37641,-1.92457 -47.69887,0.58753 -70.69684,-3.18463 z m -37.981702,9.21201 5.206669,0.0145 c 13.428322,2.77044 -54.746429,0.89145 -10.413333,0.055 z m 82.128532,6.15961 c -10.54026,0.95917 -24.95241,4.92041 -22.59882,0.896 0.54246,-0.92754 0.90023,-2.47869 1.47921,-2.95586 -16.94227,-0.49141 -36.43441,0.72252 -52.782086,2.71128 7.78771,0.37575 24.171906,-0.30861 35.021436,1.09566 -28.323296,4.30869 -57.447313,-4.81392 -85.750237,0.11977 -20.480139,-7.09308 35.789065,0.89586 46.780112,-2.04154 14.395862,-2.30907 35.619075,-5.61164 42.735205,-3.87156 7.11614,1.74008 76.28539,0.29992 35.11518,4.04629 z M 2.2978965,263.92681 c -12.6060515,4.68767 -44.6506825,0.30813 -11.8310633,0.38686 l 7.6851971,-0.31973 z m -51.5949085,2.76286 c 14.132898,0.12219 -4.497592,0.98969 0,0 z m 48.81872773,4.47063 c -6.23558373,2.64757 -21.60242273,0.66973 -5.22892593,-2.41938 9.0848724,-1.71395 7.8729658,1.29672 5.22892593,2.41938 z M 16.729795,270.4159 c 12.183266,-0.60588 6.556063,1.93708 0.796907,2.21561 -5.640341,0.27288 -11.6037216,-1.67816 -0.796907,-2.21561 z m 150.466665,1.0832 c 16.11232,-0.0498 -13.91948,0.57796 0,0 z m -131.188348,0.39941 c 15.923335,-1.2773 85.694998,5.73779 35.057214,5.06627 -4.381187,-1.37167 -63.1106951,-2.81593 -35.057214,-5.06627 z m 100.350208,-3.73396 c -1.01657,0.12751 -37.965395,0.35015 -21.04631,-0.6564 3.95443,-0.2352 14.26622,-1.12879 19.35282,-0.88136 2.87417,0.13957 2.71006,1.41021 1.69349,1.53776 z"
       inkscape:tile-cx="300"
       inkscape:tile-cy="300.06936"
       inkscape:tile-w="200.3164"
       inkscape:tile-h="200.48005"
       inkscape:tile-x0="199.8418"
       inkscape:tile-y0="199.82934"
       sodipodi:nodetypes="cccccccccccsccccccccccccccccccccccccccccccccccccccccccccccccccccscssccccccccccsssscccccccsssccccccccccsssscccccccccccssscccccssccsscscccsccccssccccccccccccccccccccccccccccccccccccccccccccccccccccccccccccccccccccccccccccccccccccccccccccsscccssccccccccccccccssccccccccccccccsccsccccccccccccccscsccccsccccccccccsccccccccccccccccccccccccccccccccccccsccsccccccccccccccccccccccccccccccccccccccccccccccccccccccccccccccccccccccccccccccccccccccccccccccccccccccccccccccssccccccccccscssccscccscccccccscsccccsscccccccccccccccccccccccccccccccsccscccccccccccccscccscccccccsccccccccccccccccccscccsscccccccccccccccssssccccccssscccccccsscccccccccccccccccccscsccsscccccccccccccccsssccccccccscccsccccccccccccccccccccccccscccccccccccscsccccccccsscccccccccscsscccccccccsssccccccccsscccccccccccccccccccccccccssccscsccscccccccccccccscccsccsccccccccssccccccccsscccccccccccccccccccccccccccccccccccccccssccccccccccccccsccsssccccszsccccccssssssccscszssz" />
  </g>
</svg>
